  0
SECTION
  2
HEADER
  9
$ACADVER
  1
AC1009
  9
$EXTMIN
 10
0.0
 20
0.0
 30
0.0
  9
$EXTMAX
 10
1000.0
 20
1000.0
 30
0.0
  9
$FILLMODE
 70
 0
  9
$SPLFRAME
 70
 1
  0
ENDSEC
  0
SECTION
  2
TABLES
  0
TABLE
  2
LAYER
 70
1
  0
LAYER
  2
0
 70
     0
 62
     7
  6
CONTINUOUS
  0
ENDTAB
  0
ENDSEC
  0
SECTION
  2
ENTITIES
  0
LINE
  8
0
 62
     152
 10
36.3982
 20
50.7972
 30
0.0
 11
35.6567
 21
50.7792
 31
0.0
  0
LINE
  8
0
 62
     152
 10
35.6567
 20
50.7792
 30
0.0
 11
34.925
 21
50.7242
 31
0.0
  0
LINE
  8
0
 62
     152
 10
34.925
 20
50.7242
 30
0.0
 11
34.2043
 21
50.6331
 31
0.0
  0
LINE
  8
0
 62
     152
 10
34.2043
 20
50.6331
 30
0.0
 11
33.496
 21
50.5051
 31
0.0
  0
LINE
  8
0
 62
     152
 10
33.496
 20
50.5051
 30
0.0
 11
32.7987
 21
50.3439
 31
0.0
  0
LINE
  8
0
 62
     152
 10
32.7987
 20
50.3439
 30
0.0
 11
32.1152
 21
50.1509
 31
0.0
  0
LINE
  8
0
 62
     152
 10
32.1152
 20
50.1509
 30
0.0
 11
31.4468
 21
49.9251
 31
0.0
  0
LINE
  8
0
 62
     152
 10
31.4468
 20
49.9251
 30
0.0
 11
30.7923
 21
49.6658
 31
0.0
  0
LINE
  8
0
 62
     152
 10
30.7923
 20
49.6658
 30
0.0
 11
30.1542
 21
49.3794
 31
0.0
  0
LINE
  8
0
 62
     152
 10
30.1542
 20
49.3794
 30
0.0
 11
29.5341
 21
49.0608
 31
0.0
  0
LINE
  8
0
 62
     152
 10
29.5341
 20
49.0608
 30
0.0
 11
28.9305
 21
48.7123
 31
0.0
  0
LINE
  8
0
 62
     152
 10
28.9305
 20
48.7123
 30
0.0
 11
28.3463
 21
48.3387
 31
0.0
  0
LINE
  8
0
 62
     152
 10
28.3463
 20
48.3387
 30
0.0
 11
27.7826
 21
47.9379
 31
0.0
  0
LINE
  8
0
 62
     152
 10
27.7826
 20
47.9379
 30
0.0
 11
27.2383
 21
47.5107
 31
0.0
  0
LINE
  8
0
 62
     152
 10
27.2383
 20
47.5107
 30
0.0
 11
26.716
 21
47.0574
 31
0.0
  0
LINE
  8
0
 62
     152
 10
26.716
 20
47.0574
 30
0.0
 11
26.2158
 21
46.5804
 31
0.0
  0
LINE
  8
0
 62
     152
 10
26.2158
 20
46.5804
 30
0.0
 11
25.739
 21
46.0802
 31
0.0
  0
LINE
  8
0
 62
     152
 10
25.739
 20
46.0802
 30
0.0
 11
25.287
 21
45.5581
 31
0.0
  0
LINE
  8
0
 62
     152
 10
25.287
 20
45.5581
 30
0.0
 11
24.8584
 21
45.0151
 31
0.0
  0
LINE
  8
0
 62
     152
 10
24.8584
 20
45.0151
 30
0.0
 11
24.4574
 21
44.4486
 31
0.0
  0
LINE
  8
0
 62
     152
 10
24.4574
 20
44.4486
 30
0.0
 11
24.0826
 21
43.8658
 31
0.0
  0
LINE
  8
0
 62
     152
 10
24.0826
 20
43.8658
 30
0.0
 11
23.7367
 21
43.2636
 31
0.0
  0
LINE
  8
0
 62
     152
 10
23.7367
 20
43.2636
 30
0.0
 11
23.4184
 21
42.6406
 31
0.0
  0
LINE
  8
0
 62
     152
 10
23.4184
 20
42.6406
 30
0.0
 11
23.1304
 21
42.0038
 31
0.0
  0
LINE
  8
0
 62
     152
 10
23.1304
 20
42.0038
 30
0.0
 11
22.8727
 21
41.3508
 31
0.0
  0
LINE
  8
0
 62
     152
 10
22.8727
 20
41.3508
 30
0.0
 11
22.6453
 21
40.6809
 31
0.0
  0
LINE
  8
0
 62
     152
 10
22.6453
 20
40.6809
 30
0.0
 11
22.4524
 21
39.9976
 31
0.0
  0
LINE
  8
0
 62
     152
 10
22.4524
 20
39.9976
 30
0.0
 11
22.2911
 21
39.3016
 31
0.0
  0
LINE
  8
0
 62
     152
 10
22.2911
 20
39.3016
 30
0.0
 11
22.1644
 21
38.5921
 31
0.0
  0
LINE
  8
0
 62
     152
 10
22.1644
 20
38.5921
 30
0.0
 11
22.0734
 21
37.8714
 31
0.0
  0
LINE
  8
0
 62
     152
 10
22.0734
 20
37.8714
 30
0.0
 11
22.0169
 21
37.1408
 31
0.0
  0
LINE
  8
0
 62
     152
 10
22.0169
 20
37.1408
 30
0.0
 11
21.999
 21
36.3996
 31
0.0
  0
LINE
  8
0
 62
     152
 10
21.999
 20
36.3996
 30
0.0
 11
21.999
 21
28.7679
 31
0.0
  0
LINE
  8
0
 62
     152
 10
21.999
 20
28.7679
 30
0.0
 11
14.3991
 21
28.7679
 31
0.0
  0
LINE
  8
0
 62
     152
 10
14.3991
 20
28.7679
 30
0.0
 11
13.6577
 21
28.7486
 31
0.0
  0
LINE
  8
0
 62
     152
 10
13.6577
 20
28.7486
 30
0.0
 11
12.9274
 21
28.6921
 31
0.0
  0
LINE
  8
0
 62
     152
 10
12.9274
 20
28.6921
 30
0.0
 11
12.2067
 21
28.6012
 31
0.0
  0
LINE
  8
0
 62
     152
 10
12.2067
 20
28.6012
 30
0.0
 11
11.497
 21
28.4772
 31
0.0
  0
LINE
  8
0
 62
     152
 10
11.497
 20
28.4772
 30
0.0
 11
10.7997
 21
28.3173
 31
0.0
  0
LINE
  8
0
 62
     152
 10
10.7997
 20
28.3173
 30
0.0
 11
10.1176
 21
28.123
 31
0.0
  0
LINE
  8
0
 62
     152
 10
10.1176
 20
28.123
 30
0.0
 11
9.44785
 21
27.897
 31
0.0
  0
LINE
  8
0
 62
     152
 10
9.44785
 20
27.897
 30
0.0
 11
8.79464
 21
27.6407
 31
0.0
  0
LINE
  8
0
 62
     152
 10
8.79464
 20
27.6407
 30
0.0
 11
8.15661
 21
27.3527
 31
0.0
  0
LINE
  8
0
 62
     152
 10
8.15661
 20
27.3527
 30
0.0
 11
7.53512
 21
27.0371
 31
0.0
  0
LINE
  8
0
 62
     152
 10
7.53512
 20
27.0371
 30
0.0
 11
6.93289
 21
26.6912
 31
0.0
  0
LINE
  8
0
 62
     152
 10
6.93289
 20
26.6912
 30
0.0
 11
6.34862
 21
26.3192
 31
0.0
  0
LINE
  8
0
 62
     152
 10
6.34862
 20
26.3192
 30
0.0
 11
5.78362
 21
25.9182
 31
0.0
  0
LINE
  8
0
 62
     152
 10
5.78362
 20
25.9182
 30
0.0
 11
5.23931
 21
25.4923
 31
0.0
  0
LINE
  8
0
 62
     152
 10
5.23931
 20
25.4923
 30
0.0
 11
4.71703
 21
25.0417
 31
0.0
  0
LINE
  8
0
 62
     152
 10
4.71703
 20
25.0417
 30
0.0
 11
4.21679
 21
24.5663
 31
0.0
  0
LINE
  8
0
 62
     152
 10
4.21679
 20
24.5663
 30
0.0
 11
3.74001
 21
24.0675
 31
0.0
  0
LINE
  8
0
 62
     152
 10
3.74001
 20
24.0675
 30
0.0
 11
3.288
 21
23.5452
 31
0.0
  0
LINE
  8
0
 62
     152
 10
3.288
 20
23.5452
 30
0.0
 11
2.86081
 21
23.0022
 31
0.0
  0
LINE
  8
0
 62
     152
 10
2.86081
 20
23.0022
 30
0.0
 11
2.45842
 21
22.4414
 31
0.0
  0
LINE
  8
0
 62
     152
 10
2.45842
 20
22.4414
 30
0.0
 11
2.08497
 21
21.8571
 31
0.0
  0
LINE
  8
0
 62
     152
 10
2.08497
 20
21.8571
 30
0.0
 11
1.73771
 21
21.2562
 31
0.0
  0
LINE
  8
0
 62
     152
 10
1.73771
 20
21.2562
 30
0.0
 11
1.41938
 21
20.6361
 31
0.0
  0
LINE
  8
0
 62
     152
 10
1.41938
 20
20.6361
 30
0.0
 11
1.13137
 21
20.0008
 31
0.0
  0
LINE
  8
0
 62
     152
 10
1.13137
 20
20.0008
 30
0.0
 11
0.873675
 21
19.3477
 31
0.0
  0
LINE
  8
0
 62
     152
 10
0.873675
 20
19.3477
 30
0.0
 11
0.647679
 21
18.6793
 31
0.0
  0
LINE
  8
0
 62
     152
 10
0.647679
 20
18.6793
 30
0.0
 11
0.453376
 21
17.9972
 31
0.0
  0
LINE
  8
0
 62
     152
 10
0.453376
 20
17.9972
 30
0.0
 11
0.292144
 21
17.2999
 31
0.0
  0
LINE
  8
0
 62
     152
 10
0.292144
 20
17.2999
 30
0.0
 11
0.165365
 21
16.593
 31
0.0
  0
LINE
  8
0
 62
     152
 10
0.165365
 20
16.593
 30
0.0
 11
0.0744142
 21
15.8722
 31
0.0
  0
LINE
  8
0
 62
     152
 10
0.0744142
 20
15.8722
 30
0.0
 11
0.0192925
 21
15.1419
 31
0.0
  0
LINE
  8
0
 62
     152
 10
0.0192925
 20
15.1419
 30
0.0
 11
0
 21
14.4005
 31
0.0
  0
LINE
  8
0
 62
     152
 10
0
 20
14.4005
 30
0.0
 11
0.0192925
 21
13.6591
 31
0.0
  0
LINE
  8
0
 62
     152
 10
0.0192925
 20
13.6591
 30
0.0
 11
0.0744142
 21
12.9274
 31
0.0
  0
LINE
  8
0
 62
     152
 10
0.0744142
 20
12.9274
 30
0.0
 11
0.165365
 21
12.2081
 31
0.0
  0
LINE
  8
0
 62
     152
 10
0.165365
 20
12.2081
 30
0.0
 11
0.292144
 21
11.4984
 31
0.0
  0
LINE
  8
0
 62
     152
 10
0.292144
 20
11.4984
 30
0.0
 11
0.453376
 21
10.8011
 31
0.0
  0
LINE
  8
0
 62
     152
 10
0.453376
 20
10.8011
 30
0.0
 11
0.647679
 21
10.1176
 31
0.0
  0
LINE
  8
0
 62
     152
 10
0.647679
 20
10.1176
 30
0.0
 11
0.873675
 21
9.44922
 31
0.0
  0
LINE
  8
0
 62
     152
 10
0.873675
 20
9.44922
 30
0.0
 11
1.13137
 21
8.79464
 31
0.0
  0
LINE
  8
0
 62
     152
 10
1.13137
 20
8.79464
 30
0.0
 11
1.41938
 21
8.15523
 31
0.0
  0
LINE
  8
0
 62
     152
 10
1.41938
 20
8.15523
 30
0.0
 11
1.73771
 21
7.5365
 31
0.0
  0
LINE
  8
0
 62
     152
 10
1.73771
 20
7.5365
 30
0.0
 11
2.08497
 21
6.93289
 31
0.0
  0
LINE
  8
0
 62
     152
 10
2.08497
 20
6.93289
 30
0.0
 11
2.4598
 21
6.34725
 31
0.0
  0
LINE
  8
0
 62
     152
 10
2.4598
 20
6.34725
 30
0.0
 11
2.86081
 21
5.78499
 31
0.0
  0
LINE
  8
0
 62
     152
 10
2.86081
 20
5.78499
 30
0.0
 11
3.288
 21
5.24069
 31
0.0
  0
LINE
  8
0
 62
     152
 10
3.288
 20
5.24069
 30
0.0
 11
3.74001
 21
4.71703
 31
0.0
  0
LINE
  8
0
 62
     152
 10
3.74001
 20
4.71703
 30
0.0
 11
4.21679
 21
4.21679
 31
0.0
  0
LINE
  8
0
 62
     152
 10
4.21679
 20
4.21679
 30
0.0
 11
4.71703
 21
3.74138
 31
0.0
  0
LINE
  8
0
 62
     152
 10
4.71703
 20
3.74138
 30
0.0
 11
5.23931
 21
3.288
 31
0.0
  0
LINE
  8
0
 62
     152
 10
5.23931
 20
3.288
 30
0.0
 11
5.78362
 21
2.86081
 31
0.0
  0
LINE
  8
0
 62
     152
 10
5.78362
 20
2.86081
 30
0.0
 11
6.34862
 21
2.4598
 31
0.0
  0
LINE
  8
0
 62
     152
 10
6.34862
 20
2.4598
 30
0.0
 11
6.93289
 21
2.08497
 31
0.0
  0
LINE
  8
0
 62
     152
 10
6.93289
 20
2.08497
 30
0.0
 11
7.53512
 21
1.73909
 31
0.0
  0
LINE
  8
0
 62
     152
 10
7.53512
 20
1.73909
 30
0.0
 11
8.15661
 21
1.42076
 31
0.0
  0
LINE
  8
0
 62
     152
 10
8.15661
 20
1.42076
 30
0.0
 11
8.79464
 21
1.13137
 31
0.0
  0
LINE
  8
0
 62
     152
 10
8.79464
 20
1.13137
 30
0.0
 11
9.44785
 21
0.873675
 31
0.0
  0
LINE
  8
0
 62
     152
 10
9.44785
 20
0.873675
 30
0.0
 11
10.1176
 21
0.646299
 31
0.0
  0
LINE
  8
0
 62
     152
 10
10.1176
 20
0.646299
 30
0.0
 11
10.8011
 21
0.453376
 31
0.0
  0
LINE
  8
0
 62
     152
 10
10.8011
 20
0.453376
 30
0.0
 11
11.497
 21
0.292144
 31
0.0
  0
LINE
  8
0
 62
     152
 10
11.497
 20
0.292144
 30
0.0
 11
12.2067
 21
0.166743
 31
0.0
  0
LINE
  8
0
 62
     152
 10
12.2067
 20
0.166743
 30
0.0
 11
12.9274
 21
0.0730359
 31
0.0
  0
LINE
  8
0
 62
     152
 10
12.9274
 20
0.0730359
 30
0.0
 11
13.6577
 21
0.0192925
 31
0.0
  0
LINE
  8
0
 62
     152
 10
13.6577
 20
0.0192925
 30
0.0
 11
14.3991
 21
-0.00137804
 31
0.0
  0
LINE
  8
0
 62
     152
 10
14.3991
 20
-0.00137804
 30
0.0
 11
15.1405
 21
0.0192925
 31
0.0
  0
LINE
  8
0
 62
     152
 10
15.1405
 20
0.0192925
 30
0.0
 11
15.8709
 21
0.0730359
 31
0.0
  0
LINE
  8
0
 62
     152
 10
15.8709
 20
0.0730359
 30
0.0
 11
16.5916
 21
0.166743
 31
0.0
  0
LINE
  8
0
 62
     152
 10
16.5916
 20
0.166743
 30
0.0
 11
17.3013
 21
0.292144
 31
0.0
  0
LINE
  8
0
 62
     152
 10
17.3013
 20
0.292144
 30
0.0
 11
17.9972
 21
0.453376
 31
0.0
  0
LINE
  8
0
 62
     152
 10
17.9972
 20
0.453376
 30
0.0
 11
18.6807
 21
0.646299
 31
0.0
  0
LINE
  8
0
 62
     152
 10
18.6807
 20
0.646299
 30
0.0
 11
19.349
 21
0.873675
 31
0.0
  0
LINE
  8
0
 62
     152
 10
19.349
 20
0.873675
 30
0.0
 11
20.0036
 21
1.13137
 31
0.0
  0
LINE
  8
0
 62
     152
 10
20.0036
 20
1.13137
 30
0.0
 11
20.6416
 21
1.42076
 31
0.0
  0
LINE
  8
0
 62
     152
 10
20.6416
 20
1.42076
 30
0.0
 11
21.2617
 21
1.73909
 31
0.0
  0
LINE
  8
0
 62
     152
 10
21.2617
 20
1.73909
 30
0.0
 11
21.8653
 21
2.08497
 31
0.0
  0
LINE
  8
0
 62
     152
 10
21.8653
 20
2.08497
 30
0.0
 11
22.4496
 21
2.4598
 31
0.0
  0
LINE
  8
0
 62
     152
 10
22.4496
 20
2.4598
 30
0.0
 11
23.0132
 21
2.86081
 31
0.0
  0
LINE
  8
0
 62
     152
 10
23.0132
 20
2.86081
 30
0.0
 11
23.5575
 21
3.288
 31
0.0
  0
LINE
  8
0
 62
     152
 10
23.5575
 20
3.288
 30
0.0
 11
24.0798
 21
3.74138
 31
0.0
  0
LINE
  8
0
 62
     152
 10
24.0798
 20
3.74138
 30
0.0
 11
24.5801
 21
4.21679
 31
0.0
  0
LINE
  8
0
 62
     152
 10
24.5801
 20
4.21679
 30
0.0
 11
25.0569
 21
4.71703
 31
0.0
  0
LINE
  8
0
 62
     152
 10
25.0569
 20
4.71703
 30
0.0
 11
25.5089
 21
5.24069
 31
0.0
  0
LINE
  8
0
 62
     152
 10
25.5089
 20
5.24069
 30
0.0
 11
25.936
 21
5.78499
 31
0.0
  0
LINE
  8
0
 62
     152
 10
25.936
 20
5.78499
 30
0.0
 11
26.3385
 21
6.34725
 31
0.0
  0
LINE
  8
0
 62
     152
 10
26.3385
 20
6.34725
 30
0.0
 11
26.7133
 21
6.93289
 31
0.0
  0
LINE
  8
0
 62
     152
 10
26.7133
 20
6.93289
 30
0.0
 11
27.0592
 21
7.5365
 31
0.0
  0
LINE
  8
0
 62
     152
 10
27.0592
 20
7.5365
 30
0.0
 11
27.3775
 21
8.15523
 31
0.0
  0
LINE
  8
0
 62
     152
 10
27.3775
 20
8.15523
 30
0.0
 11
27.6655
 21
8.79464
 31
0.0
  0
LINE
  8
0
 62
     152
 10
27.6655
 20
8.79464
 30
0.0
 11
27.9232
 21
9.44922
 31
0.0
  0
LINE
  8
0
 62
     152
 10
27.9232
 20
9.44922
 30
0.0
 11
28.1506
 21
10.1176
 31
0.0
  0
LINE
  8
0
 62
     152
 10
28.1506
 20
10.1176
 30
0.0
 11
28.3435
 21
10.8011
 31
0.0
  0
LINE
  8
0
 62
     152
 10
28.3435
 20
10.8011
 30
0.0
 11
28.5047
 21
11.4984
 31
0.0
  0
LINE
  8
0
 62
     152
 10
28.5047
 20
11.4984
 30
0.0
 11
28.6315
 21
12.2081
 31
0.0
  0
LINE
  8
0
 62
     152
 10
28.6315
 20
12.2081
 30
0.0
 11
28.7225
 21
12.9274
 31
0.0
  0
LINE
  8
0
 62
     152
 10
28.7225
 20
12.9274
 30
0.0
 11
28.7789
 21
13.6591
 31
0.0
  0
LINE
  8
0
 62
     152
 10
28.7789
 20
13.6591
 30
0.0
 11
28.7969
 21
14.4005
 31
0.0
  0
LINE
  8
0
 62
     152
 10
28.7969
 20
14.4005
 30
0.0
 11
28.7969
 21
22.061
 31
0.0
  0
LINE
  8
0
 62
     152
 10
28.7969
 20
22.061
 30
0.0
 11
36.3982
 21
22.061
 31
0.0
  0
LINE
  8
0
 62
     152
 10
36.3982
 20
22.061
 30
0.0
 11
37.138
 21
22.0775
 31
0.0
  0
LINE
  8
0
 62
     152
 10
37.138
 20
22.0775
 30
0.0
 11
37.87
 21
22.1341
 31
0.0
  0
LINE
  8
0
 62
     152
 10
37.87
 20
22.1341
 30
0.0
 11
38.5907
 21
22.2236
 31
0.0
  0
LINE
  8
0
 62
     152
 10
38.5907
 20
22.2236
 30
0.0
 11
39.2987
 21
22.3504
 31
0.0
  0
LINE
  8
0
 62
     152
 10
39.2987
 20
22.3504
 30
0.0
 11
39.9962
 21
22.5103
 31
0.0
  0
LINE
  8
0
 62
     152
 10
39.9962
 20
22.5103
 30
0.0
 11
40.6799
 21
22.7032
 31
0.0
  0
LINE
  8
0
 62
     152
 10
40.6799
 20
22.7032
 30
0.0
 11
41.348
 21
22.9264
 31
0.0
  0
LINE
  8
0
 62
     152
 10
41.348
 20
22.9264
 30
0.0
 11
42.0028
 21
23.1827
 31
0.0
  0
LINE
  8
0
 62
     152
 10
42.0028
 20
23.1827
 30
0.0
 11
42.6392
 21
23.4694
 31
0.0
  0
LINE
  8
0
 62
     152
 10
42.6392
 20
23.4694
 30
0.0
 11
43.2608
 21
23.7849
 31
0.0
  0
LINE
  8
0
 62
     152
 10
43.2608
 20
23.7849
 30
0.0
 11
43.8644
 21
24.1281
 31
0.0
  0
LINE
  8
0
 62
     152
 10
43.8644
 20
24.1281
 30
0.0
 11
44.4472
 21
24.5001
 31
0.0
  0
LINE
  8
0
 62
     152
 10
44.4472
 20
24.5001
 30
0.0
 11
45.0123
 21
24.897
 31
0.0
  0
LINE
  8
0
 62
     152
 10
45.0123
 20
24.897
 30
0.0
 11
45.5567
 21
25.3228
 31
0.0
  0
LINE
  8
0
 62
     152
 10
45.5567
 20
25.3228
 30
0.0
 11
46.0788
 21
25.7735
 31
0.0
  0
LINE
  8
0
 62
     152
 10
46.0788
 20
25.7735
 30
0.0
 11
46.579
 21
26.2475
 31
0.0
  0
LINE
  8
0
 62
     152
 10
46.579
 20
26.2475
 30
0.0
 11
47.056
 21
26.7436
 31
0.0
  0
LINE
  8
0
 62
     152
 10
47.056
 20
26.7436
 30
0.0
 11
47.5079
 21
27.2631
 31
0.0
  0
LINE
  8
0
 62
     152
 10
47.5079
 20
27.2631
 30
0.0
 11
47.9351
 21
27.8047
 31
0.0
  0
LINE
  8
0
 62
     152
 10
47.9351
 20
27.8047
 30
0.0
 11
48.3376
 21
28.3669
 31
0.0
  0
LINE
  8
0
 62
     152
 10
48.3376
 20
28.3669
 30
0.0
 11
48.7109
 21
28.9485
 31
0.0
  0
LINE
  8
0
 62
     152
 10
48.7109
 20
28.9485
 30
0.0
 11
49.0583
 21
29.5479
 31
0.0
  0
LINE
  8
0
 62
     152
 10
49.0583
 20
29.5479
 30
0.0
 11
49.3765
 21
30.1666
 31
0.0
  0
LINE
  8
0
 62
     152
 10
49.3765
 20
30.1666
 30
0.0
 11
49.6644
 21
30.8019
 31
0.0
  0
LINE
  8
0
 62
     152
 10
49.6644
 20
30.8019
 30
0.0
 11
49.9223
 21
31.4537
 31
0.0
  0
LINE
  8
0
 62
     152
 10
49.9223
 20
31.4537
 30
0.0
 11
50.1481
 21
32.1207
 31
0.0
  0
LINE
  8
0
 62
     152
 10
50.1481
 20
32.1207
 30
0.0
 11
50.3424
 21
32.8028
 31
0.0
  0
LINE
  8
0
 62
     152
 10
50.3424
 20
32.8028
 30
0.0
 11
50.5037
 21
33.496
 31
0.0
  0
LINE
  8
0
 62
     152
 10
50.5037
 20
33.496
 30
0.0
 11
50.6307
 21
34.2043
 31
0.0
  0
LINE
  8
0
 62
     152
 10
50.6307
 20
34.2043
 30
0.0
 11
50.7213
 21
34.9236
 31
0.0
  0
LINE
  8
0
 62
     152
 10
50.7213
 20
34.9236
 30
0.0
 11
50.7781
 21
35.6567
 31
0.0
  0
LINE
  8
0
 62
     152
 10
50.7781
 20
35.6567
 30
0.0
 11
50.7958
 21
36.3968
 31
0.0
  0
LINE
  8
0
 62
     152
 10
50.7958
 20
36.3968
 30
0.0
 11
50.7781
 21
37.138
 31
0.0
  0
LINE
  8
0
 62
     152
 10
50.7781
 20
37.138
 30
0.0
 11
50.7213
 21
37.8686
 31
0.0
  0
LINE
  8
0
 62
     152
 10
50.7213
 20
37.8686
 30
0.0
 11
50.6307
 21
38.5893
 31
0.0
  0
LINE
  8
0
 62
     152
 10
50.6307
 20
38.5893
 30
0.0
 11
50.5037
 21
39.2987
 31
0.0
  0
LINE
  8
0
 62
     152
 10
50.5037
 20
39.2987
 30
0.0
 11
50.3424
 21
39.9948
 31
0.0
  0
LINE
  8
0
 62
     152
 10
50.3424
 20
39.9948
 30
0.0
 11
50.1481
 21
40.6785
 31
0.0
  0
LINE
  8
0
 62
     152
 10
50.1481
 20
40.6785
 30
0.0
 11
49.9223
 21
41.3466
 31
0.0
  0
LINE
  8
0
 62
     152
 10
49.9223
 20
41.3466
 30
0.0
 11
49.6644
 21
42.0014
 31
0.0
  0
LINE
  8
0
 62
     152
 10
49.6644
 20
42.0014
 30
0.0
 11
49.3765
 21
42.6392
 31
0.0
  0
LINE
  8
0
 62
     152
 10
49.3765
 20
42.6392
 30
0.0
 11
49.0583
 21
43.2608
 31
0.0
  0
LINE
  8
0
 62
     152
 10
49.0583
 20
43.2608
 30
0.0
 11
48.7109
 21
43.8616
 31
0.0
  0
LINE
  8
0
 62
     152
 10
48.7109
 20
43.8616
 30
0.0
 11
48.3376
 21
44.4472
 31
0.0
  0
LINE
  8
0
 62
     152
 10
48.3376
 20
44.4472
 30
0.0
 11
47.9351
 21
45.0123
 31
0.0
  0
LINE
  8
0
 62
     152
 10
47.9351
 20
45.0123
 30
0.0
 11
47.5079
 21
45.5567
 31
0.0
  0
LINE
  8
0
 62
     152
 10
47.5079
 20
45.5567
 30
0.0
 11
47.056
 21
46.0788
 31
0.0
  0
LINE
  8
0
 62
     152
 10
47.056
 20
46.0788
 30
0.0
 11
46.579
 21
46.579
 31
0.0
  0
LINE
  8
0
 62
     152
 10
46.579
 20
46.579
 30
0.0
 11
46.0788
 21
47.056
 31
0.0
  0
LINE
  8
0
 62
     152
 10
46.0788
 20
47.056
 30
0.0
 11
45.5567
 21
47.5065
 31
0.0
  0
LINE
  8
0
 62
     152
 10
45.5567
 20
47.5065
 30
0.0
 11
45.0123
 21
47.9351
 31
0.0
  0
LINE
  8
0
 62
     152
 10
45.0123
 20
47.9351
 30
0.0
 11
44.4472
 21
48.3376
 31
0.0
  0
LINE
  8
0
 62
     152
 10
44.4472
 20
48.3376
 30
0.0
 11
43.8644
 21
48.7109
 31
0.0
  0
LINE
  8
0
 62
     152
 10
43.8644
 20
48.7109
 30
0.0
 11
43.2608
 21
49.0583
 31
0.0
  0
LINE
  8
0
 62
     152
 10
43.2608
 20
49.0583
 30
0.0
 11
42.6392
 21
49.3765
 31
0.0
  0
LINE
  8
0
 62
     152
 10
42.6392
 20
49.3765
 30
0.0
 11
42.0028
 21
49.6644
 31
0.0
  0
LINE
  8
0
 62
     152
 10
42.0028
 20
49.6644
 30
0.0
 11
41.348
 21
49.9223
 31
0.0
  0
LINE
  8
0
 62
     152
 10
41.348
 20
49.9223
 30
0.0
 11
40.6799
 21
50.1495
 31
0.0
  0
LINE
  8
0
 62
     152
 10
40.6799
 20
50.1495
 30
0.0
 11
39.9962
 21
50.341
 31
0.0
  0
LINE
  8
0
 62
     152
 10
39.9962
 20
50.341
 30
0.0
 11
39.2987
 21
50.5037
 31
0.0
  0
LINE
  8
0
 62
     152
 10
39.2987
 20
50.5037
 30
0.0
 11
38.5907
 21
50.6307
 31
0.0
  0
LINE
  8
0
 62
     152
 10
38.5907
 20
50.6307
 30
0.0
 11
37.87
 21
50.7213
 31
0.0
  0
LINE
  8
0
 62
     152
 10
37.87
 20
50.7213
 30
0.0
 11
37.138
 21
50.7781
 31
0.0
  0
LINE
  8
0
 62
     152
 10
37.138
 20
50.7781
 30
0.0
 11
36.3982
 21
50.7972
 31
0.0
  0
LINE
  8
0
 62
     152
 10
21.999
 20
14.3867
 30
0.0
 11
21.988
 21
13.9967
 31
0.0
  0
LINE
  8
0
 62
     152
 10
21.988
 20
13.9967
 30
0.0
 11
21.9577
 21
13.6095
 31
0.0
  0
LINE
  8
0
 62
     152
 10
21.9577
 20
13.6095
 30
0.0
 11
21.9094
 21
13.2319
 31
0.0
  0
LINE
  8
0
 62
     152
 10
21.9094
 20
13.2319
 30
0.0
 11
21.8419
 21
12.8585
 31
0.0
  0
LINE
  8
0
 62
     152
 10
21.8419
 20
12.8585
 30
0.0
 11
21.7565
 21
12.4906
 31
0.0
  0
LINE
  8
0
 62
     152
 10
21.7565
 20
12.4906
 30
0.0
 11
21.6545
 21
12.1309
 31
0.0
  0
LINE
  8
0
 62
     152
 10
21.6545
 20
12.1309
 30
0.0
 11
21.5346
 21
11.7781
 31
0.0
  0
LINE
  8
0
 62
     152
 10
21.5346
 20
11.7781
 30
0.0
 11
21.3982
 21
11.4336
 31
0.0
  0
LINE
  8
0
 62
     152
 10
21.3982
 20
11.4336
 30
0.0
 11
21.2452
 21
11.096
 31
0.0
  0
LINE
  8
0
 62
     152
 10
21.2452
 20
11.096
 30
0.0
 11
21.0771
 21
10.7708
 31
0.0
  0
LINE
  8
0
 62
     152
 10
21.0771
 20
10.7708
 30
0.0
 11
20.8952
 21
10.4524
 31
0.0
  0
LINE
  8
0
 62
     152
 10
20.8952
 20
10.4524
 30
0.0
 11
20.6968
 21
10.1451
 31
0.0
  0
LINE
  8
0
 62
     152
 10
20.6968
 20
10.1451
 30
0.0
 11
20.4845
 21
9.8461
 31
0.0
  0
LINE
  8
0
 62
     152
 10
20.4845
 20
9.8461
 30
0.0
 11
20.2585
 21
9.56084
 31
0.0
  0
LINE
  8
0
 62
     152
 10
20.2585
 20
9.56084
 30
0.0
 11
20.0201
 21
9.28522
 31
0.0
  0
LINE
  8
0
 62
     152
 10
20.0201
 20
9.28522
 30
0.0
 11
19.7693
 21
9.02201
 31
0.0
  0
LINE
  8
0
 62
     152
 10
19.7693
 20
9.02201
 30
0.0
 11
19.5048
 21
8.77122
 31
0.0
  0
LINE
  8
0
 62
     152
 10
19.5048
 20
8.77122
 30
0.0
 11
19.2291
 21
8.53281
 31
0.0
  0
LINE
  8
0
 62
     152
 10
19.2291
 20
8.53281
 30
0.0
 11
18.9425
 21
8.30682
 31
0.0
  0
LINE
  8
0
 62
     152
 10
18.9425
 20
8.30682
 30
0.0
 11
18.6449
 21
8.09597
 31
0.0
  0
LINE
  8
0
 62
     152
 10
18.6449
 20
8.09597
 30
0.0
 11
18.3362
 21
7.89753
 31
0.0
  0
LINE
  8
0
 62
     152
 10
18.3362
 20
7.89753
 30
0.0
 11
18.0178
 21
7.71426
 31
0.0
  0
LINE
  8
0
 62
     152
 10
18.0178
 20
7.71426
 30
0.0
 11
17.6912
 21
7.5475
 31
0.0
  0
LINE
  8
0
 62
     152
 10
17.6912
 20
7.5475
 30
0.0
 11
17.3536
 21
7.39592
 31
0.0
  0
LINE
  8
0
 62
     152
 10
17.3536
 20
7.39592
 30
0.0
 11
17.0091
 21
7.25812
 31
0.0
  0
LINE
  8
0
 62
     152
 10
17.0091
 20
7.25812
 30
0.0
 11
16.6563
 21
7.141
 31
0.0
  0
LINE
  8
0
 62
     152
 10
16.6563
 20
7.141
 30
0.0
 11
16.2967
 21
7.03763
 31
0.0
  0
LINE
  8
0
 62
     152
 10
16.2967
 20
7.03763
 30
0.0
 11
15.9287
 21
6.95219
 31
0.0
  0
LINE
  8
0
 62
     152
 10
15.9287
 20
6.95219
 30
0.0
 11
15.5553
 21
6.88742
 31
0.0
  0
LINE
  8
0
 62
     152
 10
15.5553
 20
6.88742
 30
0.0
 11
15.1749
 21
6.8392
 31
0.0
  0
LINE
  8
0
 62
     152
 10
15.1749
 20
6.8392
 30
0.0
 11
14.7891
 21
6.80889
 31
0.0
  0
LINE
  8
0
 62
     152
 10
14.7891
 20
6.80889
 30
0.0
 11
14.3991
 21
6.79923
 31
0.0
  0
LINE
  8
0
 62
     152
 10
14.3991
 20
6.79923
 30
0.0
 11
14.0077
 21
6.80889
 31
0.0
  0
LINE
  8
0
 62
     152
 10
14.0077
 20
6.80889
 30
0.0
 11
13.6219
 21
6.8392
 31
0.0
  0
LINE
  8
0
 62
     152
 10
13.6219
 20
6.8392
 30
0.0
 11
13.2416
 21
6.88742
 31
0.0
  0
LINE
  8
0
 62
     152
 10
13.2416
 20
6.88742
 30
0.0
 11
12.8668
 21
6.95219
 31
0.0
  0
LINE
  8
0
 62
     152
 10
12.8668
 20
6.95219
 30
0.0
 11
12.4974
 21
7.03763
 31
0.0
  0
LINE
  8
0
 62
     152
 10
12.4974
 20
7.03763
 30
0.0
 11
12.1364
 21
7.141
 31
0.0
  0
LINE
  8
0
 62
     152
 10
12.1364
 20
7.141
 30
0.0
 11
11.7822
 21
7.2595
 31
0.0
  0
LINE
  8
0
 62
     152
 10
11.7822
 20
7.2595
 30
0.0
 11
11.4363
 21
7.39733
 31
0.0
  0
LINE
  8
0
 62
     152
 10
11.4363
 20
7.39733
 30
0.0
 11
11.0987
 21
7.54888
 31
0.0
  0
LINE
  8
0
 62
     152
 10
11.0987
 20
7.54888
 30
0.0
 11
10.7694
 21
7.71564
 31
0.0
  0
LINE
  8
0
 62
     152
 10
10.7694
 20
7.71564
 30
0.0
 11
10.4497
 21
7.90028
 31
0.0
  0
LINE
  8
0
 62
     152
 10
10.4497
 20
7.90028
 30
0.0
 11
10.1396
 21
8.09597
 31
0.0
  0
LINE
  8
0
 62
     152
 10
10.1396
 20
8.09597
 30
0.0
 11
9.84056
 21
8.30958
 31
0.0
  0
LINE
  8
0
 62
     152
 10
9.84056
 20
8.30958
 30
0.0
 11
9.55255
 21
8.53556
 31
0.0
  0
LINE
  8
0
 62
     152
 10
9.55255
 20
8.53556
 30
0.0
 11
9.27559
 21
8.7726
 31
0.0
  0
LINE
  8
0
 62
     152
 10
9.27559
 20
8.7726
 30
0.0
 11
9.00963
 21
9.02476
 31
0.0
  0
LINE
  8
0
 62
     152
 10
9.00963
 20
9.02476
 30
0.0
 11
8.75605
 21
9.28797
 31
0.0
  0
LINE
  8
0
 62
     152
 10
8.75605
 20
9.28797
 30
0.0
 11
8.51627
 21
9.56497
 31
0.0
  0
LINE
  8
0
 62
     152
 10
8.51627
 20
9.56497
 30
0.0
 11
8.2889
 21
9.85298
 31
0.0
  0
LINE
  8
0
 62
     152
 10
8.2889
 20
9.85298
 30
0.0
 11
8.0753
 21
10.1506
 31
0.0
  0
LINE
  8
0
 62
     152
 10
8.0753
 20
10.1506
 30
0.0
 11
7.87686
 21
10.4593
 31
0.0
  0
LINE
  8
0
 62
     152
 10
7.87686
 20
10.4593
 30
0.0
 11
7.69221
 21
10.7776
 31
0.0
  0
LINE
  8
0
 62
     152
 10
7.69221
 20
10.7776
 30
0.0
 11
7.52408
 21
11.1042
 31
0.0
  0
LINE
  8
0
 62
     152
 10
7.52408
 20
11.1042
 30
0.0
 11
7.36974
 21
11.4419
 31
0.0
  0
LINE
  8
0
 62
     152
 10
7.36974
 20
11.4419
 30
0.0
 11
7.23332
 21
11.7864
 31
0.0
  0
LINE
  8
0
 62
     152
 10
7.23332
 20
11.7864
 30
0.0
 11
7.11207
 21
12.1392
 31
0.0
  0
LINE
  8
0
 62
     152
 10
7.11207
 20
12.1392
 30
0.0
 11
7.01008
 21
12.5002
 31
0.0
  0
LINE
  8
0
 62
     152
 10
7.01008
 20
12.5002
 30
0.0
 11
6.92326
 21
12.8681
 31
0.0
  0
LINE
  8
0
 62
     152
 10
6.92326
 20
12.8681
 30
0.0
 11
6.85712
 21
13.2416
 31
0.0
  0
LINE
  8
0
 62
     152
 10
6.85712
 20
13.2416
 30
0.0
 11
6.80752
 21
13.6219
 31
0.0
  0
LINE
  8
0
 62
     152
 10
6.80752
 20
13.6219
 30
0.0
 11
6.77855
 21
14.0064
 31
0.0
  0
LINE
  8
0
 62
     152
 10
6.77855
 20
14.0064
 30
0.0
 11
6.76755
 21
14.3991
 31
0.0
  0
LINE
  8
0
 62
     152
 10
6.76755
 20
14.3991
 30
0.0
 11
6.77855
 21
14.7905
 31
0.0
  0
LINE
  8
0
 62
     152
 10
6.77855
 20
14.7905
 30
0.0
 11
6.80752
 21
15.1777
 31
0.0
  0
LINE
  8
0
 62
     152
 10
6.80752
 20
15.1777
 30
0.0
 11
6.85712
 21
15.5581
 31
0.0
  0
LINE
  8
0
 62
     152
 10
6.85712
 20
15.5581
 30
0.0
 11
6.92326
 21
15.9329
 31
0.0
  0
LINE
  8
0
 62
     152
 10
6.92326
 20
15.9329
 30
0.0
 11
7.01008
 21
16.3036
 31
0.0
  0
LINE
  8
0
 62
     152
 10
7.01008
 20
16.3036
 30
0.0
 11
7.11207
 21
16.666
 31
0.0
  0
LINE
  8
0
 62
     152
 10
7.11207
 20
16.666
 30
0.0
 11
7.23332
 21
17.0202
 31
0.0
  0
LINE
  8
0
 62
     152
 10
7.23332
 20
17.0202
 30
0.0
 11
7.36974
 21
17.3688
 31
0.0
  0
LINE
  8
0
 62
     152
 10
7.36974
 20
17.3688
 30
0.0
 11
7.52408
 21
17.7078
 31
0.0
  0
LINE
  8
0
 62
     152
 10
7.52408
 20
17.7078
 30
0.0
 11
7.69221
 21
18.0371
 31
0.0
  0
LINE
  8
0
 62
     152
 10
7.69221
 20
18.0371
 30
0.0
 11
7.87686
 21
18.3569
 31
0.0
  0
LINE
  8
0
 62
     152
 10
7.87686
 20
18.3569
 30
0.0
 11
8.0753
 21
18.6697
 31
0.0
  0
LINE
  8
0
 62
     152
 10
8.0753
 20
18.6697
 30
0.0
 11
8.2889
 21
18.9701
 31
0.0
  0
LINE
  8
0
 62
     152
 10
8.2889
 20
18.9701
 30
0.0
 11
8.51627
 21
19.2609
 31
0.0
  0
LINE
  8
0
 62
     152
 10
8.51627
 20
19.2609
 30
0.0
 11
8.75605
 21
19.5392
 31
0.0
  0
LINE
  8
0
 62
     152
 10
8.75605
 20
19.5392
 30
0.0
 11
9.00963
 21
19.8065
 31
0.0
  0
LINE
  8
0
 62
     152
 10
9.00963
 20
19.8065
 30
0.0
 11
9.27559
 21
20.0601
 31
0.0
  0
LINE
  8
0
 62
     152
 10
9.27559
 20
20.0601
 30
0.0
 11
9.55255
 21
20.3026
 31
0.0
  0
LINE
  8
0
 62
     152
 10
9.55255
 20
20.3026
 30
0.0
 11
9.84056
 21
20.5314
 31
0.0
  0
LINE
  8
0
 62
     152
 10
9.84056
 20
20.5314
 30
0.0
 11
10.1396
 21
20.745
 31
0.0
  0
LINE
  8
0
 62
     152
 10
10.1396
 20
20.745
 30
0.0
 11
10.4497
 21
20.9448
 31
0.0
  0
LINE
  8
0
 62
     152
 10
10.4497
 20
20.9448
 30
0.0
 11
10.7694
 21
21.1322
 31
0.0
  0
LINE
  8
0
 62
     152
 10
10.7694
 20
21.1322
 30
0.0
 11
11.0987
 21
21.3017
 31
0.0
  0
LINE
  8
0
 62
     152
 10
11.0987
 20
21.3017
 30
0.0
 11
11.4363
 21
21.4561
 31
0.0
  0
LINE
  8
0
 62
     152
 10
11.4363
 20
21.4561
 30
0.0
 11
11.7822
 21
21.5952
 31
0.0
  0
LINE
  8
0
 62
     152
 10
11.7822
 20
21.5952
 30
0.0
 11
12.1364
 21
21.7165
 31
0.0
  0
LINE
  8
0
 62
     152
 10
12.1364
 20
21.7165
 30
0.0
 11
12.4974
 21
21.8199
 31
0.0
  0
LINE
  8
0
 62
     152
 10
12.4974
 20
21.8199
 30
0.0
 11
12.8668
 21
21.9067
 31
0.0
  0
LINE
  8
0
 62
     152
 10
12.8668
 20
21.9067
 30
0.0
 11
13.2416
 21
21.9728
 31
0.0
  0
LINE
  8
0
 62
     152
 10
13.2416
 20
21.9728
 30
0.0
 11
13.6219
 21
22.0238
 31
0.0
  0
LINE
  8
0
 62
     152
 10
13.6219
 20
22.0238
 30
0.0
 11
14.0077
 21
22.0541
 31
0.0
  0
LINE
  8
0
 62
     152
 10
14.0077
 20
22.0541
 30
0.0
 11
14.3991
 21
22.0624
 31
0.0
  0
LINE
  8
0
 62
     152
 10
14.3991
 20
22.0624
 30
0.0
 11
20.9255
 21
22.0624
 31
0.0
  0
LINE
  8
0
 62
     152
 10
20.9255
 20
22.0624
 30
0.0
 11
20.9806
 21
22.061
 31
0.0
  0
LINE
  8
0
 62
     152
 10
20.9806
 20
22.061
 30
0.0
 11
21.0358
 21
22.0582
 31
0.0
  0
LINE
  8
0
 62
     152
 10
21.0358
 20
22.0582
 30
0.0
 11
21.0895
 21
22.0514
 31
0.0
  0
LINE
  8
0
 62
     152
 10
21.0895
 20
22.0514
 30
0.0
 11
21.1419
 21
22.0417
 31
0.0
  0
LINE
  8
0
 62
     152
 10
21.1419
 20
22.0417
 30
0.0
 11
21.1942
 21
22.0293
 31
0.0
  0
LINE
  8
0
 62
     152
 10
21.1942
 20
22.0293
 30
0.0
 11
21.2452
 21
22.0156
 31
0.0
  0
LINE
  8
0
 62
     152
 10
21.2452
 20
22.0156
 30
0.0
 11
21.2948
 21
21.999
 31
0.0
  0
LINE
  8
0
 62
     152
 10
21.2948
 20
21.999
 30
0.0
 11
21.3444
 21
21.9797
 31
0.0
  0
LINE
  8
0
 62
     152
 10
21.3444
 20
21.9797
 30
0.0
 11
21.3913
 21
21.9577
 31
0.0
  0
LINE
  8
0
 62
     152
 10
21.3913
 20
21.9577
 30
0.0
 11
21.4381
 21
21.9342
 31
0.0
  0
LINE
  8
0
 62
     152
 10
21.4381
 20
21.9342
 30
0.0
 11
21.4822
 21
21.9081
 31
0.0
  0
LINE
  8
0
 62
     152
 10
21.4822
 20
21.9081
 30
0.0
 11
21.5263
 21
21.8805
 31
0.0
  0
LINE
  8
0
 62
     152
 10
21.5263
 20
21.8805
 30
0.0
 11
21.5677
 21
21.8502
 31
0.0
  0
LINE
  8
0
 62
     152
 10
21.5677
 20
21.8502
 30
0.0
 11
21.609
 21
21.8185
 31
0.0
  0
LINE
  8
0
 62
     152
 10
21.609
 20
21.8185
 30
0.0
 11
21.6476
 21
21.7854
 31
0.0
  0
LINE
  8
0
 62
     152
 10
21.6476
 20
21.7854
 30
0.0
 11
21.6848
 21
21.7496
 31
0.0
  0
LINE
  8
0
 62
     152
 10
21.6848
 20
21.7496
 30
0.0
 11
21.7206
 21
21.7124
 31
0.0
  0
LINE
  8
0
 62
     152
 10
21.7206
 20
21.7124
 30
0.0
 11
21.7551
 21
21.6738
 31
0.0
  0
LINE
  8
0
 62
     152
 10
21.7551
 20
21.6738
 30
0.0
 11
21.7868
 21
21.6324
 31
0.0
  0
LINE
  8
0
 62
     152
 10
21.7868
 20
21.6324
 30
0.0
 11
21.8157
 21
21.5897
 31
0.0
  0
LINE
  8
0
 62
     152
 10
21.8157
 20
21.5897
 30
0.0
 11
21.8447
 21
21.5456
 31
0.0
  0
LINE
  8
0
 62
     152
 10
21.8447
 20
21.5456
 30
0.0
 11
21.8695
 21
21.5015
 31
0.0
  0
LINE
  8
0
 62
     152
 10
21.8695
 20
21.5015
 30
0.0
 11
21.8943
 21
21.4561
 31
0.0
  0
LINE
  8
0
 62
     152
 10
21.8943
 20
21.4561
 30
0.0
 11
21.9149
 21
21.4092
 31
0.0
  0
LINE
  8
0
 62
     152
 10
21.9149
 20
21.4092
 30
0.0
 11
21.9342
 21
21.361
 31
0.0
  0
LINE
  8
0
 62
     152
 10
21.9342
 20
21.361
 30
0.0
 11
21.9508
 21
21.31
 31
0.0
  0
LINE
  8
0
 62
     152
 10
21.9508
 20
21.31
 30
0.0
 11
21.9659
 21
21.259
 31
0.0
  0
LINE
  8
0
 62
     152
 10
21.9659
 20
21.259
 30
0.0
 11
21.9783
 21
21.208
 31
0.0
  0
LINE
  8
0
 62
     152
 10
21.9783
 20
21.208
 30
0.0
 11
21.9866
 21
21.1557
 31
0.0
  0
LINE
  8
0
 62
     152
 10
21.9866
 20
21.1557
 30
0.0
 11
21.9935
 21
21.1019
 31
0.0
  0
LINE
  8
0
 62
     152
 10
21.9935
 20
21.1019
 30
0.0
 11
21.9976
 21
21.0468
 31
0.0
  0
LINE
  8
0
 62
     152
 10
21.9976
 20
21.0468
 30
0.0
 11
21.999
 21
20.9917
 31
0.0
  0
LINE
  8
0
 62
     152
 10
21.999
 20
20.9917
 30
0.0
 11
21.999
 21
14.3867
 31
0.0
  0
LINE
  8
0
 62
     152
 10
36.3968
 20
28.7679
 30
0.0
 11
29.869
 21
28.7679
 31
0.0
  0
LINE
  8
0
 62
     152
 10
29.869
 20
28.7679
 30
0.0
 11
29.8139
 21
28.7693
 31
0.0
  0
LINE
  8
0
 62
     152
 10
29.8139
 20
28.7693
 30
0.0
 11
29.7601
 21
28.7734
 31
0.0
  0
LINE
  8
0
 62
     152
 10
29.7601
 20
28.7734
 30
0.0
 11
29.7064
 21
28.7789
 31
0.0
  0
LINE
  8
0
 62
     152
 10
29.7064
 20
28.7789
 30
0.0
 11
29.654
 21
28.79
 31
0.0
  0
LINE
  8
0
 62
     152
 10
29.654
 20
28.79
 30
0.0
 11
29.6017
 21
28.8024
 31
0.0
  0
LINE
  8
0
 62
     152
 10
29.6017
 20
28.8024
 30
0.0
 11
29.5506
 21
28.8162
 31
0.0
  0
LINE
  8
0
 62
     152
 10
29.5506
 20
28.8162
 30
0.0
 11
29.501
 21
28.8327
 31
0.0
  0
LINE
  8
0
 62
     152
 10
29.501
 20
28.8327
 30
0.0
 11
29.4514
 21
28.852
 31
0.0
  0
LINE
  8
0
 62
     152
 10
29.4514
 20
28.852
 30
0.0
 11
29.4046
 21
28.8741
 31
0.0
  0
LINE
  8
0
 62
     152
 10
29.4046
 20
28.8741
 30
0.0
 11
29.3577
 21
28.8961
 31
0.0
  0
LINE
  8
0
 62
     152
 10
29.3577
 20
28.8961
 30
0.0
 11
29.3136
 21
28.9236
 31
0.0
  0
LINE
  8
0
 62
     152
 10
29.3136
 20
28.9236
 30
0.0
 11
29.2696
 21
28.9512
 31
0.0
  0
LINE
  8
0
 62
     152
 10
29.2696
 20
28.9512
 30
0.0
 11
29.2282
 21
28.9815
 31
0.0
  0
LINE
  8
0
 62
     152
 10
29.2282
 20
28.9815
 30
0.0
 11
29.1869
 21
29.0132
 31
0.0
  0
LINE
  8
0
 62
     152
 10
29.1869
 20
29.0132
 30
0.0
 11
29.1483
 21
29.0449
 31
0.0
  0
LINE
  8
0
 62
     152
 10
29.1483
 20
29.0449
 30
0.0
 11
29.111
 21
29.0821
 31
0.0
  0
LINE
  8
0
 62
     152
 10
29.111
 20
29.0821
 30
0.0
 11
29.0752
 21
29.118
 31
0.0
  0
LINE
  8
0
 62
     152
 10
29.0752
 20
29.118
 30
0.0
 11
29.0421
 21
29.1579
 31
0.0
  0
LINE
  8
0
 62
     152
 10
29.0421
 20
29.1579
 30
0.0
 11
29.0105
 21
29.1992
 31
0.0
  0
LINE
  8
0
 62
     152
 10
29.0105
 20
29.1992
 30
0.0
 11
28.9801
 21
29.2406
 31
0.0
  0
LINE
  8
0
 62
     152
 10
28.9801
 20
29.2406
 30
0.0
 11
28.9526
 21
29.2847
 31
0.0
  0
LINE
  8
0
 62
     152
 10
28.9526
 20
29.2847
 30
0.0
 11
28.9264
 21
29.3288
 31
0.0
  0
LINE
  8
0
 62
     152
 10
28.9264
 20
29.3288
 30
0.0
 11
28.903
 21
29.3756
 31
0.0
  0
LINE
  8
0
 62
     152
 10
28.903
 20
29.3756
 30
0.0
 11
28.8809
 21
29.4225
 31
0.0
  0
LINE
  8
0
 62
     152
 10
28.8809
 20
29.4225
 30
0.0
 11
28.8616
 21
29.4707
 31
0.0
  0
LINE
  8
0
 62
     152
 10
28.8616
 20
29.4707
 30
0.0
 11
28.8451
 21
29.5217
 31
0.0
  0
LINE
  8
0
 62
     152
 10
28.8451
 20
29.5217
 30
0.0
 11
28.8313
 21
29.5713
 31
0.0
  0
LINE
  8
0
 62
     152
 10
28.8313
 20
29.5713
 30
0.0
 11
28.8189
 21
29.6251
 31
0.0
  0
LINE
  8
0
 62
     152
 10
28.8189
 20
29.6251
 30
0.0
 11
28.8093
 21
29.6761
 31
0.0
  0
LINE
  8
0
 62
     152
 10
28.8093
 20
29.6761
 30
0.0
 11
28.8024
 21
29.7312
 31
0.0
  0
LINE
  8
0
 62
     152
 10
28.8024
 20
29.7312
 30
0.0
 11
28.7982
 21
29.7863
 31
0.0
  0
LINE
  8
0
 62
     152
 10
28.7982
 20
29.7863
 30
0.0
 11
28.7969
 21
29.8414
 31
0.0
  0
LINE
  8
0
 62
     152
 10
28.7969
 20
29.8414
 30
0.0
 11
28.7969
 21
36.412
 31
0.0
  0
LINE
  8
0
 62
     152
 10
28.7969
 20
36.412
 30
0.0
 11
28.8079
 21
36.8018
 31
0.0
  0
LINE
  8
0
 62
     152
 10
28.8079
 20
36.8018
 30
0.0
 11
28.8382
 21
37.1863
 31
0.0
  0
LINE
  8
0
 62
     152
 10
28.8382
 20
37.1863
 30
0.0
 11
28.8864
 21
37.568
 31
0.0
  0
LINE
  8
0
 62
     152
 10
28.8864
 20
37.568
 30
0.0
 11
28.954
 21
37.9416
 31
0.0
  0
LINE
  8
0
 62
     152
 10
28.954
 20
37.9416
 30
0.0
 11
29.0394
 21
38.3081
 31
0.0
  0
LINE
  8
0
 62
     152
 10
29.0394
 20
38.3081
 30
0.0
 11
29.1414
 21
38.669
 31
0.0
  0
LINE
  8
0
 62
     152
 10
29.1414
 20
38.669
 30
0.0
 11
29.2613
 21
39.0218
 31
0.0
  0
LINE
  8
0
 62
     152
 10
29.2613
 20
39.0218
 30
0.0
 11
29.3977
 21
39.3665
 31
0.0
  0
LINE
  8
0
 62
     152
 10
29.3977
 20
39.3665
 30
0.0
 11
29.5506
 21
39.7013
 31
0.0
  0
LINE
  8
0
 62
     152
 10
29.5506
 20
39.7013
 30
0.0
 11
29.7188
 21
40.0293
 31
0.0
  0
LINE
  8
0
 62
     152
 10
29.7188
 20
40.0293
 30
0.0
 11
29.902
 21
40.3461
 31
0.0
  0
LINE
  8
0
 62
     152
 10
29.902
 20
40.3461
 30
0.0
 11
30.0991
 21
40.6548
 31
0.0
  0
LINE
  8
0
 62
     152
 10
30.0991
 20
40.6548
 30
0.0
 11
30.3113
 21
40.9512
 31
0.0
  0
LINE
  8
0
 62
     152
 10
30.3113
 20
40.9512
 30
0.0
 11
30.5373
 21
41.239
 31
0.0
  0
LINE
  8
0
 62
     152
 10
30.5373
 20
41.239
 30
0.0
 11
30.7757
 21
41.5149
 31
0.0
  0
LINE
  8
0
 62
     152
 10
30.7757
 20
41.5149
 30
0.0
 11
31.0279
 21
41.7781
 31
0.0
  0
LINE
  8
0
 62
     152
 10
31.0279
 20
41.7781
 30
0.0
 11
31.2911
 21
42.0289
 31
0.0
  0
LINE
  8
0
 62
     152
 10
31.2911
 20
42.0289
 30
0.0
 11
31.5667
 21
42.2684
 31
0.0
  0
LINE
  8
0
 62
     152
 10
31.5667
 20
42.2684
 30
0.0
 11
31.8534
 21
42.4917
 31
0.0
  0
LINE
  8
0
 62
     152
 10
31.8534
 20
42.4917
 30
0.0
 11
32.151
 21
42.7041
 31
0.0
  0
LINE
  8
0
 62
     152
 10
32.151
 20
42.7041
 30
0.0
 11
32.4597
 21
42.9024
 31
0.0
  0
LINE
  8
0
 62
     152
 10
32.4597
 20
42.9024
 30
0.0
 11
32.778
 21
43.0844
 31
0.0
  0
LINE
  8
0
 62
     152
 10
32.778
 20
43.0844
 30
0.0
 11
33.1046
 21
43.2523
 31
0.0
  0
LINE
  8
0
 62
     152
 10
33.1046
 20
43.2523
 30
0.0
 11
33.4422
 21
43.404
 31
0.0
  0
LINE
  8
0
 62
     152
 10
33.4422
 20
43.404
 30
0.0
 11
33.7867
 21
43.5405
 31
0.0
  0
LINE
  8
0
 62
     152
 10
33.7867
 20
43.5405
 30
0.0
 11
34.1395
 21
43.6591
 31
0.0
  0
LINE
  8
0
 62
     152
 10
34.1395
 20
43.6591
 30
0.0
 11
34.4992
 21
43.761
 31
0.0
  0
LINE
  8
0
 62
     152
 10
34.4992
 20
43.761
 30
0.0
 11
34.8671
 21
43.845
 31
0.0
  0
LINE
  8
0
 62
     152
 10
34.8671
 20
43.845
 30
0.0
 11
35.2406
 21
43.9127
 31
0.0
  0
LINE
  8
0
 62
     152
 10
35.2406
 20
43.9127
 30
0.0
 11
35.621
 21
43.9607
 31
0.0
  0
LINE
  8
0
 62
     152
 10
35.621
 20
43.9607
 30
0.0
 11
36.0066
 21
43.9896
 31
0.0
  0
LINE
  8
0
 62
     152
 10
36.0066
 20
43.9896
 30
0.0
 11
36.3968
 21
44.0009
 31
0.0
  0
LINE
  8
0
 62
     152
 10
36.3968
 20
44.0009
 30
0.0
 11
36.788
 21
43.9896
 31
0.0
  0
LINE
  8
0
 62
     152
 10
36.788
 20
43.9896
 30
0.0
 11
37.174
 21
43.9607
 31
0.0
  0
LINE
  8
0
 62
     152
 10
37.174
 20
43.9607
 30
0.0
 11
37.5557
 21
43.9127
 31
0.0
  0
LINE
  8
0
 62
     152
 10
37.5557
 20
43.9127
 30
0.0
 11
37.9307
 21
43.845
 31
0.0
  0
LINE
  8
0
 62
     152
 10
37.9307
 20
43.845
 30
0.0
 11
38.2986
 21
43.761
 31
0.0
  0
LINE
  8
0
 62
     152
 10
38.2986
 20
43.761
 30
0.0
 11
38.6595
 21
43.6591
 31
0.0
  0
LINE
  8
0
 62
     152
 10
38.6595
 20
43.6591
 30
0.0
 11
39.0137
 21
43.5377
 31
0.0
  0
LINE
  8
0
 62
     152
 10
39.0137
 20
43.5377
 30
0.0
 11
39.3594
 21
43.4026
 31
0.0
  0
LINE
  8
0
 62
     152
 10
39.3594
 20
43.4026
 30
0.0
 11
39.697
 21
43.2513
 31
0.0
  0
LINE
  8
0
 62
     152
 10
39.697
 20
43.2513
 30
0.0
 11
40.0265
 21
43.0816
 31
0.0
  0
LINE
  8
0
 62
     152
 10
40.0265
 20
43.0816
 30
0.0
 11
40.3461
 21
42.8995
 31
0.0
  0
LINE
  8
0
 62
     152
 10
40.3461
 20
42.8995
 30
0.0
 11
40.6562
 21
42.7027
 31
0.0
  0
LINE
  8
0
 62
     152
 10
40.6562
 20
42.7027
 30
0.0
 11
40.9554
 21
42.4903
 31
0.0
  0
LINE
  8
0
 62
     152
 10
40.9554
 20
42.4903
 30
0.0
 11
41.2433
 21
42.2645
 31
0.0
  0
LINE
  8
0
 62
     152
 10
41.2433
 20
42.2645
 30
0.0
 11
41.5216
 21
42.0261
 31
0.0
  0
LINE
  8
0
 62
     152
 10
41.5216
 20
42.0261
 30
0.0
 11
41.7862
 21
41.7724
 31
0.0
  0
LINE
  8
0
 62
     152
 10
41.7862
 20
41.7724
 30
0.0
 11
42.0398
 21
41.5092
 31
0.0
  0
LINE
  8
0
 62
     152
 10
42.0398
 20
41.5092
 30
0.0
 11
42.2797
 21
41.2337
 31
0.0
  0
LINE
  8
0
 62
     152
 10
42.2797
 20
41.2337
 30
0.0
 11
42.5069
 21
40.9469
 31
0.0
  0
LINE
  8
0
 62
     152
 10
42.5069
 20
40.9469
 30
0.0
 11
42.7207
 21
40.6495
 31
0.0
  0
LINE
  8
0
 62
     152
 10
42.7207
 20
40.6495
 30
0.0
 11
42.9189
 21
40.3408
 31
0.0
  0
LINE
  8
0
 62
     152
 10
42.9189
 20
40.3408
 30
0.0
 11
43.1038
 21
40.0223
 31
0.0
  0
LINE
  8
0
 62
     152
 10
43.1038
 20
40.0223
 30
0.0
 11
43.2731
 21
39.6946
 31
0.0
  0
LINE
  8
0
 62
     152
 10
43.2731
 20
39.6946
 30
0.0
 11
43.4262
 21
39.358
 31
0.0
  0
LINE
  8
0
 62
     152
 10
43.4262
 20
39.358
 30
0.0
 11
43.5638
 21
39.0109
 31
0.0
  0
LINE
  8
0
 62
     152
 10
43.5638
 20
39.0109
 30
0.0
 11
43.6838
 21
38.6581
 31
0.0
  0
LINE
  8
0
 62
     152
 10
43.6838
 20
38.6581
 30
0.0
 11
43.7871
 21
38.2986
 31
0.0
  0
LINE
  8
0
 62
     152
 10
43.7871
 20
38.2986
 30
0.0
 11
43.8725
 21
37.9317
 31
0.0
  0
LINE
  8
0
 62
     152
 10
43.8725
 20
37.9317
 30
0.0
 11
43.9402
 21
37.5557
 31
0.0
  0
LINE
  8
0
 62
     152
 10
43.9402
 20
37.5557
 30
0.0
 11
43.9882
 21
37.1768
 31
0.0
  0
LINE
  8
0
 62
     152
 10
43.9882
 20
37.1768
 30
0.0
 11
44.0186
 21
36.7894
 31
0.0
  0
LINE
  8
0
 62
     152
 10
44.0186
 20
36.7894
 30
0.0
 11
44.0284
 21
36.3996
 31
0.0
  0
LINE
  8
0
 62
     152
 10
44.0284
 20
36.3996
 30
0.0
 11
44.0186
 21
36.008
 31
0.0
  0
LINE
  8
0
 62
     152
 10
44.0186
 20
36.008
 30
0.0
 11
43.9882
 21
35.6224
 31
0.0
  0
LINE
  8
0
 62
     152
 10
43.9882
 20
35.6224
 30
0.0
 11
43.9402
 21
35.2419
 31
0.0
  0
LINE
  8
0
 62
     152
 10
43.9402
 20
35.2419
 30
0.0
 11
43.8725
 21
34.8657
 31
0.0
  0
LINE
  8
0
 62
     152
 10
43.8725
 20
34.8657
 30
0.0
 11
43.7871
 21
34.4964
 31
0.0
  0
LINE
  8
0
 62
     152
 10
43.7871
 20
34.4964
 30
0.0
 11
43.6838
 21
34.1368
 31
0.0
  0
LINE
  8
0
 62
     152
 10
43.6838
 20
34.1368
 30
0.0
 11
43.5638
 21
33.7826
 31
0.0
  0
LINE
  8
0
 62
     152
 10
43.5638
 20
33.7826
 30
0.0
 11
43.4262
 21
33.4367
 31
0.0
  0
LINE
  8
0
 62
     152
 10
43.4262
 20
33.4367
 30
0.0
 11
43.2731
 21
33.0991
 31
0.0
  0
LINE
  8
0
 62
     152
 10
43.2731
 20
33.0991
 30
0.0
 11
43.1038
 21
32.7697
 31
0.0
  0
LINE
  8
0
 62
     152
 10
43.1038
 20
32.7697
 30
0.0
 11
42.9189
 21
32.4501
 31
0.0
  0
LINE
  8
0
 62
     152
 10
42.9189
 20
32.4501
 30
0.0
 11
42.7207
 21
32.14
 31
0.0
  0
LINE
  8
0
 62
     152
 10
42.7207
 20
32.14
 30
0.0
 11
42.5069
 21
31.8409
 31
0.0
  0
LINE
  8
0
 62
     152
 10
42.5069
 20
31.8409
 30
0.0
 11
42.2797
 21
31.5529
 31
0.0
  0
LINE
  8
0
 62
     152
 10
42.2797
 20
31.5529
 30
0.0
 11
42.0398
 21
31.276
 31
0.0
  0
LINE
  8
0
 62
     152
 10
42.0398
 20
31.276
 30
0.0
 11
41.7862
 21
31.01
 31
0.0
  0
LINE
  8
0
 62
     152
 10
41.7862
 20
31.01
 30
0.0
 11
41.5216
 21
30.7564
 31
0.0
  0
LINE
  8
0
 62
     152
 10
41.5216
 20
30.7564
 30
0.0
 11
41.2433
 21
30.5167
 31
0.0
  0
LINE
  8
0
 62
     152
 10
41.2433
 20
30.5167
 30
0.0
 11
40.9554
 21
30.2893
 31
0.0
  0
LINE
  8
0
 62
     152
 10
40.9554
 20
30.2893
 30
0.0
 11
40.6562
 21
30.0757
 31
0.0
  0
LINE
  8
0
 62
     152
 10
40.6562
 20
30.0757
 30
0.0
 11
40.3461
 21
29.8772
 31
0.0
  0
LINE
  8
0
 62
     152
 10
40.3461
 20
29.8772
 30
0.0
 11
40.0265
 21
29.6912
 31
0.0
  0
LINE
  8
0
 62
     152
 10
40.0265
 20
29.6912
 30
0.0
 11
39.697
 21
29.5231
 31
0.0
  0
LINE
  8
0
 62
     152
 10
39.697
 20
29.5231
 30
0.0
 11
39.3594
 21
29.3701
 31
0.0
  0
LINE
  8
0
 62
     152
 10
39.3594
 20
29.3701
 30
0.0
 11
39.0137
 21
29.2337
 31
0.0
  0
LINE
  8
0
 62
     152
 10
39.0137
 20
29.2337
 30
0.0
 11
38.6595
 21
29.1124
 31
0.0
  0
LINE
  8
0
 62
     152
 10
38.6595
 20
29.1124
 30
0.0
 11
38.2986
 21
29.0091
 31
0.0
  0
LINE
  8
0
 62
     152
 10
38.2986
 20
29.0091
 30
0.0
 11
37.9307
 21
28.9236
 31
0.0
  0
LINE
  8
0
 62
     152
 10
37.9307
 20
28.9236
 30
0.0
 11
37.5557
 21
28.8561
 31
0.0
  0
LINE
  8
0
 62
     152
 10
37.5557
 20
28.8561
 30
0.0
 11
37.174
 21
28.8079
 31
0.0
  0
LINE
  8
0
 62
     152
 10
37.174
 20
28.8079
 30
0.0
 11
36.788
 21
28.7776
 31
0.0
  0
LINE
  8
0
 62
     152
 10
36.788
 20
28.7776
 30
0.0
 11
36.3968
 21
28.7679
 31
0.0
  0
ENDSEC
  0
EOF
