<?xml version="1.0" encoding="UTF-8" standalone="no"?>
<svg
   xmlns:dc="http://purl.org/dc/elements/1.1/"
   xmlns:cc="http://creativecommons.org/ns#"
   xmlns:rdf="http://www.w3.org/1999/02/22-rdf-syntax-ns#"
   xmlns:svg="http://www.w3.org/2000/svg"
   xmlns="http://www.w3.org/2000/svg"
   xmlns:xlink="http://www.w3.org/1999/xlink"
   xmlns:sodipodi="http://sodipodi.sourceforge.net/DTD/sodipodi-0.dtd"
   xmlns:inkscape="http://www.inkscape.org/namespaces/inkscape"
   version="1.0"
   x="0.0000000"
   y="0.0000000"
   width="240"
   height="240"
   viewBox="0 0 252.32 252.32"
   xml:space="preserve"
   id="translucent-fedora-logo-with-radial-gradient"
   sodipodi:version="0.32"
   inkscape:version="0.48.4 r9939"
   sodipodi:docname="f.svg"><metadata
     id="metadata15"><rdf:RDF><cc:Work
         rdf:about=""><dc:format>image/svg+xml</dc:format><dc:type
           rdf:resource="http://purl.org/dc/dcmitype/StillImage" /><dc:title></dc:title></cc:Work></rdf:RDF></metadata><defs
     id="defs13"><linearGradient
       id="linearGradient1349"><stop
         style="stop-color:#000001;stop-opacity:1;"
         offset="0"
         id="stop1351" /><stop
         style="stop-color:#003663;stop-opacity:1;"
         offset="1"
         id="stop1353" /></linearGradient><radialGradient
       inkscape:collect="always"
       xlink:href="#linearGradient1349"
       id="radialGradient3113"
       gradientUnits="userSpaceOnUse"
       gradientTransform="matrix(0.934779,2.68766e-2,-2.919437e-2,1.015309,18.24616,-5.699573)"
       cx="115.90415"
       cy="140.93495"
       fx="115.90415"
       fy="140.93495"
       r="126.1585" /></defs><sodipodi:namedview
     inkscape:window-height="787"
     inkscape:window-width="1142"
     inkscape:pageshadow="2"
     inkscape:pageopacity="0"
     borderopacity="1.0"
     bordercolor="#666666"
     pagecolor="#ffffff"
     id="base"
     inkscape:zoom="2"
     inkscape:cx="136.58003"
     inkscape:cy="108.68817"
     inkscape:window-x="64"
     inkscape:window-y="24"
     inkscape:current-layer="translucent-fedora-logo-with-radial-gradient"
     showgrid="false"
     inkscape:window-maximized="0" /><g
     id="f-script"
     transform="matrix(0.905882,0,0,0.905907,11.875236,11.875267)"
     style="fill:#006ca9;fill-opacity:1"><path
       inkscape:connector-curvature="0"
       id="f-script-path"
       style="fill:#006ca9;fill-opacity:1"
       d="m 163.202,29.904 c -32.704,0 -59.213,26.51 -59.213,59.212 0,0.011 0,0.026 0,0.041 l 0,31.339 -31.243,0 c -0.005,0 -0.005,0 -0.008,0 -32.703,0 -59.212,26.381 -59.212,59.081 0,32.705 26.51,59.214 59.212,59.214 32.699,0 59.209,-26.509 59.209,-59.214 0,-0.012 0,-0.023 0,-0.041 l 0,-31.469 31.242,0 c 0.007,0 0.01,0 0.013,0 32.699,0 59.209,-26.251 59.209,-58.951 0,-32.702 -26.51,-59.212 -59.209,-59.212 z m -59.213,149.729 c -0.025,17.231 -14.01,31.2 -31.251,31.2 -17.259,0 -31.38,-13.992 -31.38,-31.251 0,-17.265 14.121,-31.516 31.38,-31.516 0.014,0 0.028,0 0.041,0 l 26.779,0 c 0.009,0 0.014,0 0.02,0 2.438,0 4.415,1.973 4.415,4.407 0,0.005 -0.003,0.005 -0.003,0.011 l 0,27.149 -10e-4,0 z m 59.21,-59.137 c -0.01,0 -0.02,0 -0.029,0 l -26.797,0 c -0.006,0 -0.013,0 -0.016,0 -2.438,0 -4.41,-1.972 -4.41,-4.412 l 0,-0.001 0,-27.018 c 0.029,-17.241 14.01,-31.205 31.252,-31.205 17.259,0 31.383,13.993 31.383,31.255 0,17.26 -14.124,31.381 -31.383,31.381 z" /></g></svg>