  0
SECTION
  2
HEADER
  9
$ACADVER
  1
AC1009
  9
$EXTMIN
 10
0.0
 20
0.0
 30
0.0
  9
$EXTMAX
 10
1000.0
 20
1000.0
 30
0.0
  9
$FILLMODE
 70
 0
  9
$SPLFRAME
 70
 1
  0
ENDSEC
  0
SECTION
  2
TABLES
  0
TABLE
  2
LAYER
 70
1
  0
LAYER
  2
0
 70
     0
 62
     7
  6
CONTINUOUS
  0
ENDTAB
  0
ENDSEC
  0
SECTION
  2
ENTITIES
  0
LINE
  8
0
 62
     156
 10
61.3572
 20
30.6765
 30
0.0
 11
61.3558
 21
31.0734
 31
0.0
  0
LINE
  8
0
 62
     156
 10
61.3558
 20
31.0734
 30
0.0
 11
61.3473
 21
31.4689
 31
0.0
  0
LINE
  8
0
 62
     156
 10
61.3473
 20
31.4689
 30
0.0
 11
61.335
 21
31.863
 31
0.0
  0
LINE
  8
0
 62
     156
 10
61.335
 20
31.863
 30
0.0
 11
61.3174
 21
32.2557
 31
0.0
  0
LINE
  8
0
 62
     156
 10
61.3174
 20
32.2557
 30
0.0
 11
61.2951
 21
32.6471
 31
0.0
  0
LINE
  8
0
 62
     156
 10
61.2951
 20
32.6471
 30
0.0
 11
61.2676
 21
33.0371
 31
0.0
  0
LINE
  8
0
 62
     156
 10
61.2676
 20
33.0371
 30
0.0
 11
61.2359
 21
33.4257
 31
0.0
  0
LINE
  8
0
 62
     156
 10
61.2359
 20
33.4257
 30
0.0
 11
61.1988
 21
33.8129
 31
0.0
  0
LINE
  8
0
 62
     156
 10
61.1988
 20
33.8129
 30
0.0
 11
61.1572
 21
34.1988
 31
0.0
  0
LINE
  8
0
 62
     156
 10
61.1572
 20
34.1988
 30
0.0
 11
61.1117
 21
34.5846
 31
0.0
  0
LINE
  8
0
 62
     156
 10
61.1117
 20
34.5846
 30
0.0
 11
61.0595
 21
34.9677
 31
0.0
  0
LINE
  8
0
 62
     156
 10
61.0595
 20
34.9677
 30
0.0
 11
61.0044
 21
35.348
 31
0.0
  0
LINE
  8
0
 62
     156
 10
61.0044
 20
35.348
 30
0.0
 11
60.9438
 21
35.7283
 31
0.0
  0
LINE
  8
0
 62
     156
 10
60.9438
 20
35.7283
 30
0.0
 11
60.8789
 21
36.1075
 31
0.0
  0
LINE
  8
0
 62
     156
 10
60.8789
 20
36.1075
 30
0.0
 11
60.8087
 21
36.485
 31
0.0
  0
LINE
  8
0
 62
     156
 10
60.8087
 20
36.485
 30
0.0
 11
60.7342
 21
36.8596
 31
0.0
  0
LINE
  8
0
 62
     156
 10
60.7342
 20
36.8596
 30
0.0
 11
60.6559
 21
37.2332
 31
0.0
  0
LINE
  8
0
 62
     156
 10
60.6559
 20
37.2332
 30
0.0
 11
60.5716
 21
37.6054
 31
0.0
  0
LINE
  8
0
 62
     156
 10
60.5716
 20
37.6054
 30
0.0
 11
60.4848
 21
37.9758
 31
0.0
  0
LINE
  8
0
 62
     156
 10
60.4848
 20
37.9758
 30
0.0
 11
60.3924
 21
38.3438
 31
0.0
  0
LINE
  8
0
 62
     156
 10
60.3924
 20
38.3438
 30
0.0
 11
60.2947
 21
38.7103
 31
0.0
  0
LINE
  8
0
 62
     156
 10
60.2947
 20
38.7103
 30
0.0
 11
60.1941
 21
39.0758
 31
0.0
  0
LINE
  8
0
 62
     156
 10
60.1941
 20
39.0758
 30
0.0
 11
60.0879
 21
39.4381
 31
0.0
  0
LINE
  8
0
 62
     156
 10
60.0879
 20
39.4381
 30
0.0
 11
59.9793
 21
39.8004
 31
0.0
  0
LINE
  8
0
 62
     156
 10
59.9793
 20
39.8004
 30
0.0
 11
59.8646
 21
40.1588
 31
0.0
  0
LINE
  8
0
 62
     156
 10
59.8646
 20
40.1588
 30
0.0
 11
59.7461
 21
40.5172
 31
0.0
  0
LINE
  8
0
 62
     156
 10
59.7461
 20
40.5172
 30
0.0
 11
59.6237
 21
40.8725
 31
0.0
  0
LINE
  8
0
 62
     156
 10
59.6237
 20
40.8725
 30
0.0
 11
59.4967
 21
41.2253
 31
0.0
  0
LINE
  8
0
 62
     156
 10
59.4967
 20
41.2253
 30
0.0
 11
59.3644
 21
41.5766
 31
0.0
  0
LINE
  8
0
 62
     156
 10
59.3644
 20
41.5766
 30
0.0
 11
59.2296
 21
41.9269
 31
0.0
  0
LINE
  8
0
 62
     156
 10
59.2296
 20
41.9269
 30
0.0
 11
59.0903
 21
42.2741
 31
0.0
  0
LINE
  8
0
 62
     156
 10
59.0903
 20
42.2741
 30
0.0
 11
58.947
 21
42.6187
 31
0.0
  0
LINE
  8
0
 62
     156
 10
58.947
 20
42.6187
 30
0.0
 11
58.7996
 21
42.9616
 31
0.0
  0
LINE
  8
0
 62
     156
 10
58.7996
 20
42.9616
 30
0.0
 11
58.6479
 21
43.3021
 31
0.0
  0
LINE
  8
0
 62
     156
 10
58.6479
 20
43.3021
 30
0.0
 11
58.4923
 21
43.6411
 31
0.0
  0
LINE
  8
0
 62
     156
 10
58.4923
 20
43.6411
 30
0.0
 11
58.3325
 21
43.9773
 31
0.0
  0
LINE
  8
0
 62
     156
 10
58.3325
 20
43.9773
 30
0.0
 11
58.1685
 21
44.3121
 31
0.0
  0
LINE
  8
0
 62
     156
 10
58.1685
 20
44.3121
 30
0.0
 11
58.0016
 21
44.6444
 31
0.0
  0
LINE
  8
0
 62
     156
 10
58.0016
 20
44.6444
 30
0.0
 11
57.8309
 21
44.9735
 31
0.0
  0
LINE
  8
0
 62
     156
 10
57.8309
 20
44.9735
 30
0.0
 11
57.6545
 21
45.3002
 31
0.0
  0
LINE
  8
0
 62
     156
 10
57.6545
 20
45.3002
 30
0.0
 11
57.4767
 21
45.6255
 31
0.0
  0
LINE
  8
0
 62
     156
 10
57.4767
 20
45.6255
 30
0.0
 11
57.2932
 21
45.9479
 31
0.0
  0
LINE
  8
0
 62
     156
 10
57.2932
 20
45.9479
 30
0.0
 11
57.1073
 21
46.2675
 31
0.0
  0
LINE
  8
0
 62
     156
 10
57.1073
 20
46.2675
 30
0.0
 11
56.9158
 21
46.5861
 31
0.0
  0
LINE
  8
0
 62
     156
 10
56.9158
 20
46.5861
 30
0.0
 11
56.7228
 21
46.9
 31
0.0
  0
LINE
  8
0
 62
     156
 10
56.7228
 20
46.9
 30
0.0
 11
56.5245
 21
47.213
 31
0.0
  0
LINE
  8
0
 62
     156
 10
56.5245
 20
47.213
 30
0.0
 11
56.3231
 21
47.523
 31
0.0
  0
LINE
  8
0
 62
     156
 10
56.3231
 20
47.523
 30
0.0
 11
56.1178
 21
47.8303
 31
0.0
  0
LINE
  8
0
 62
     156
 10
56.1178
 20
47.8303
 30
0.0
 11
55.9096
 21
48.1348
 31
0.0
  0
LINE
  8
0
 62
     156
 10
55.9096
 20
48.1348
 30
0.0
 11
55.6976
 21
48.4367
 31
0.0
  0
LINE
  8
0
 62
     156
 10
55.6976
 20
48.4367
 30
0.0
 11
55.4824
 21
48.737
 31
0.0
  0
LINE
  8
0
 62
     156
 10
55.4824
 20
48.737
 30
0.0
 11
55.2633
 21
49.0333
 31
0.0
  0
LINE
  8
0
 62
     156
 10
55.2633
 20
49.0333
 30
0.0
 11
55.0404
 21
49.3268
 31
0.0
  0
LINE
  8
0
 62
     156
 10
55.0404
 20
49.3268
 30
0.0
 11
54.8143
 21
49.6175
 31
0.0
  0
LINE
  8
0
 62
     156
 10
54.8143
 20
49.6175
 30
0.0
 11
54.5853
 21
49.9071
 31
0.0
  0
LINE
  8
0
 62
     156
 10
54.5853
 20
49.9071
 30
0.0
 11
54.3525
 21
50.1922
 31
0.0
  0
LINE
  8
0
 62
     156
 10
54.3525
 20
50.1922
 30
0.0
 11
54.1154
 21
50.4747
 31
0.0
  0
LINE
  8
0
 62
     156
 10
54.1154
 20
50.4747
 30
0.0
 11
53.8773
 21
50.7545
 31
0.0
  0
LINE
  8
0
 62
     156
 10
53.8773
 20
50.7545
 30
0.0
 11
53.6346
 21
51.0314
 31
0.0
  0
LINE
  8
0
 62
     156
 10
53.6346
 20
51.0314
 30
0.0
 11
53.388
 21
51.3059
 31
0.0
  0
LINE
  8
0
 62
     156
 10
53.388
 20
51.3059
 30
0.0
 11
53.1386
 21
51.5758
 31
0.0
  0
LINE
  8
0
 62
     156
 10
53.1386
 20
51.5758
 30
0.0
 11
52.8863
 21
51.8446
 31
0.0
  0
LINE
  8
0
 62
     156
 10
52.8863
 20
51.8446
 30
0.0
 11
52.6313
 21
52.1092
 31
0.0
  0
LINE
  8
0
 62
     156
 10
52.6313
 20
52.1092
 30
0.0
 11
52.3723
 21
52.3709
 31
0.0
  0
LINE
  8
0
 62
     156
 10
52.3723
 20
52.3709
 30
0.0
 11
52.1106
 21
52.6302
 31
0.0
  0
LINE
  8
0
 62
     156
 10
52.1106
 20
52.6302
 30
0.0
 11
51.846
 21
52.8849
 31
0.0
  0
LINE
  8
0
 62
     156
 10
51.846
 20
52.8849
 30
0.0
 11
51.5772
 21
53.1372
 31
0.0
  0
LINE
  8
0
 62
     156
 10
51.5772
 20
53.1372
 30
0.0
 11
51.3073
 21
53.3866
 31
0.0
  0
LINE
  8
0
 62
     156
 10
51.3073
 20
53.3866
 30
0.0
 11
51.0328
 21
53.6332
 31
0.0
  0
LINE
  8
0
 62
     156
 10
51.0328
 20
53.6332
 30
0.0
 11
50.7559
 21
53.8759
 31
0.0
  0
LINE
  8
0
 62
     156
 10
50.7559
 20
53.8759
 30
0.0
 11
50.4762
 21
54.1154
 31
0.0
  0
LINE
  8
0
 62
     156
 10
50.4762
 20
54.1154
 30
0.0
 11
50.1936
 21
54.3511
 31
0.0
  0
LINE
  8
0
 62
     156
 10
50.1936
 20
54.3511
 30
0.0
 11
49.9085
 21
54.5842
 31
0.0
  0
LINE
  8
0
 62
     156
 10
49.9085
 20
54.5842
 30
0.0
 11
49.6203
 21
54.8128
 31
0.0
  0
LINE
  8
0
 62
     156
 10
49.6203
 20
54.8128
 30
0.0
 11
49.3282
 21
55.039
 31
0.0
  0
LINE
  8
0
 62
     156
 10
49.3282
 20
55.039
 30
0.0
 11
49.0347
 21
55.2619
 31
0.0
  0
LINE
  8
0
 62
     156
 10
49.0347
 20
55.2619
 30
0.0
 11
48.7384
 21
55.4814
 31
0.0
  0
LINE
  8
0
 62
     156
 10
48.7384
 20
55.4814
 30
0.0
 11
48.4382
 21
55.6962
 31
0.0
  0
LINE
  8
0
 62
     156
 10
48.4382
 20
55.6962
 30
0.0
 11
48.1362
 21
55.9082
 31
0.0
  0
LINE
  8
0
 62
     156
 10
48.1362
 20
55.9082
 30
0.0
 11
47.8317
 21
56.1178
 31
0.0
  0
LINE
  8
0
 62
     156
 10
47.8317
 20
56.1178
 30
0.0
 11
47.5245
 21
56.3217
 31
0.0
  0
LINE
  8
0
 62
     156
 10
47.5245
 20
56.3217
 30
0.0
 11
47.2144
 21
56.5231
 31
0.0
  0
LINE
  8
0
 62
     156
 10
47.2144
 20
56.5231
 30
0.0
 11
46.9015
 21
56.7214
 31
0.0
  0
LINE
  8
0
 62
     156
 10
46.9015
 20
56.7214
 30
0.0
 11
46.5875
 21
56.9158
 31
0.0
  0
LINE
  8
0
 62
     156
 10
46.5875
 20
56.9158
 30
0.0
 11
46.2689
 21
57.1059
 31
0.0
  0
LINE
  8
0
 62
     156
 10
46.2689
 20
57.1059
 30
0.0
 11
45.9493
 21
57.2918
 31
0.0
  0
LINE
  8
0
 62
     156
 10
45.9493
 20
57.2918
 30
0.0
 11
45.6269
 21
57.4753
 31
0.0
  0
LINE
  8
0
 62
     156
 10
45.6269
 20
57.4753
 30
0.0
 11
45.303
 21
57.6545
 31
0.0
  0
LINE
  8
0
 62
     156
 10
45.303
 20
57.6545
 30
0.0
 11
44.9749
 21
57.8294
 31
0.0
  0
LINE
  8
0
 62
     156
 10
44.9749
 20
57.8294
 30
0.0
 11
44.6458
 21
58.0002
 31
0.0
  0
LINE
  8
0
 62
     156
 10
44.6458
 20
58.0002
 30
0.0
 11
44.3135
 21
58.1685
 31
0.0
  0
LINE
  8
0
 62
     156
 10
44.3135
 20
58.1685
 30
0.0
 11
43.9801
 21
58.3325
 31
0.0
  0
LINE
  8
0
 62
     156
 10
43.9801
 20
58.3325
 30
0.0
 11
43.6439
 21
58.4909
 31
0.0
  0
LINE
  8
0
 62
     156
 10
43.6439
 20
58.4909
 30
0.0
 11
43.3049
 21
58.6465
 31
0.0
  0
LINE
  8
0
 62
     156
 10
43.3049
 20
58.6465
 30
0.0
 11
42.963
 21
58.7982
 31
0.0
  0
LINE
  8
0
 62
     156
 10
42.963
 20
58.7982
 30
0.0
 11
42.6212
 21
58.9456
 31
0.0
  0
LINE
  8
0
 62
     156
 10
42.6212
 20
58.9456
 30
0.0
 11
42.2755
 21
59.0903
 31
0.0
  0
LINE
  8
0
 62
     156
 10
42.2755
 20
59.0903
 30
0.0
 11
41.9283
 21
59.2296
 31
0.0
  0
LINE
  8
0
 62
     156
 10
41.9283
 20
59.2296
 30
0.0
 11
41.5794
 21
59.3644
 31
0.0
  0
LINE
  8
0
 62
     156
 10
41.5794
 20
59.3644
 30
0.0
 11
41.2281
 21
59.4953
 31
0.0
  0
LINE
  8
0
 62
     156
 10
41.2281
 20
59.4953
 30
0.0
 11
40.8739
 21
59.6223
 31
0.0
  0
LINE
  8
0
 62
     156
 10
40.8739
 20
59.6223
 30
0.0
 11
40.5183
 21
59.7447
 31
0.0
  0
LINE
  8
0
 62
     156
 10
40.5183
 20
59.7447
 30
0.0
 11
40.1616
 21
59.8632
 31
0.0
  0
LINE
  8
0
 62
     156
 10
40.1616
 20
59.8632
 30
0.0
 11
39.8018
 21
59.9779
 31
0.0
  0
LINE
  8
0
 62
     156
 10
39.8018
 20
59.9779
 30
0.0
 11
39.4409
 21
60.0879
 31
0.0
  0
LINE
  8
0
 62
     156
 10
39.4409
 20
60.0879
 30
0.0
 11
39.0783
 21
60.1927
 31
0.0
  0
LINE
  8
0
 62
     156
 10
39.0783
 20
60.1927
 30
0.0
 11
38.7131
 21
60.2947
 31
0.0
  0
LINE
  8
0
 62
     156
 10
38.7131
 20
60.2947
 30
0.0
 11
38.3466
 21
60.3913
 31
0.0
  0
LINE
  8
0
 62
     156
 10
38.3466
 20
60.3913
 30
0.0
 11
37.9772
 21
60.4834
 31
0.0
  0
LINE
  8
0
 62
     156
 10
37.9772
 20
60.4834
 30
0.0
 11
37.6079
 21
60.5716
 31
0.0
  0
LINE
  8
0
 62
     156
 10
37.6079
 20
60.5716
 30
0.0
 11
37.236
 21
60.6545
 31
0.0
  0
LINE
  8
0
 62
     156
 10
37.236
 20
60.6545
 30
0.0
 11
36.8625
 21
60.7342
 31
0.0
  0
LINE
  8
0
 62
     156
 10
36.8625
 20
60.7342
 30
0.0
 11
36.4864
 21
60.8087
 31
0.0
  0
LINE
  8
0
 62
     156
 10
36.4864
 20
60.8087
 30
0.0
 11
36.11
 21
60.8774
 31
0.0
  0
LINE
  8
0
 62
     156
 10
36.11
 20
60.8774
 30
0.0
 11
35.7311
 21
60.9438
 31
0.0
  0
LINE
  8
0
 62
     156
 10
35.7311
 20
60.9438
 30
0.0
 11
35.3508
 21
61.003
 31
0.0
  0
LINE
  8
0
 62
     156
 10
35.3508
 20
61.003
 30
0.0
 11
34.9691
 21
61.0595
 31
0.0
  0
LINE
  8
0
 62
     156
 10
34.9691
 20
61.0595
 30
0.0
 11
34.586
 21
61.1106
 31
0.0
  0
LINE
  8
0
 62
     156
 10
34.586
 20
61.1106
 30
0.0
 11
34.2015
 21
61.1572
 31
0.0
  0
LINE
  8
0
 62
     156
 10
34.2015
 20
61.1572
 30
0.0
 11
33.8157
 21
61.1988
 31
0.0
  0
LINE
  8
0
 62
     156
 10
33.8157
 20
61.1988
 30
0.0
 11
33.4284
 21
61.2359
 31
0.0
  0
LINE
  8
0
 62
     156
 10
33.4284
 20
61.2359
 30
0.0
 11
33.0399
 21
61.2676
 31
0.0
  0
LINE
  8
0
 62
     156
 10
33.0399
 20
61.2676
 30
0.0
 11
32.6499
 21
61.2951
 31
0.0
  0
LINE
  8
0
 62
     156
 10
32.6499
 20
61.2951
 30
0.0
 11
32.2585
 21
61.3174
 31
0.0
  0
LINE
  8
0
 62
     156
 10
32.2585
 20
61.3174
 30
0.0
 11
31.8657
 21
61.335
 31
0.0
  0
LINE
  8
0
 62
     156
 10
31.8657
 20
61.335
 30
0.0
 11
31.4716
 21
61.3473
 31
0.0
  0
LINE
  8
0
 62
     156
 10
31.4716
 20
61.3473
 30
0.0
 11
31.0761
 21
61.3544
 31
0.0
  0
LINE
  8
0
 62
     156
 10
31.0761
 20
61.3544
 30
0.0
 11
30.6792
 21
61.3572
 31
0.0
  0
LINE
  8
0
 62
     156
 10
30.6792
 20
61.3572
 30
0.0
 11
30.2824
 21
61.3544
 31
0.0
  0
LINE
  8
0
 62
     156
 10
30.2824
 20
61.3544
 30
0.0
 11
29.8883
 21
61.3473
 31
0.0
  0
LINE
  8
0
 62
     156
 10
29.8883
 20
61.3473
 30
0.0
 11
29.4942
 21
61.335
 31
0.0
  0
LINE
  8
0
 62
     156
 10
29.4942
 20
61.335
 30
0.0
 11
29.1014
 21
61.3174
 31
0.0
  0
LINE
  8
0
 62
     156
 10
29.1014
 20
61.3174
 30
0.0
 11
28.71
 21
61.2951
 31
0.0
  0
LINE
  8
0
 62
     156
 10
28.71
 20
61.2951
 30
0.0
 11
28.32
 21
61.2676
 31
0.0
  0
LINE
  8
0
 62
     156
 10
28.32
 20
61.2676
 30
0.0
 11
27.9315
 21
61.2359
 31
0.0
  0
LINE
  8
0
 62
     156
 10
27.9315
 20
61.2359
 30
0.0
 11
27.5442
 21
61.1988
 31
0.0
  0
LINE
  8
0
 62
     156
 10
27.5442
 20
61.1988
 30
0.0
 11
27.1584
 21
61.1572
 31
0.0
  0
LINE
  8
0
 62
     156
 10
27.1584
 20
61.1572
 30
0.0
 11
26.7739
 21
61.1106
 31
0.0
  0
LINE
  8
0
 62
     156
 10
26.7739
 20
61.1106
 30
0.0
 11
26.3908
 21
61.0595
 31
0.0
  0
LINE
  8
0
 62
     156
 10
26.3908
 20
61.0595
 30
0.0
 11
26.0091
 21
61.0044
 31
0.0
  0
LINE
  8
0
 62
     156
 10
26.0091
 20
61.0044
 30
0.0
 11
25.6287
 21
60.9438
 31
0.0
  0
LINE
  8
0
 62
     156
 10
25.6287
 20
60.9438
 30
0.0
 11
25.2512
 21
60.8789
 31
0.0
  0
LINE
  8
0
 62
     156
 10
25.2512
 20
60.8789
 30
0.0
 11
24.8736
 21
60.8087
 31
0.0
  0
LINE
  8
0
 62
     156
 10
24.8736
 20
60.8087
 30
0.0
 11
24.4988
 21
60.7342
 31
0.0
  0
LINE
  8
0
 62
     156
 10
24.4988
 20
60.7342
 30
0.0
 11
24.1253
 21
60.6559
 31
0.0
  0
LINE
  8
0
 62
     156
 10
24.1253
 20
60.6559
 30
0.0
 11
23.7532
 21
60.5716
 31
0.0
  0
LINE
  8
0
 62
     156
 10
23.7532
 20
60.5716
 30
0.0
 11
23.3839
 21
60.4848
 31
0.0
  0
LINE
  8
0
 62
     156
 10
23.3839
 20
60.4848
 30
0.0
 11
23.016
 21
60.3924
 31
0.0
  0
LINE
  8
0
 62
     156
 10
23.016
 20
60.3924
 30
0.0
 11
22.6494
 21
60.2947
 31
0.0
  0
LINE
  8
0
 62
     156
 10
22.6494
 20
60.2947
 30
0.0
 11
22.2843
 21
60.1941
 31
0.0
  0
LINE
  8
0
 62
     156
 10
22.2843
 20
60.1941
 30
0.0
 11
21.9218
 21
60.0893
 31
0.0
  0
LINE
  8
0
 62
     156
 10
21.9218
 20
60.0893
 30
0.0
 11
21.5608
 21
59.9793
 31
0.0
  0
LINE
  8
0
 62
     156
 10
21.5608
 20
59.9793
 30
0.0
 11
21.2011
 21
59.8646
 31
0.0
  0
LINE
  8
0
 62
     156
 10
21.2011
 20
59.8646
 30
0.0
 11
20.8442
 21
59.7461
 31
0.0
  0
LINE
  8
0
 62
     156
 10
20.8442
 20
59.7461
 30
0.0
 11
20.4887
 21
59.6237
 31
0.0
  0
LINE
  8
0
 62
     156
 10
20.4887
 20
59.6237
 30
0.0
 11
20.1359
 21
59.4967
 31
0.0
  0
LINE
  8
0
 62
     156
 10
20.1359
 20
59.4967
 30
0.0
 11
19.7845
 21
59.3658
 31
0.0
  0
LINE
  8
0
 62
     156
 10
19.7845
 20
59.3658
 30
0.0
 11
19.4345
 21
59.2307
 31
0.0
  0
LINE
  8
0
 62
     156
 10
19.4345
 20
59.2307
 30
0.0
 11
19.0872
 21
59.0917
 31
0.0
  0
LINE
  8
0
 62
     156
 10
19.0872
 20
59.0917
 30
0.0
 11
18.7427
 21
58.9485
 31
0.0
  0
LINE
  8
0
 62
     156
 10
18.7427
 20
58.9485
 30
0.0
 11
18.3996
 21
58.801
 31
0.0
  0
LINE
  8
0
 62
     156
 10
18.3996
 20
58.801
 30
0.0
 11
18.0592
 21
58.6493
 31
0.0
  0
LINE
  8
0
 62
     156
 10
18.0592
 20
58.6493
 30
0.0
 11
17.7202
 21
58.4937
 31
0.0
  0
LINE
  8
0
 62
     156
 10
17.7202
 20
58.4937
 30
0.0
 11
17.3839
 21
58.3336
 31
0.0
  0
LINE
  8
0
 62
     156
 10
17.3839
 20
58.3336
 30
0.0
 11
17.0505
 21
58.1713
 31
0.0
  0
LINE
  8
0
 62
     156
 10
17.0505
 20
58.1713
 30
0.0
 11
16.7184
 21
58.003
 31
0.0
  0
LINE
  8
0
 62
     156
 10
16.7184
 20
58.003
 30
0.0
 11
16.389
 21
57.8323
 31
0.0
  0
LINE
  8
0
 62
     156
 10
16.389
 20
57.8323
 30
0.0
 11
16.0624
 21
57.6573
 31
0.0
  0
LINE
  8
0
 62
     156
 10
16.0624
 20
57.6573
 30
0.0
 11
15.7372
 21
57.4781
 31
0.0
  0
LINE
  8
0
 62
     156
 10
15.7372
 20
57.4781
 30
0.0
 11
15.4147
 21
57.2961
 31
0.0
  0
LINE
  8
0
 62
     156
 10
15.4147
 20
57.2961
 30
0.0
 11
15.095
 21
57.1087
 31
0.0
  0
LINE
  8
0
 62
     156
 10
15.095
 20
57.1087
 30
0.0
 11
14.7781
 21
56.9186
 31
0.0
  0
LINE
  8
0
 62
     156
 10
14.7781
 20
56.9186
 30
0.0
 11
14.4625
 21
56.7256
 31
0.0
  0
LINE
  8
0
 62
     156
 10
14.4625
 20
56.7256
 30
0.0
 11
14.1497
 21
56.527
 31
0.0
  0
LINE
  8
0
 62
     156
 10
14.1497
 20
56.527
 30
0.0
 11
13.8396
 21
56.3259
 31
0.0
  0
LINE
  8
0
 62
     156
 10
13.8396
 20
56.3259
 30
0.0
 11
13.5337
 21
56.122
 31
0.0
  0
LINE
  8
0
 62
     156
 10
13.5337
 20
56.122
 30
0.0
 11
13.2278
 21
55.9139
 31
0.0
  0
LINE
  8
0
 62
     156
 10
13.2278
 20
55.9139
 30
0.0
 11
12.926
 21
55.7018
 31
0.0
  0
LINE
  8
0
 62
     156
 10
12.926
 20
55.7018
 30
0.0
 11
12.627
 21
55.4852
 31
0.0
  0
LINE
  8
0
 62
     156
 10
12.627
 20
55.4852
 30
0.0
 11
12.3307
 21
55.2662
 31
0.0
  0
LINE
  8
0
 62
     156
 10
12.3307
 20
55.2662
 30
0.0
 11
12.0372
 21
55.0443
 31
0.0
  0
LINE
  8
0
 62
     156
 10
12.0372
 20
55.0443
 30
0.0
 11
11.745
 21
54.8185
 31
0.0
  0
LINE
  8
0
 62
     156
 10
11.745
 20
54.8185
 30
0.0
 11
11.457
 21
54.5895
 31
0.0
  0
LINE
  8
0
 62
     156
 10
11.457
 20
54.5895
 30
0.0
 11
11.1718
 21
54.3567
 31
0.0
  0
LINE
  8
0
 62
     156
 10
11.1718
 20
54.3567
 30
0.0
 11
10.8893
 21
54.1211
 31
0.0
  0
LINE
  8
0
 62
     156
 10
10.8893
 20
54.1211
 30
0.0
 11
10.6095
 21
53.8812
 31
0.0
  0
LINE
  8
0
 62
     156
 10
10.6095
 20
53.8812
 30
0.0
 11
10.3325
 21
53.6388
 31
0.0
  0
LINE
  8
0
 62
     156
 10
10.3325
 20
53.6388
 30
0.0
 11
10.0583
 21
53.3936
 31
0.0
  0
LINE
  8
0
 62
     156
 10
10.0583
 20
53.3936
 30
0.0
 11
9.78821
 21
53.1442
 31
0.0
  0
LINE
  8
0
 62
     156
 10
9.78821
 20
53.1442
 30
0.0
 11
9.5195
 21
52.892
 31
0.0
  0
LINE
  8
0
 62
     156
 10
9.5195
 20
52.892
 30
0.0
 11
9.25491
 21
52.6369
 31
0.0
  0
LINE
  8
0
 62
     156
 10
9.25491
 20
52.6369
 30
0.0
 11
8.99308
 21
52.378
 31
0.0
  0
LINE
  8
0
 62
     156
 10
8.99308
 20
52.378
 30
0.0
 11
8.73538
 21
52.1159
 31
0.0
  0
LINE
  8
0
 62
     156
 10
8.73538
 20
52.1159
 30
0.0
 11
8.47908
 21
51.8513
 31
0.0
  0
LINE
  8
0
 62
     156
 10
8.47908
 20
51.8513
 30
0.0
 11
8.22688
 21
51.5842
 31
0.0
  0
LINE
  8
0
 62
     156
 10
8.22688
 20
51.5842
 30
0.0
 11
7.97747
 21
51.314
 31
0.0
  0
LINE
  8
0
 62
     156
 10
7.97747
 20
51.314
 30
0.0
 11
7.73218
 21
51.0399
 31
0.0
  0
LINE
  8
0
 62
     156
 10
7.73218
 20
51.0399
 30
0.0
 11
7.48965
 21
50.763
 31
0.0
  0
LINE
  8
0
 62
     156
 10
7.48965
 20
50.763
 30
0.0
 11
7.24987
 21
50.4832
 31
0.0
  0
LINE
  8
0
 62
     156
 10
7.24987
 20
50.4832
 30
0.0
 11
7.01421
 21
50.2006
 31
0.0
  0
LINE
  8
0
 62
     156
 10
7.01421
 20
50.2006
 30
0.0
 11
6.78134
 21
49.9152
 31
0.0
  0
LINE
  8
0
 62
     156
 10
6.78134
 20
49.9152
 30
0.0
 11
6.55119
 21
49.6274
 31
0.0
  0
LINE
  8
0
 62
     156
 10
6.55119
 20
49.6274
 30
0.0
 11
6.3252
 21
49.3367
 31
0.0
  0
LINE
  8
0
 62
     156
 10
6.3252
 20
49.3367
 30
0.0
 11
6.10334
 21
49.0432
 31
0.0
  0
LINE
  8
0
 62
     156
 10
6.10334
 20
49.0432
 30
0.0
 11
5.88423
 21
48.7468
 31
0.0
  0
LINE
  8
0
 62
     156
 10
5.88423
 20
48.7468
 30
0.0
 11
5.66787
 21
48.4477
 31
0.0
  0
LINE
  8
0
 62
     156
 10
5.66787
 20
48.4477
 30
0.0
 11
5.45564
 21
48.1461
 31
0.0
  0
LINE
  8
0
 62
     156
 10
5.45564
 20
48.1461
 30
0.0
 11
5.24757
 21
47.8413
 31
0.0
  0
LINE
  8
0
 62
     156
 10
5.24757
 20
47.8413
 30
0.0
 11
5.04225
 21
47.534
 31
0.0
  0
LINE
  8
0
 62
     156
 10
5.04225
 20
47.534
 30
0.0
 11
4.84106
 21
47.2239
 31
0.0
  0
LINE
  8
0
 62
     156
 10
4.84106
 20
47.2239
 30
0.0
 11
4.64263
 21
46.9113
 31
0.0
  0
LINE
  8
0
 62
     156
 10
4.64263
 20
46.9113
 30
0.0
 11
4.44969
 21
46.597
 31
0.0
  0
LINE
  8
0
 62
     156
 10
4.44969
 20
46.597
 30
0.0
 11
4.25813
 21
46.2802
 31
0.0
  0
LINE
  8
0
 62
     156
 10
4.25813
 20
46.2802
 30
0.0
 11
4.07211
 21
45.9602
 31
0.0
  0
LINE
  8
0
 62
     156
 10
4.07211
 20
45.9602
 30
0.0
 11
3.88881
 21
45.6378
 31
0.0
  0
LINE
  8
0
 62
     156
 10
3.88881
 20
45.6378
 30
0.0
 11
3.70967
 21
45.3125
 31
0.0
  0
LINE
  8
0
 62
     156
 10
3.70967
 20
45.3125
 30
0.0
 11
3.53466
 21
44.9862
 31
0.0
  0
LINE
  8
0
 62
     156
 10
3.53466
 20
44.9862
 30
0.0
 11
3.36379
 21
44.6567
 31
0.0
  0
LINE
  8
0
 62
     156
 10
3.36379
 20
44.6567
 30
0.0
 11
3.19567
 21
44.3248
 31
0.0
  0
LINE
  8
0
 62
     156
 10
3.19567
 20
44.3248
 30
0.0
 11
3.03168
 21
43.991
 31
0.0
  0
LINE
  8
0
 62
     156
 10
3.03168
 20
43.991
 30
0.0
 11
2.87321
 21
43.6548
 31
0.0
  0
LINE
  8
0
 62
     156
 10
2.87321
 20
43.6548
 30
0.0
 11
2.71749
 21
43.3158
 31
0.0
  0
LINE
  8
0
 62
     156
 10
2.71749
 20
43.3158
 30
0.0
 11
2.56591
 21
42.9754
 31
0.0
  0
LINE
  8
0
 62
     156
 10
2.56591
 20
42.9754
 30
0.0
 11
2.41708
 21
42.6325
 31
0.0
  0
LINE
  8
0
 62
     156
 10
2.41708
 20
42.6325
 30
0.0
 11
2.27376
 21
42.2878
 31
0.0
  0
LINE
  8
0
 62
     156
 10
2.27376
 20
42.2878
 30
0.0
 11
2.13458
 21
41.9407
 31
0.0
  0
LINE
  8
0
 62
     156
 10
2.13458
 20
41.9407
 30
0.0
 11
1.99953
 21
41.5918
 31
0.0
  0
LINE
  8
0
 62
     156
 10
1.99953
 20
41.5918
 30
0.0
 11
1.86724
 21
41.2404
 31
0.0
  0
LINE
  8
0
 62
     156
 10
1.86724
 20
41.2404
 30
0.0
 11
1.74046
 21
40.8877
 31
0.0
  0
LINE
  8
0
 62
     156
 10
1.74046
 20
40.8877
 30
0.0
 11
1.61782
 21
40.5324
 31
0.0
  0
LINE
  8
0
 62
     156
 10
1.61782
 20
40.5324
 30
0.0
 11
1.49931
 21
40.1754
 31
0.0
  0
LINE
  8
0
 62
     156
 10
1.49931
 20
40.1754
 30
0.0
 11
1.38493
 21
39.8156
 31
0.0
  0
LINE
  8
0
 62
     156
 10
1.38493
 20
39.8156
 30
0.0
 11
1.27468
 21
39.4547
 31
0.0
  0
LINE
  8
0
 62
     156
 10
1.27468
 20
39.4547
 30
0.0
 11
1.16858
 21
39.0924
 31
0.0
  0
LINE
  8
0
 62
     156
 10
1.16858
 20
39.0924
 30
0.0
 11
1.06798
 21
38.7269
 31
0.0
  0
LINE
  8
0
 62
     156
 10
1.06798
 20
38.7269
 30
0.0
 11
0.971518
 21
38.3618
 31
0.0
  0
LINE
  8
0
 62
     156
 10
0.971518
 20
38.3618
 30
0.0
 11
0.87781
 21
37.9924
 31
0.0
  0
LINE
  8
0
 62
     156
 10
0.87781
 20
37.9924
 30
0.0
 11
0.790995
 21
37.623
 31
0.0
  0
LINE
  8
0
 62
     156
 10
0.790995
 20
37.623
 30
0.0
 11
0.706935
 21
37.2512
 31
0.0
  0
LINE
  8
0
 62
     156
 10
0.706935
 20
37.2512
 30
0.0
 11
0.627006
 21
36.8776
 31
0.0
  0
LINE
  8
0
 62
     156
 10
0.627006
 20
36.8776
 30
0.0
 11
0.552595
 21
36.503
 31
0.0
  0
LINE
  8
0
 62
     156
 10
0.552595
 20
36.503
 30
0.0
 11
0.48369
 21
36.1266
 31
0.0
  0
LINE
  8
0
 62
     156
 10
0.48369
 20
36.1266
 30
0.0
 11
0.417544
 21
35.7477
 31
0.0
  0
LINE
  8
0
 62
     156
 10
0.417544
 20
35.7477
 30
0.0
 11
0.356912
 21
35.3674
 31
0.0
  0
LINE
  8
0
 62
     156
 10
0.356912
 20
35.3674
 30
0.0
 11
0.300412
 21
34.987
 31
0.0
  0
LINE
  8
0
 62
     156
 10
0.300412
 20
34.987
 30
0.0
 11
0.249425
 21
34.6039
 31
0.0
  0
LINE
  8
0
 62
     156
 10
0.249425
 20
34.6039
 30
0.0
 11
0.202572
 21
34.2194
 31
0.0
  0
LINE
  8
0
 62
     156
 10
0.202572
 20
34.2194
 30
0.0
 11
0.16123
 21
33.8336
 31
0.0
  0
LINE
  8
0
 62
     156
 10
0.16123
 20
33.8336
 30
0.0
 11
0.124024
 21
33.4464
 31
0.0
  0
LINE
  8
0
 62
     156
 10
0.124024
 20
33.4464
 30
0.0
 11
0.0923286
 21
33.0577
 31
0.0
  0
LINE
  8
0
 62
     156
 10
0.0923286
 20
33.0577
 30
0.0
 11
0.0647679
 21
32.6678
 31
0.0
  0
LINE
  8
0
 62
     156
 10
0.0647679
 20
32.6678
 30
0.0
 11
0.0413413
 21
32.2764
 31
0.0
  0
LINE
  8
0
 62
     156
 10
0.0413413
 20
32.2764
 30
0.0
 11
0.0234267
 21
31.8837
 31
0.0
  0
LINE
  8
0
 62
     156
 10
0.0234267
 20
31.8837
 30
0.0
 11
0.0110243
 21
31.4895
 31
0.0
  0
LINE
  8
0
 62
     156
 10
0.0110243
 20
31.4895
 30
0.0
 11
0.00413413
 21
31.0954
 31
0.0
  0
LINE
  8
0
 62
     156
 10
0.00413413
 20
31.0954
 30
0.0
 11
0.00137804
 21
30.6985
 31
0.0
  0
LINE
  8
0
 62
     156
 10
0.00137804
 20
30.6985
 30
0.0
 11
0
 21
30.6985
 31
0.0
  0
LINE
  8
0
 62
     156
 10
0
 20
30.6985
 30
0.0
 11
0
 21
30.6999
 31
0.0
  0
LINE
  8
0
 62
     156
 10
0
 20
30.6999
 30
0.0
 11
0
 21
6.95635
 31
0.0
  0
LINE
  8
0
 62
     156
 10
0
 20
6.95635
 30
0.0
 11
0.00137804
 21
6.95635
 31
0.0
  0
LINE
  8
0
 62
     156
 10
0.00137804
 20
6.95635
 30
0.0
 11
0.00137804
 21
6.86537
 31
0.0
  0
LINE
  8
0
 62
     156
 10
0.00137804
 20
6.86537
 30
0.0
 11
0.00275608
 21
6.7758
 31
0.0
  0
LINE
  8
0
 62
     156
 10
0.00275608
 20
6.7758
 30
0.0
 11
0.00689021
 21
6.68623
 31
0.0
  0
LINE
  8
0
 62
     156
 10
0.00689021
 20
6.68623
 30
0.0
 11
0.0110243
 21
6.59804
 31
0.0
  0
LINE
  8
0
 62
     156
 10
0.0110243
 20
6.59804
 30
0.0
 11
0.0165365
 21
6.50847
 31
0.0
  0
LINE
  8
0
 62
     156
 10
0.0165365
 20
6.50847
 30
0.0
 11
0.0220486
 21
6.42027
 31
0.0
  0
LINE
  8
0
 62
     156
 10
0.0220486
 20
6.42027
 30
0.0
 11
0.0385851
 21
6.24388
 31
0.0
  0
LINE
  8
0
 62
     156
 10
0.0385851
 20
6.24388
 30
0.0
 11
0.0482314
 21
6.15707
 31
0.0
  0
LINE
  8
0
 62
     156
 10
0.0482314
 20
6.15707
 30
0.0
 11
0.0592557
 21
6.06887
 31
0.0
  0
LINE
  8
0
 62
     156
 10
0.0592557
 20
6.06887
 30
0.0
 11
0.07028
 21
5.98205
 31
0.0
  0
LINE
  8
0
 62
     156
 10
0.07028
 20
5.98205
 30
0.0
 11
0.0826823
 21
5.89523
 31
0.0
  0
LINE
  8
0
 62
     156
 10
0.0826823
 20
5.89523
 30
0.0
 11
0.0978408
 21
5.80983
 31
0.0
  0
LINE
  8
0
 62
     156
 10
0.0978408
 20
5.80983
 30
0.0
 11
0.111621
 21
5.72438
 31
0.0
  0
LINE
  8
0
 62
     156
 10
0.111621
 20
5.72438
 30
0.0
 11
0.144694
 21
5.5535
 31
0.0
  0
LINE
  8
0
 62
     156
 10
0.144694
 20
5.5535
 30
0.0
 11
0.163987
 21
5.46806
 31
0.0
  0
LINE
  8
0
 62
     156
 10
0.163987
 20
5.46806
 30
0.0
 11
0.181901
 21
5.38399
 31
0.0
  0
LINE
  8
0
 62
     156
 10
0.181901
 20
5.38399
 30
0.0
 11
0.223242
 21
5.21589
 31
0.0
  0
LINE
  8
0
 62
     156
 10
0.223242
 20
5.21589
 30
0.0
 11
0.245291
 21
5.1332
 31
0.0
  0
LINE
  8
0
 62
     156
 10
0.245291
 20
5.1332
 30
0.0
 11
0.268718
 21
5.05051
 31
0.0
  0
LINE
  8
0
 62
     156
 10
0.268718
 20
5.05051
 30
0.0
 11
0.293522
 21
4.96782
 31
0.0
  0
LINE
  8
0
 62
     156
 10
0.293522
 20
4.96782
 30
0.0
 11
0.318327
 21
4.88654
 31
0.0
  0
LINE
  8
0
 62
     156
 10
0.318327
 20
4.88654
 30
0.0
 11
0.370692
 21
4.72391
 31
0.0
  0
LINE
  8
0
 62
     156
 10
0.370692
 20
4.72391
 30
0.0
 11
0.39963
 21
4.64263
 31
0.0
  0
LINE
  8
0
 62
     156
 10
0.39963
 20
4.64263
 30
0.0
 11
0.45751
 21
4.48275
 31
0.0
  0
LINE
  8
0
 62
     156
 10
0.45751
 20
4.48275
 30
0.0
 11
0.520898
 21
4.32566
 31
0.0
  0
LINE
  8
0
 62
     156
 10
0.520898
 20
4.32566
 30
0.0
 11
0.587043
 21
4.16856
 31
0.0
  0
LINE
  8
0
 62
     156
 10
0.587043
 20
4.16856
 30
0.0
 11
0.621496
 21
4.09141
 31
0.0
  0
LINE
  8
0
 62
     156
 10
0.621496
 20
4.09141
 30
0.0
 11
0.657324
 21
4.0156
 31
0.0
  0
LINE
  8
0
 62
     156
 10
0.657324
 20
4.0156
 30
0.0
 11
0.693152
 21
3.93845
 31
0.0
  0
LINE
  8
0
 62
     156
 10
0.693152
 20
3.93845
 30
0.0
 11
0.730359
 21
3.86263
 31
0.0
  0
LINE
  8
0
 62
     156
 10
0.730359
 20
3.86263
 30
0.0
 11
0.768946
 21
3.78823
 31
0.0
  0
LINE
  8
0
 62
     156
 10
0.768946
 20
3.78823
 30
0.0
 11
0.80753
 21
3.71242
 31
0.0
  0
LINE
  8
0
 62
     156
 10
0.80753
 20
3.71242
 30
0.0
 11
0.847492
 21
3.6394
 31
0.0
  0
LINE
  8
0
 62
     156
 10
0.847492
 20
3.6394
 30
0.0
 11
0.888834
 21
3.565
 31
0.0
  0
LINE
  8
0
 62
     156
 10
0.888834
 20
3.565
 30
0.0
 11
0.930176
 21
3.49195
 31
0.0
  0
LINE
  8
0
 62
     156
 10
0.930176
 20
3.49195
 30
0.0
 11
0.972894
 21
3.41891
 31
0.0
  0
LINE
  8
0
 62
     156
 10
0.972894
 20
3.41891
 30
0.0
 11
1.01562
 21
3.34725
 31
0.0
  0
LINE
  8
0
 62
     156
 10
1.01562
 20
3.34725
 30
0.0
 11
1.05971
 21
3.2756
 31
0.0
  0
LINE
  8
0
 62
     156
 10
1.05971
 20
3.2756
 30
0.0
 11
1.15066
 21
3.13504
 31
0.0
  0
LINE
  8
0
 62
     156
 10
1.15066
 20
3.13504
 30
0.0
 11
1.19751
 21
3.06476
 31
0.0
  0
LINE
  8
0
 62
     156
 10
1.19751
 20
3.06476
 30
0.0
 11
1.24437
 21
2.99586
 31
0.0
  0
LINE
  8
0
 62
     156
 10
1.24437
 20
2.99586
 30
0.0
 11
1.2926
 21
2.92833
 31
0.0
  0
LINE
  8
0
 62
     156
 10
1.2926
 20
2.92833
 30
0.0
 11
1.34221
 21
2.85943
 31
0.0
  0
LINE
  8
0
 62
     156
 10
1.34221
 20
2.85943
 30
0.0
 11
1.39182
 21
2.7919
 31
0.0
  0
LINE
  8
0
 62
     156
 10
1.39182
 20
2.7919
 30
0.0
 11
1.4938
 21
2.65961
 31
0.0
  0
LINE
  8
0
 62
     156
 10
1.4938
 20
2.65961
 30
0.0
 11
1.59852
 21
2.53008
 31
0.0
  0
LINE
  8
0
 62
     156
 10
1.59852
 20
2.53008
 30
0.0
 11
1.65227
 21
2.46531
 31
0.0
  0
LINE
  8
0
 62
     156
 10
1.65227
 20
2.46531
 30
0.0
 11
1.70739
 21
2.40192
 31
0.0
  0
LINE
  8
0
 62
     156
 10
1.70739
 20
2.40192
 30
0.0
 11
1.81763
 21
2.2779
 31
0.0
  0
LINE
  8
0
 62
     156
 10
1.81763
 20
2.2779
 30
0.0
 11
1.87413
 21
2.21589
 31
0.0
  0
LINE
  8
0
 62
     156
 10
1.87413
 20
2.21589
 30
0.0
 11
1.98989
 21
2.09462
 31
0.0
  0
LINE
  8
0
 62
     156
 10
1.98989
 20
2.09462
 30
0.0
 11
2.04914
 21
2.03536
 31
0.0
  0
LINE
  8
0
 62
     156
 10
2.04914
 20
2.03536
 30
0.0
 11
2.1084
 21
1.97749
 31
0.0
  0
LINE
  8
0
 62
     156
 10
2.1084
 20
1.97749
 30
0.0
 11
2.22966
 21
1.86173
 31
0.0
  0
LINE
  8
0
 62
     156
 10
2.22966
 20
1.86173
 30
0.0
 11
2.29168
 21
1.80523
 31
0.0
  0
LINE
  8
0
 62
     156
 10
2.29168
 20
1.80523
 30
0.0
 11
2.4157
 21
1.69499
 31
0.0
  0
LINE
  8
0
 62
     156
 10
2.4157
 20
1.69499
 30
0.0
 11
2.47909
 21
1.64124
 31
0.0
  0
LINE
  8
0
 62
     156
 10
2.47909
 20
1.64124
 30
0.0
 11
2.60863
 21
1.53376
 31
0.0
  0
LINE
  8
0
 62
     156
 10
2.60863
 20
1.53376
 30
0.0
 11
2.67477
 21
1.48277
 31
0.0
  0
LINE
  8
0
 62
     156
 10
2.67477
 20
1.48277
 30
0.0
 11
2.74092
 21
1.4304
 31
0.0
  0
LINE
  8
0
 62
     156
 10
2.74092
 20
1.4304
 30
0.0
 11
2.80706
 21
1.38079
 31
0.0
  0
LINE
  8
0
 62
     156
 10
2.80706
 20
1.38079
 30
0.0
 11
2.94211
 21
1.28157
 31
0.0
  0
LINE
  8
0
 62
     156
 10
2.94211
 20
1.28157
 30
0.0
 11
3.01101
 21
1.23334
 31
0.0
  0
LINE
  8
0
 62
     156
 10
3.01101
 20
1.23334
 30
0.0
 11
3.07992
 21
1.18649
 31
0.0
  0
LINE
  8
0
 62
     156
 10
3.07992
 20
1.18649
 30
0.0
 11
3.1502
 21
1.13964
 31
0.0
  0
LINE
  8
0
 62
     156
 10
3.1502
 20
1.13964
 30
0.0
 11
3.22048
 21
1.09416
 31
0.0
  0
LINE
  8
0
 62
     156
 10
3.22048
 20
1.09416
 30
0.0
 11
3.36379
 21
1.00597
 31
0.0
  0
LINE
  8
0
 62
     156
 10
3.36379
 20
1.00597
 30
0.0
 11
3.43545
 21
0.963249
 31
0.0
  0
LINE
  8
0
 62
     156
 10
3.43545
 20
0.963249
 30
0.0
 11
3.50848
 21
0.920531
 31
0.0
  0
LINE
  8
0
 62
     156
 10
3.50848
 20
0.920531
 30
0.0
 11
3.65457
 21
0.837847
 31
0.0
  0
LINE
  8
0
 62
     156
 10
3.65457
 20
0.837847
 30
0.0
 11
3.72897
 21
0.799264
 31
0.0
  0
LINE
  8
0
 62
     156
 10
3.72897
 20
0.799264
 30
0.0
 11
3.80478
 21
0.759298
 31
0.0
  0
LINE
  8
0
 62
     156
 10
3.80478
 20
0.759298
 30
0.0
 11
3.87918
 21
0.722094
 31
0.0
  0
LINE
  8
0
 62
     156
 10
3.87918
 20
0.722094
 30
0.0
 11
3.95496
 21
0.684886
 31
0.0
  0
LINE
  8
0
 62
     156
 10
3.95496
 20
0.684886
 30
0.0
 11
4.1093
 21
0.613227
 31
0.0
  0
LINE
  8
0
 62
     156
 10
4.1093
 20
0.613227
 30
0.0
 11
4.18648
 21
0.578778
 31
0.0
  0
LINE
  8
0
 62
     156
 10
4.18648
 20
0.578778
 30
0.0
 11
4.26364
 21
0.545705
 31
0.0
  0
LINE
  8
0
 62
     156
 10
4.26364
 20
0.545705
 30
0.0
 11
4.3422
 21
0.512632
 31
0.0
  0
LINE
  8
0
 62
     156
 10
4.3422
 20
0.512632
 30
0.0
 11
4.42214
 21
0.480935
 31
0.0
  0
LINE
  8
0
 62
     156
 10
4.42214
 20
0.480935
 30
0.0
 11
4.50067
 21
0.450617
 31
0.0
  0
LINE
  8
0
 62
     156
 10
4.50067
 20
0.450617
 30
0.0
 11
4.66051
 21
0.39274
 31
0.0
  0
LINE
  8
0
 62
     156
 10
4.66051
 20
0.39274
 30
0.0
 11
4.82314
 21
0.337619
 31
0.0
  0
LINE
  8
0
 62
     156
 10
4.82314
 20
0.337619
 30
0.0
 11
4.90442
 21
0.311437
 31
0.0
  0
LINE
  8
0
 62
     156
 10
4.90442
 20
0.311437
 30
0.0
 11
4.98574
 21
0.286632
 31
0.0
  0
LINE
  8
0
 62
     156
 10
4.98574
 20
0.286632
 30
0.0
 11
5.15112
 21
0.239779
 31
0.0
  0
LINE
  8
0
 62
     156
 10
5.15112
 20
0.239779
 30
0.0
 11
5.23515
 21
0.21773
 31
0.0
  0
LINE
  8
0
 62
     156
 10
5.23515
 20
0.21773
 30
0.0
 11
5.31922
 21
0.19706
 31
0.0
  0
LINE
  8
0
 62
     156
 10
5.31922
 20
0.19706
 30
0.0
 11
5.48735
 21
0.158474
 31
0.0
  0
LINE
  8
0
 62
     156
 10
5.48735
 20
0.158474
 30
0.0
 11
5.57142
 21
0.14056
 31
0.0
  0
LINE
  8
0
 62
     156
 10
5.57142
 20
0.14056
 30
0.0
 11
5.74227
 21
0.107487
 31
0.0
  0
LINE
  8
0
 62
     156
 10
5.74227
 20
0.107487
 30
0.0
 11
5.82909
 21
0.0937066
 31
0.0
  0
LINE
  8
0
 62
     156
 10
5.82909
 20
0.0937066
 30
0.0
 11
5.91453
 21
0.0799264
 31
0.0
  0
LINE
  8
0
 62
     156
 10
5.91453
 20
0.0799264
 30
0.0
 11
6.00135
 21
0.0661458
 31
0.0
  0
LINE
  8
0
 62
     156
 10
6.00135
 20
0.0661458
 30
0.0
 11
6.08817
 21
0.0551215
 31
0.0
  0
LINE
  8
0
 62
     156
 10
6.08817
 20
0.0551215
 30
0.0
 11
6.17636
 21
0.0440972
 31
0.0
  0
LINE
  8
0
 62
     156
 10
6.17636
 20
0.0440972
 30
0.0
 11
6.26318
 21
0.0358292
 31
0.0
  0
LINE
  8
0
 62
     156
 10
6.26318
 20
0.0358292
 30
0.0
 11
6.43957
 21
0.0192925
 31
0.0
  0
LINE
  8
0
 62
     156
 10
6.43957
 20
0.0192925
 30
0.0
 11
6.52914
 21
0.0137804
 31
0.0
  0
LINE
  8
0
 62
     156
 10
6.52914
 20
0.0137804
 30
0.0
 11
6.61733
 21
0.00826823
 31
0.0
  0
LINE
  8
0
 62
     156
 10
6.61733
 20
0.00826823
 30
0.0
 11
6.70691
 21
0.00413413
 31
0.0
  0
LINE
  8
0
 62
     156
 10
6.70691
 20
0.00413413
 30
0.0
 11
6.79648
 21
0.00137804
 31
0.0
  0
LINE
  8
0
 62
     156
 10
6.79648
 20
0.00137804
 30
0.0
 11
6.88605
 21
-0
 31
0.0
  0
LINE
  8
0
 62
     156
 10
6.88605
 20
-0
 30
0.0
 11
7.00183
 21
-0
 31
0.0
  0
LINE
  8
0
 62
     156
 10
7.00183
 20
-0
 30
0.0
 11
7.00183
 21
0.00137804
 31
0.0
  0
LINE
  8
0
 62
     156
 10
7.00183
 20
0.00137804
 30
0.0
 11
7.00871
 21
0.00137804
 31
0.0
  0
LINE
  8
0
 62
     156
 10
7.00871
 20
0.00137804
 30
0.0
 11
7.00871
 21
-0
 31
0.0
  0
LINE
  8
0
 62
     156
 10
7.00871
 20
-0
 30
0.0
 11
30.6917
 21
-0
 31
0.0
  0
LINE
  8
0
 62
     156
 10
30.6917
 20
-0
 30
0.0
 11
31.0885
 21
0.00275608
 31
0.0
  0
LINE
  8
0
 62
     156
 10
31.0885
 20
0.00275608
 30
0.0
 11
31.4827
 21
0.00964629
 31
0.0
  0
LINE
  8
0
 62
     156
 10
31.4827
 20
0.00964629
 30
0.0
 11
31.8768
 21
0.0220486
 31
0.0
  0
LINE
  8
0
 62
     156
 10
31.8768
 20
0.0220486
 30
0.0
 11
32.2695
 21
0.039963
 31
0.0
  0
LINE
  8
0
 62
     156
 10
32.2695
 20
0.039963
 30
0.0
 11
32.6609
 21
0.0620116
 31
0.0
  0
LINE
  8
0
 62
     156
 10
32.6609
 20
0.0620116
 30
0.0
 11
33.0509
 21
0.0895724
 31
0.0
  0
LINE
  8
0
 62
     156
 10
33.0509
 20
0.0895724
 30
0.0
 11
33.4395
 21
0.122645
 31
0.0
  0
LINE
  8
0
 62
     156
 10
33.4395
 20
0.122645
 30
0.0
 11
33.8267
 21
0.158474
 31
0.0
  0
LINE
  8
0
 62
     156
 10
33.8267
 20
0.158474
 30
0.0
 11
34.2126
 21
0.201194
 31
0.0
  0
LINE
  8
0
 62
     156
 10
34.2126
 20
0.201194
 30
0.0
 11
34.597
 21
0.248047
 31
0.0
  0
LINE
  8
0
 62
     156
 10
34.597
 20
0.248047
 30
0.0
 11
34.9801
 21
0.299034
 31
0.0
  0
LINE
  8
0
 62
     156
 10
34.9801
 20
0.299034
 30
0.0
 11
35.3617
 21
0.354157
 31
0.0
  0
LINE
  8
0
 62
     156
 10
35.3617
 20
0.354157
 30
0.0
 11
35.742
 21
0.414789
 31
0.0
  0
LINE
  8
0
 62
     156
 10
35.742
 20
0.414789
 30
0.0
 11
36.1199
 21
0.480935
 31
0.0
  0
LINE
  8
0
 62
     156
 10
36.1199
 20
0.480935
 30
0.0
 11
36.4973
 21
0.549836
 31
0.0
  0
LINE
  8
0
 62
     156
 10
36.4973
 20
0.549836
 30
0.0
 11
36.8723
 21
0.624251
 31
0.0
  0
LINE
  8
0
 62
     156
 10
36.8723
 20
0.624251
 30
0.0
 11
37.2456
 21
0.704176
 31
0.0
  0
LINE
  8
0
 62
     156
 10
37.2456
 20
0.704176
 30
0.0
 11
37.6178
 21
0.78686
 31
0.0
  0
LINE
  8
0
 62
     156
 10
37.6178
 20
0.78686
 30
0.0
 11
37.9871
 21
0.875055
 31
0.0
  0
LINE
  8
0
 62
     156
 10
37.9871
 20
0.875055
 30
0.0
 11
38.3565
 21
0.967384
 31
0.0
  0
LINE
  8
0
 62
     156
 10
38.3565
 20
0.967384
 30
0.0
 11
38.723
 21
1.06522
 31
0.0
  0
LINE
  8
0
 62
     156
 10
38.723
 20
1.06522
 30
0.0
 11
39.0867
 21
1.16582
 31
0.0
  0
LINE
  8
0
 62
     156
 10
39.0867
 20
1.16582
 30
0.0
 11
39.4504
 21
1.27193
 31
0.0
  0
LINE
  8
0
 62
     156
 10
39.4504
 20
1.27193
 30
0.0
 11
39.8117
 21
1.38217
 31
0.0
  0
LINE
  8
0
 62
     156
 10
39.8117
 20
1.38217
 30
0.0
 11
40.1697
 21
1.49517
 31
0.0
  0
LINE
  8
0
 62
     156
 10
40.1697
 20
1.49517
 30
0.0
 11
40.5282
 21
1.61506
 31
0.0
  0
LINE
  8
0
 62
     156
 10
40.5282
 20
1.61506
 30
0.0
 11
40.8824
 21
1.73771
 31
0.0
  0
LINE
  8
0
 62
     156
 10
40.8824
 20
1.73771
 30
0.0
 11
41.2365
 21
1.86449
 31
0.0
  0
LINE
  8
0
 62
     156
 10
41.2365
 20
1.86449
 30
0.0
 11
41.5879
 21
1.9954
 31
0.0
  0
LINE
  8
0
 62
     156
 10
41.5879
 20
1.9954
 30
0.0
 11
41.9365
 21
2.13045
 31
0.0
  0
LINE
  8
0
 62
     156
 10
41.9365
 20
2.13045
 30
0.0
 11
42.2836
 21
2.26963
 31
0.0
  0
LINE
  8
0
 62
     156
 10
42.2836
 20
2.26963
 30
0.0
 11
42.6283
 21
2.41432
 31
0.0
  0
LINE
  8
0
 62
     156
 10
42.6283
 20
2.41432
 30
0.0
 11
42.9715
 21
2.56177
 31
0.0
  0
LINE
  8
0
 62
     156
 10
42.9715
 20
2.56177
 30
0.0
 11
43.3116
 21
2.71336
 31
0.0
  0
LINE
  8
0
 62
     156
 10
43.3116
 20
2.71336
 30
0.0
 11
43.6506
 21
2.86907
 31
0.0
  0
LINE
  8
0
 62
     156
 10
43.6506
 20
2.86907
 30
0.0
 11
43.9872
 21
3.02755
 31
0.0
  0
LINE
  8
0
 62
     156
 10
43.9872
 20
3.02755
 30
0.0
 11
44.3205
 21
3.19154
 31
0.0
  0
LINE
  8
0
 62
     156
 10
44.3205
 20
3.19154
 30
0.0
 11
44.6525
 21
3.35966
 31
0.0
  0
LINE
  8
0
 62
     156
 10
44.6525
 20
3.35966
 30
0.0
 11
44.982
 21
3.53053
 31
0.0
  0
LINE
  8
0
 62
     156
 10
44.982
 20
3.53053
 30
0.0
 11
45.3101
 21
3.70554
 31
0.0
  0
LINE
  8
0
 62
     156
 10
45.3101
 20
3.70554
 30
0.0
 11
45.6336
 21
3.88468
 31
0.0
  0
LINE
  8
0
 62
     156
 10
45.6336
 20
3.88468
 30
0.0
 11
45.9564
 21
4.06799
 31
0.0
  0
LINE
  8
0
 62
     156
 10
45.9564
 20
4.06799
 30
0.0
 11
46.276
 21
4.25401
 31
0.0
  0
LINE
  8
0
 62
     156
 10
46.276
 20
4.25401
 30
0.0
 11
46.5928
 21
4.44419
 31
0.0
  0
LINE
  8
0
 62
     156
 10
46.5928
 20
4.44419
 30
0.0
 11
46.9085
 21
4.63846
 31
0.0
  0
LINE
  8
0
 62
     156
 10
46.9085
 20
4.63846
 30
0.0
 11
47.2211
 21
4.8369
 31
0.0
  0
LINE
  8
0
 62
     156
 10
47.2211
 20
4.8369
 30
0.0
 11
47.5297
 21
5.03813
 31
0.0
  0
LINE
  8
0
 62
     156
 10
47.5297
 20
5.03813
 30
0.0
 11
47.8374
 21
5.24207
 31
0.0
  0
LINE
  8
0
 62
     156
 10
47.8374
 20
5.24207
 30
0.0
 11
48.1418
 21
5.45151
 31
0.0
  0
LINE
  8
0
 62
     156
 10
48.1418
 20
5.45151
 30
0.0
 11
48.4434
 21
5.66374
 31
0.0
  0
LINE
  8
0
 62
     156
 10
48.4434
 20
5.66374
 30
0.0
 11
48.744
 21
5.87872
 31
0.0
  0
LINE
  8
0
 62
     156
 10
48.744
 20
5.87872
 30
0.0
 11
49.0403
 21
6.09783
 31
0.0
  0
LINE
  8
0
 62
     156
 10
49.0403
 20
6.09783
 30
0.0
 11
49.3339
 21
6.32107
 31
0.0
  0
LINE
  8
0
 62
     156
 10
49.3339
 20
6.32107
 30
0.0
 11
49.6245
 21
6.54706
 31
0.0
  0
LINE
  8
0
 62
     156
 10
49.6245
 20
6.54706
 30
0.0
 11
49.9124
 21
6.7758
 31
0.0
  0
LINE
  8
0
 62
     156
 10
49.9124
 20
6.7758
 30
0.0
 11
50.1978
 21
7.00871
 31
0.0
  0
LINE
  8
0
 62
     156
 10
50.1978
 20
7.00871
 30
0.0
 11
50.4804
 21
7.24436
 31
0.0
  0
LINE
  8
0
 62
     156
 10
50.4804
 20
7.24436
 30
0.0
 11
50.7601
 21
7.48411
 31
0.0
  0
LINE
  8
0
 62
     156
 10
50.7601
 20
7.48411
 30
0.0
 11
51.0371
 21
7.72664
 31
0.0
  0
LINE
  8
0
 62
     156
 10
51.0371
 20
7.72664
 30
0.0
 11
51.3112
 21
7.97334
 31
0.0
  0
LINE
  8
0
 62
     156
 10
51.3112
 20
7.97334
 30
0.0
 11
51.5814
 21
8.22138
 31
0.0
  0
LINE
  8
0
 62
     156
 10
51.5814
 20
8.22138
 30
0.0
 11
51.8502
 21
8.47355
 31
0.0
  0
LINE
  8
0
 62
     156
 10
51.8502
 20
8.47355
 30
0.0
 11
52.1148
 21
8.72987
 31
0.0
  0
LINE
  8
0
 62
     156
 10
52.1148
 20
8.72987
 30
0.0
 11
52.3766
 21
8.98895
 31
0.0
  0
LINE
  8
0
 62
     156
 10
52.3766
 20
8.98895
 30
0.0
 11
52.6341
 21
9.25079
 31
0.0
  0
LINE
  8
0
 62
     156
 10
52.6341
 20
9.25079
 30
0.0
 11
52.8906
 21
9.51537
 31
0.0
  0
LINE
  8
0
 62
     156
 10
52.8906
 20
9.51537
 30
0.0
 11
53.1428
 21
9.7827
 31
0.0
  0
LINE
  8
0
 62
     156
 10
53.1428
 20
9.7827
 30
0.0
 11
53.3922
 21
10.0542
 31
0.0
  0
LINE
  8
0
 62
     156
 10
53.3922
 20
10.0542
 30
0.0
 11
53.6374
 21
10.327
 31
0.0
  0
LINE
  8
0
 62
     156
 10
53.6374
 20
10.327
 30
0.0
 11
53.8797
 21
10.604
 31
0.0
  0
LINE
  8
0
 62
     156
 10
53.8797
 20
10.604
 30
0.0
 11
54.1196
 21
10.8838
 31
0.0
  0
LINE
  8
0
 62
     156
 10
54.1196
 20
10.8838
 30
0.0
 11
54.3553
 21
11.1662
 31
0.0
  0
LINE
  8
0
 62
     156
 10
54.3553
 20
11.1662
 30
0.0
 11
54.5881
 21
11.4515
 31
0.0
  0
LINE
  8
0
 62
     156
 10
54.5881
 20
11.4515
 30
0.0
 11
54.8171
 21
11.7409
 31
0.0
  0
LINE
  8
0
 62
     156
 10
54.8171
 20
11.7409
 30
0.0
 11
55.0429
 21
12.0317
 31
0.0
  0
LINE
  8
0
 62
     156
 10
55.0429
 20
12.0317
 30
0.0
 11
55.2662
 21
12.3252
 31
0.0
  0
LINE
  8
0
 62
     156
 10
55.2662
 20
12.3252
 30
0.0
 11
55.4852
 21
12.6214
 31
0.0
  0
LINE
  8
0
 62
     156
 10
55.4852
 20
12.6214
 30
0.0
 11
55.7004
 21
12.9219
 31
0.0
  0
LINE
  8
0
 62
     156
 10
55.7004
 20
12.9219
 30
0.0
 11
55.9125
 21
13.2237
 31
0.0
  0
LINE
  8
0
 62
     156
 10
55.9125
 20
13.2237
 30
0.0
 11
56.1206
 21
13.5282
 31
0.0
  0
LINE
  8
0
 62
     156
 10
56.1206
 20
13.5282
 30
0.0
 11
56.3259
 21
13.8355
 31
0.0
  0
LINE
  8
0
 62
     156
 10
56.3259
 20
13.8355
 30
0.0
 11
56.527
 21
14.1456
 31
0.0
  0
LINE
  8
0
 62
     156
 10
56.527
 20
14.1456
 30
0.0
 11
56.7242
 21
14.457
 31
0.0
  0
LINE
  8
0
 62
     156
 10
56.7242
 20
14.457
 30
0.0
 11
56.9186
 21
14.7726
 31
0.0
  0
LINE
  8
0
 62
     156
 10
56.9186
 20
14.7726
 30
0.0
 11
57.1087
 21
15.0895
 31
0.0
  0
LINE
  8
0
 62
     156
 10
57.1087
 20
15.0895
 30
0.0
 11
57.2946
 21
15.4092
 31
0.0
  0
LINE
  8
0
 62
     156
 10
57.2946
 20
15.4092
 30
0.0
 11
57.4781
 21
15.7317
 31
0.0
  0
LINE
  8
0
 62
     156
 10
57.4781
 20
15.7317
 30
0.0
 11
57.6573
 21
16.0569
 31
0.0
  0
LINE
  8
0
 62
     156
 10
57.6573
 20
16.0569
 30
0.0
 11
57.8323
 21
16.3835
 31
0.0
  0
LINE
  8
0
 62
     156
 10
57.8323
 20
16.3835
 30
0.0
 11
58.003
 21
16.7128
 31
0.0
  0
LINE
  8
0
 62
     156
 10
58.003
 20
16.7128
 30
0.0
 11
58.1699
 21
17.045
 31
0.0
  0
LINE
  8
0
 62
     156
 10
58.1699
 20
17.045
 30
0.0
 11
58.3336
 21
17.3798
 31
0.0
  0
LINE
  8
0
 62
     156
 10
58.3336
 20
17.3798
 30
0.0
 11
58.4937
 21
17.7161
 31
0.0
  0
LINE
  8
0
 62
     156
 10
58.4937
 20
17.7161
 30
0.0
 11
58.6493
 21
18.0537
 31
0.0
  0
LINE
  8
0
 62
     156
 10
58.6493
 20
18.0537
 30
0.0
 11
58.801
 21
18.3954
 31
0.0
  0
LINE
  8
0
 62
     156
 10
58.801
 20
18.3954
 30
0.0
 11
58.9485
 21
18.7372
 31
0.0
  0
LINE
  8
0
 62
     156
 10
58.9485
 20
18.7372
 30
0.0
 11
59.0917
 21
19.0831
 31
0.0
  0
LINE
  8
0
 62
     156
 10
59.0917
 20
19.0831
 30
0.0
 11
59.2307
 21
19.4303
 31
0.0
  0
LINE
  8
0
 62
     156
 10
59.2307
 20
19.4303
 30
0.0
 11
59.3658
 21
19.779
 31
0.0
  0
LINE
  8
0
 62
     156
 10
59.3658
 20
19.779
 30
0.0
 11
59.4967
 21
20.1304
 31
0.0
  0
LINE
  8
0
 62
     156
 10
59.4967
 20
20.1304
 30
0.0
 11
59.6237
 21
20.4845
 31
0.0
  0
LINE
  8
0
 62
     156
 10
59.6237
 20
20.4845
 30
0.0
 11
59.7461
 21
20.8387
 31
0.0
  0
LINE
  8
0
 62
     156
 10
59.7461
 20
20.8387
 30
0.0
 11
59.8646
 21
21.197
 31
0.0
  0
LINE
  8
0
 62
     156
 10
59.8646
 20
21.197
 30
0.0
 11
59.9793
 21
21.5553
 31
0.0
  0
LINE
  8
0
 62
     156
 10
59.9793
 20
21.5553
 30
0.0
 11
60.0893
 21
21.9163
 31
0.0
  0
LINE
  8
0
 62
     156
 10
60.0893
 20
21.9163
 30
0.0
 11
60.1941
 21
22.2801
 31
0.0
  0
LINE
  8
0
 62
     156
 10
60.1941
 20
22.2801
 30
0.0
 11
60.2961
 21
22.6453
 31
0.0
  0
LINE
  8
0
 62
     156
 10
60.2961
 20
22.6453
 30
0.0
 11
60.3924
 21
23.0119
 31
0.0
  0
LINE
  8
0
 62
     156
 10
60.3924
 20
23.0119
 30
0.0
 11
60.4848
 21
23.3798
 31
0.0
  0
LINE
  8
0
 62
     156
 10
60.4848
 20
23.3798
 30
0.0
 11
60.573
 21
23.7491
 31
0.0
  0
LINE
  8
0
 62
     156
 10
60.573
 20
23.7491
 30
0.0
 11
60.6559
 21
24.1212
 31
0.0
  0
LINE
  8
0
 62
     156
 10
60.6559
 20
24.1212
 30
0.0
 11
60.7342
 21
24.4946
 31
0.0
  0
LINE
  8
0
 62
     156
 10
60.7342
 20
24.4946
 30
0.0
 11
60.8087
 21
24.8708
 31
0.0
  0
LINE
  8
0
 62
     156
 10
60.8087
 20
24.8708
 30
0.0
 11
60.8789
 21
25.247
 31
0.0
  0
LINE
  8
0
 62
     156
 10
60.8789
 20
25.247
 30
0.0
 11
60.9438
 21
25.626
 31
0.0
  0
LINE
  8
0
 62
     156
 10
60.9438
 20
25.626
 30
0.0
 11
61.0044
 21
26.0049
 31
0.0
  0
LINE
  8
0
 62
     156
 10
61.0044
 20
26.0049
 30
0.0
 11
61.0609
 21
26.3867
 31
0.0
  0
LINE
  8
0
 62
     156
 10
61.0609
 20
26.3867
 30
0.0
 11
61.1117
 21
26.7698
 31
0.0
  0
LINE
  8
0
 62
     156
 10
61.1117
 20
26.7698
 30
0.0
 11
61.1572
 21
27.1543
 31
0.0
  0
LINE
  8
0
 62
     156
 10
61.1572
 20
27.1543
 30
0.0
 11
61.1988
 21
27.5401
 31
0.0
  0
LINE
  8
0
 62
     156
 10
61.1988
 20
27.5401
 30
0.0
 11
61.2359
 21
27.9273
 31
0.0
  0
LINE
  8
0
 62
     156
 10
61.2359
 20
27.9273
 30
0.0
 11
61.269
 21
28.3159
 31
0.0
  0
LINE
  8
0
 62
     156
 10
61.269
 20
28.3159
 30
0.0
 11
61.2951
 21
28.7073
 31
0.0
  0
LINE
  8
0
 62
     156
 10
61.2951
 20
28.7073
 30
0.0
 11
61.3174
 21
29.0987
 31
0.0
  0
LINE
  8
0
 62
     156
 10
61.3174
 20
29.0987
 30
0.0
 11
61.335
 21
29.4914
 31
0.0
  0
LINE
  8
0
 62
     156
 10
61.335
 20
29.4914
 30
0.0
 11
61.3473
 21
29.8841
 31
0.0
  0
LINE
  8
0
 62
     156
 10
61.3473
 20
29.8841
 30
0.0
 11
61.3558
 21
30.2796
 31
0.0
  0
LINE
  8
0
 62
     156
 10
61.3558
 20
30.2796
 30
0.0
 11
61.3572
 21
30.6765
 31
0.0
  0
ENDSEC
  0
EOF
