<?xml version="1.0" encoding="UTF-8" standalone="no"?>
<svg
   xmlns:dc="http://purl.org/dc/elements/1.1/"
   xmlns:cc="http://web.resource.org/cc/"
   xmlns:rdf="http://www.w3.org/1999/02/22-rdf-syntax-ns#"
   xmlns:svg="http://www.w3.org/2000/svg"
   xmlns="http://www.w3.org/2000/svg"
   xmlns:xlink="http://www.w3.org/1999/xlink"
   xmlns:sodipodi="http://sodipodi.sourceforge.net/DTD/sodipodi-0.dtd"
   xmlns:inkscape="http://www.inkscape.org/namespaces/inkscape"
   version="1.0"
   x="0.0000000"
   y="0.0000000"
   width="240"
   height="240"
   viewBox="0 0 252.32 252.32"
   xml:space="preserve"
   id="translucent-fedora-logo-with-radial-gradient"
   sodipodi:version="0.32"
   inkscape:version="0.44"
   sodipodi:docname="bubble_big.svg"
   sodipodi:docbase="/home/nicu/Desktop"><metadata
   id="metadata15"><rdf:RDF><cc:Work
       rdf:about=""><dc:format>image/svg+xml</dc:format><dc:type
         rdf:resource="http://purl.org/dc/dcmitype/StillImage" /></cc:Work></rdf:RDF></metadata><defs
   id="defs13"><linearGradient
     id="linearGradient1349"><stop
       style="stop-color:#000001;stop-opacity:1;"
       offset="0"
       id="stop1351" /><stop
       style="stop-color:#003663;stop-opacity:1;"
       offset="1"
       id="stop1353" /></linearGradient><radialGradient
     inkscape:collect="always"
     xlink:href="#linearGradient1349"
     id="radialGradient3113"
     gradientUnits="userSpaceOnUse"
     gradientTransform="matrix(0.934779,2.68766e-2,-2.919437e-2,1.015309,18.24616,-5.699573)"
     cx="115.90415"
     cy="140.93495"
     fx="115.90415"
     fy="140.93495"
     r="126.1585" /></defs><sodipodi:namedview
   inkscape:window-height="787"
   inkscape:window-width="1142"
   inkscape:pageshadow="2"
   inkscape:pageopacity="0"
   borderopacity="1.0"
   bordercolor="#666666"
   pagecolor="#ffffff"
   id="base"
   inkscape:zoom="1"
   inkscape:cx="120"
   inkscape:cy="119.5"
   inkscape:window-x="0"
   inkscape:window-y="24"
   inkscape:current-layer="translucent-fedora-logo-with-radial-gradient" />
     
 <g
   id="g1917"
   transform="translate(1.051766,0.508397)"><path
     id="speech-bubble"
     style="fill:#00325c;fill-opacity:1"
     d="M 239.393,125.65886 C 239.393,62.537043 188.22696,11.366866 125.10959,11.366866 C 62.021228,11.366866 10.869671,62.493561 10.82619,125.57642 L 10.823469,125.57098 L 10.823469,214.01471 L 10.82619,214.02196 C 10.860606,228.34435 22.476742,239.93634 36.811426,239.93634 C 36.852186,239.93634 36.891141,239.93091 36.931901,239.93091 L 36.940064,239.93634 L 125.15581,239.93634 L 125.15581,239.93634 C 188.2505,239.91007 239.393,188.76164 239.393,125.65886 z " /><g
     style="fill:#006ca9;fill-opacity:1"
     transform="matrix(0.905882,0,0,0.905907,10.82347,11.36687)"
     id="f-script">
             <path
   d="M 163.202,29.904 C 130.498,29.904 103.989,56.414 103.989,89.116 C 103.989,89.127 103.989,89.142 103.989,89.157 L 103.989,120.496 L 72.746,120.496 C 72.741,120.496 72.741,120.496 72.738,120.496 C 40.035,120.496 13.526,146.877 13.526,179.577 C 13.526,212.282 40.036,238.791 72.738,238.791 C 105.437,238.791 131.947,212.282 131.947,179.577 C 131.947,179.565 131.947,179.554 131.947,179.536 L 131.947,148.067 L 163.189,148.067 C 163.196,148.067 163.199,148.067 163.202,148.067 C 195.901,148.067 222.411,121.816 222.411,89.116 C 222.411,56.414 195.901,29.904 163.202,29.904 z M 103.989,179.633 C 103.964,196.864 89.979,210.833 72.738,210.833 C 55.479,210.833 41.358,196.841 41.358,179.582 C 41.358,162.317 55.479,148.066 72.738,148.066 C 72.752,148.066 72.766,148.066 72.779,148.066 L 99.558,148.066 C 99.567,148.066 99.572,148.066 99.578,148.066 C 102.016,148.066 103.993,150.039 103.993,152.473 C 103.993,152.478 103.99,152.478 103.99,152.484 L 103.99,179.633 L 103.989,179.633 z M 163.199,120.496 C 163.189,120.496 163.179,120.496 163.17,120.496 L 136.373,120.496 C 136.367,120.496 136.36,120.496 136.357,120.496 C 133.919,120.496 131.947,118.524 131.947,116.084 L 131.947,116.083 L 131.947,89.065 C 131.976,71.824 145.957,57.86 163.199,57.86 C 180.458,57.86 194.582,71.853 194.582,89.115 C 194.582,106.375 180.458,120.496 163.199,120.496 z "
   style="fill:#006ca9;fill-opacity:1"
   id="f-script-path" />
         </g><path
     d="M 105.02524,120.52506 L 105.02524,92.133912 C 105.02524,92.121236 105.02524,92.107645 105.02524,92.096774 C 105.02524,62.471793 129.03927,38.456192 158.66526,38.456192 C 163.15933,38.456192 166.35258,38.962593 170.51238,40.051488 C 176.57907,41.642272 181.53336,46.61207 181.53605,52.397197 C 181.53878,59.390808 176.46222,64.474753 168.87545,64.474753 C 165.26098,64.474753 163.9547,63.782638 158.66252,63.782638 C 143.04331,63.782638 130.37815,76.432734 130.35189,92.051474 L 130.35189,116.52637 L 130.35189,116.52729 C 130.35189,118.7377 132.13829,120.52414 134.34683,120.52414 C 134.34955,120.52414 134.3559,120.52414 134.36132,120.52414 L 152.95184,120.52414 C 159.88003,120.52414 165.47476,126.07102 165.4802,133.01751 C 165.4802,139.96672 159.87732,145.50091 152.95184,145.50091 L 130.35189,145.50091 L 130.35189,174.00891 C 130.35189,174.02521 130.35189,174.03518 130.35189,174.05149 C 130.35189,203.67375 106.33696,227.68845 76.715477,227.68845 C 72.220494,227.68845 69.027254,227.18205 64.867443,226.09224 C 58.800752,224.50237 53.844668,219.52985 53.841947,213.74653 C 53.841947,206.75474 58.914896,201.66897 66.505287,201.66897 C 70.116133,201.66897 71.42604,202.36201 76.715477,202.36201 C 92.334703,202.36201 105.0035,189.71101 105.02795,174.0977 C 105.02795,174.0977 105.02795,149.49868 105.02795,149.49416 C 105.02795,147.28827 103.23701,145.50182 101.02849,145.50182 C 101.02576,145.50182 101.02304,145.50182 101.01852,145.50182 L 82.428879,145.50182 C 75.49889,145.50182 69.899618,139.97307 69.899618,133.02204 C 69.897813,126.03206 75.556864,120.52596 82.560237,120.52596 L 105.02524,120.52596 L 105.02524,120.52506 z "
     style="fill:white"
     id="blue-inifity-connectors" /></g></svg>