  0
SECTION
  2
HEADER
  9
$ACADVER
  1
AC1009
  9
$EXTMIN
 10
0.0
 20
0.0
 30
0.0
  9
$EXTMAX
 10
1000.0
 20
1000.0
 30
0.0
  9
$FILLMODE
 70
 0
  9
$SPLFRAME
 70
 1
  0
ENDSEC
  0
SECTION
  2
TABLES
  0
TABLE
  2
LAYER
 70
1
  0
LAYER
  2
0
 70
     0
 62
     7
  6
CONTINUOUS
  0
ENDTAB
  0
ENDSEC
  0
SECTION
  2
ENTITIES
  0
LINE
  8
0
 62
     1
 10
13.7404
 20
28.7693
 30
0.0
 11
13.7404
 21
36.401
 31
0.0
  0
LINE
  8
0
 62
     1
 10
13.7404
 20
36.401
 30
0.0
 11
13.8135
 21
37.8725
 31
0.0
  0
LINE
  8
0
 62
     1
 10
13.8135
 20
37.8725
 30
0.0
 11
14.0325
 21
39.3016
 31
0.0
  0
LINE
  8
0
 62
     1
 10
14.0325
 20
39.3016
 30
0.0
 11
14.3867
 21
40.6823
 31
0.0
  0
LINE
  8
0
 62
     1
 10
14.3867
 20
40.6823
 30
0.0
 11
14.8718
 21
42.0053
 31
0.0
  0
LINE
  8
0
 62
     1
 10
14.8718
 20
42.0053
 30
0.0
 11
15.4781
 21
43.265
 31
0.0
  0
LINE
  8
0
 62
     1
 10
15.4781
 20
43.265
 30
0.0
 11
16.1988
 21
44.4514
 31
0.0
  0
LINE
  8
0
 62
     1
 10
16.1988
 20
44.4514
 30
0.0
 11
17.027
 21
45.5595
 31
0.0
  0
LINE
  8
0
 62
     1
 10
17.027
 20
45.5595
 30
0.0
 11
17.9572
 21
46.5832
 31
0.0
  0
LINE
  8
0
 62
     1
 10
17.9572
 20
46.5832
 30
0.0
 11
18.9797
 21
47.5121
 31
0.0
  0
LINE
  8
0
 62
     1
 10
18.9797
 20
47.5121
 30
0.0
 11
20.0877
 21
48.3401
 31
0.0
  0
LINE
  8
0
 62
     1
 10
20.0877
 20
48.3401
 30
0.0
 11
21.2755
 21
49.0608
 31
0.0
  0
LINE
  8
0
 62
     1
 10
21.2755
 20
49.0608
 30
0.0
 11
22.5337
 21
49.6672
 31
0.0
  0
LINE
  8
0
 62
     1
 10
22.5337
 20
49.6672
 30
0.0
 11
23.8566
 21
50.1509
 31
0.0
  0
LINE
  8
0
 62
     1
 10
23.8566
 20
50.1509
 30
0.0
 11
25.2374
 21
50.5079
 31
0.0
  0
LINE
  8
0
 62
     1
 10
25.2374
 20
50.5079
 30
0.0
 11
26.6664
 21
50.7242
 31
0.0
  0
LINE
  8
0
 62
     1
 10
26.6664
 20
50.7242
 30
0.0
 11
28.1395
 21
50.7986
 31
0.0
  0
LINE
  8
0
 62
     1
 10
28.1395
 20
50.7986
 30
0.0
 11
28.3614
 21
50.7972
 31
0.0
  0
LINE
  8
0
 62
     1
 10
28.3614
 20
50.7972
 30
0.0
 11
28.5764
 21
50.7929
 31
0.0
  0
LINE
  8
0
 62
     1
 10
28.5764
 20
50.7929
 30
0.0
 11
28.7845
 21
50.7834
 31
0.0
  0
LINE
  8
0
 62
     1
 10
28.7845
 20
50.7834
 30
0.0
 11
28.9884
 21
50.7739
 31
0.0
  0
LINE
  8
0
 62
     1
 10
28.9884
 20
50.7739
 30
0.0
 11
29.1869
 21
50.7601
 31
0.0
  0
LINE
  8
0
 62
     1
 10
29.1869
 20
50.7601
 30
0.0
 11
29.3812
 21
50.7407
 31
0.0
  0
LINE
  8
0
 62
     1
 10
29.3812
 20
50.7407
 30
0.0
 11
29.5727
 21
50.7199
 31
0.0
  0
LINE
  8
0
 62
     1
 10
29.5727
 20
50.7199
 30
0.0
 11
29.7629
 21
50.6938
 31
0.0
  0
LINE
  8
0
 62
     1
 10
29.7629
 20
50.6938
 30
0.0
 11
29.9516
 21
50.6663
 31
0.0
  0
LINE
  8
0
 62
     1
 10
29.9516
 20
50.6663
 30
0.0
 11
30.1405
 21
50.6345
 31
0.0
  0
LINE
  8
0
 62
     1
 10
30.1405
 20
50.6345
 30
0.0
 11
30.3293
 21
50.6003
 31
0.0
  0
LINE
  8
0
 62
     1
 10
30.3293
 20
50.6003
 30
0.0
 11
30.5208
 21
50.5601
 31
0.0
  0
LINE
  8
0
 62
     1
 10
30.5208
 20
50.5601
 30
0.0
 11
30.7151
 21
50.5188
 31
0.0
  0
LINE
  8
0
 62
     1
 10
30.7151
 20
50.5188
 30
0.0
 11
30.9122
 21
50.4719
 31
0.0
  0
LINE
  8
0
 62
     1
 10
30.9122
 20
50.4719
 30
0.0
 11
31.1133
 21
50.4254
 31
0.0
  0
LINE
  8
0
 62
     1
 10
31.1133
 20
50.4254
 30
0.0
 11
31.3187
 21
50.37
 31
0.0
  0
LINE
  8
0
 62
     1
 10
31.3187
 20
50.37
 30
0.0
 11
31.6205
 21
50.2804
 31
0.0
  0
LINE
  8
0
 62
     1
 10
31.6205
 20
50.2804
 30
0.0
 11
31.914
 21
50.1703
 31
0.0
  0
LINE
  8
0
 62
     1
 10
31.914
 20
50.1703
 30
0.0
 11
32.1965
 21
50.0408
 31
0.0
  0
LINE
  8
0
 62
     1
 10
32.1965
 20
50.0408
 30
0.0
 11
32.468
 21
49.8919
 31
0.0
  0
LINE
  8
0
 62
     1
 10
32.468
 20
49.8919
 30
0.0
 11
32.727
 21
49.7251
 31
0.0
  0
LINE
  8
0
 62
     1
 10
32.727
 20
49.7251
 30
0.0
 11
32.9709
 21
49.5445
 31
0.0
  0
LINE
  8
0
 62
     1
 10
32.9709
 20
49.5445
 30
0.0
 11
33.1983
 21
49.3476
 31
0.0
  0
LINE
  8
0
 62
     1
 10
33.1983
 20
49.3476
 30
0.0
 11
33.4092
 21
49.1352
 31
0.0
  0
LINE
  8
0
 62
     1
 10
33.4092
 20
49.1352
 30
0.0
 11
33.6007
 21
48.9119
 31
0.0
  0
LINE
  8
0
 62
     1
 10
33.6007
 20
48.9119
 30
0.0
 11
33.7716
 21
48.6763
 31
0.0
  0
LINE
  8
0
 62
     1
 10
33.7716
 20
48.6763
 30
0.0
 11
33.9204
 21
48.4283
 31
0.0
  0
LINE
  8
0
 62
     1
 10
33.9204
 20
48.4283
 30
0.0
 11
34.0444
 21
48.1707
 31
0.0
  0
LINE
  8
0
 62
     1
 10
34.0444
 20
48.1707
 30
0.0
 11
34.145
 21
47.9019
 31
0.0
  0
LINE
  8
0
 62
     1
 10
34.145
 20
47.9019
 30
0.0
 11
34.2181
 21
47.6278
 31
0.0
  0
LINE
  8
0
 62
     1
 10
34.2181
 20
47.6278
 30
0.0
 11
34.2635
 21
47.3452
 31
0.0
  0
LINE
  8
0
 62
     1
 10
34.2635
 20
47.3452
 30
0.0
 11
34.2787
 21
47.0574
 31
0.0
  0
LINE
  8
0
 62
     1
 10
34.2787
 20
47.0574
 30
0.0
 11
34.2622
 21
46.7099
 31
0.0
  0
LINE
  8
0
 62
     1
 10
34.2622
 20
46.7099
 30
0.0
 11
34.2167
 21
46.3793
 31
0.0
  0
LINE
  8
0
 62
     1
 10
34.2167
 20
46.3793
 30
0.0
 11
34.1395
 21
46.0608
 31
0.0
  0
LINE
  8
0
 62
     1
 10
34.1395
 20
46.0608
 30
0.0
 11
34.0348
 21
45.7577
 31
0.0
  0
LINE
  8
0
 62
     1
 10
34.0348
 20
45.7577
 30
0.0
 11
33.9011
 21
45.4738
 31
0.0
  0
LINE
  8
0
 62
     1
 10
33.9011
 20
45.4738
 30
0.0
 11
33.7399
 21
45.2067
 31
0.0
  0
LINE
  8
0
 62
     1
 10
33.7399
 20
45.2067
 30
0.0
 11
33.5539
 21
44.9598
 31
0.0
  0
LINE
  8
0
 62
     1
 10
33.5539
 20
44.9598
 30
0.0
 11
33.343
 21
44.7326
 31
0.0
  0
LINE
  8
0
 62
     1
 10
33.343
 20
44.7326
 30
0.0
 11
33.1088
 21
44.5273
 31
0.0
  0
LINE
  8
0
 62
     1
 10
33.1088
 20
44.5273
 30
0.0
 11
32.8511
 21
44.3452
 31
0.0
  0
LINE
  8
0
 62
     1
 10
32.8511
 20
44.3452
 30
0.0
 11
32.5713
 21
44.1897
 31
0.0
  0
LINE
  8
0
 62
     1
 10
32.5713
 20
44.1897
 30
0.0
 11
32.2695
 21
44.0588
 31
0.0
  0
LINE
  8
0
 62
     1
 10
32.2695
 20
44.0588
 30
0.0
 11
31.9498
 21
43.954
 31
0.0
  0
LINE
  8
0
 62
     1
 10
31.9498
 20
43.954
 30
0.0
 11
31.6108
 21
43.8781
 31
0.0
  0
LINE
  8
0
 62
     1
 10
31.6108
 20
43.8781
 30
0.0
 11
31.2539
 21
43.8298
 31
0.0
  0
LINE
  8
0
 62
     1
 10
31.2539
 20
43.8298
 30
0.0
 11
30.8805
 21
43.8146
 31
0.0
  0
LINE
  8
0
 62
     1
 10
30.8805
 20
43.8146
 30
0.0
 11
30.7055
 21
43.8161
 31
0.0
  0
LINE
  8
0
 62
     1
 10
30.7055
 20
43.8161
 30
0.0
 11
30.5415
 21
43.8231
 31
0.0
  0
LINE
  8
0
 62
     1
 10
30.5415
 20
43.8231
 30
0.0
 11
30.3885
 21
43.8312
 31
0.0
  0
LINE
  8
0
 62
     1
 10
30.3885
 20
43.8312
 30
0.0
 11
30.2424
 21
43.8436
 31
0.0
  0
LINE
  8
0
 62
     1
 10
30.2424
 20
43.8436
 30
0.0
 11
30.1005
 21
43.8573
 31
0.0
  0
LINE
  8
0
 62
     1
 10
30.1005
 20
43.8573
 30
0.0
 11
29.9599
 21
43.8725
 31
0.0
  0
LINE
  8
0
 62
     1
 10
29.9599
 20
43.8725
 30
0.0
 11
29.8208
 21
43.8891
 31
0.0
  0
LINE
  8
0
 62
     1
 10
29.8208
 20
43.8891
 30
0.0
 11
29.6774
 21
43.9085
 31
0.0
  0
LINE
  8
0
 62
     1
 10
29.6774
 20
43.9085
 30
0.0
 11
29.53
 21
43.9265
 31
0.0
  0
LINE
  8
0
 62
     1
 10
29.53
 20
43.9265
 30
0.0
 11
29.3743
 21
43.9431
 31
0.0
  0
LINE
  8
0
 62
     1
 10
29.3743
 20
43.9431
 30
0.0
 11
29.2075
 21
43.9579
 31
0.0
  0
LINE
  8
0
 62
     1
 10
29.2075
 20
43.9579
 30
0.0
 11
29.0298
 21
43.972
 31
0.0
  0
LINE
  8
0
 62
     1
 10
29.0298
 20
43.972
 30
0.0
 11
28.8355
 21
43.9843
 31
0.0
  0
LINE
  8
0
 62
     1
 10
28.8355
 20
43.9843
 30
0.0
 11
28.6246
 21
43.9924
 31
0.0
  0
LINE
  8
0
 62
     1
 10
28.6246
 20
43.9924
 30
0.0
 11
28.3931
 21
43.9995
 31
0.0
  0
LINE
  8
0
 62
     1
 10
28.3931
 20
43.9995
 30
0.0
 11
28.1382
 21
44.0009
 31
0.0
  0
LINE
  8
0
 62
     1
 10
28.1382
 20
44.0009
 30
0.0
 11
27.3623
 21
43.9607
 31
0.0
  0
LINE
  8
0
 62
     1
 10
27.3623
 20
43.9607
 30
0.0
 11
26.6085
 21
43.8464
 31
0.0
  0
LINE
  8
0
 62
     1
 10
26.6085
 20
43.8464
 30
0.0
 11
25.8809
 21
43.6605
 31
0.0
  0
LINE
  8
0
 62
     1
 10
25.8809
 20
43.6605
 30
0.0
 11
25.1823
 21
43.404
 31
0.0
  0
LINE
  8
0
 62
     1
 10
25.1823
 20
43.404
 30
0.0
 11
24.5194
 21
43.0858
 31
0.0
  0
LINE
  8
0
 62
     1
 10
24.5194
 20
43.0858
 30
0.0
 11
23.8924
 21
42.7055
 31
0.0
  0
LINE
  8
0
 62
     1
 10
23.8924
 20
42.7055
 30
0.0
 11
23.3081
 21
42.2684
 31
0.0
  0
LINE
  8
0
 62
     1
 10
23.3081
 20
42.2684
 30
0.0
 11
22.7693
 21
41.7795
 31
0.0
  0
LINE
  8
0
 62
     1
 10
22.7693
 20
41.7795
 30
0.0
 11
22.2787
 21
41.2404
 31
0.0
  0
LINE
  8
0
 62
     1
 10
22.2787
 20
41.2404
 30
0.0
 11
21.8405
 21
40.6548
 31
0.0
  0
LINE
  8
0
 62
     1
 10
21.8405
 20
40.6548
 30
0.0
 11
21.4602
 21
40.0308
 31
0.0
  0
LINE
  8
0
 62
     1
 10
21.4602
 20
40.0308
 30
0.0
 11
21.1391
 21
39.3679
 31
0.0
  0
LINE
  8
0
 62
     1
 10
21.1391
 20
39.3679
 30
0.0
 11
20.8828
 21
38.669
 31
0.0
  0
LINE
  8
0
 62
     1
 10
20.8828
 20
38.669
 30
0.0
 11
20.6954
 21
37.943
 31
0.0
  0
LINE
  8
0
 62
     1
 10
20.6954
 20
37.943
 30
0.0
 11
20.5796
 21
37.1877
 31
0.0
  0
LINE
  8
0
 62
     1
 10
20.5796
 20
37.1877
 30
0.0
 11
20.5383
 21
36.4134
 31
0.0
  0
LINE
  8
0
 62
     1
 10
20.5383
 20
36.4134
 30
0.0
 11
20.5383
 21
29.8428
 31
0.0
  0
LINE
  8
0
 62
     1
 10
20.5383
 20
29.8428
 30
0.0
 11
20.5438
 21
29.7312
 31
0.0
  0
LINE
  8
0
 62
     1
 10
20.5438
 20
29.7312
 30
0.0
 11
20.5603
 21
29.6265
 31
0.0
  0
LINE
  8
0
 62
     1
 10
20.5603
 20
29.6265
 30
0.0
 11
20.5865
 21
29.5231
 31
0.0
  0
LINE
  8
0
 62
     1
 10
20.5865
 20
29.5231
 30
0.0
 11
20.6223
 21
29.4225
 31
0.0
  0
LINE
  8
0
 62
     1
 10
20.6223
 20
29.4225
 30
0.0
 11
20.6678
 21
29.3302
 31
0.0
  0
LINE
  8
0
 62
     1
 10
20.6678
 20
29.3302
 30
0.0
 11
20.7216
 21
29.242
 31
0.0
  0
LINE
  8
0
 62
     1
 10
20.7216
 20
29.242
 30
0.0
 11
20.7836
 21
29.1579
 31
0.0
  0
LINE
  8
0
 62
     1
 10
20.7836
 20
29.1579
 30
0.0
 11
20.8525
 21
29.0835
 31
0.0
  0
LINE
  8
0
 62
     1
 10
20.8525
 20
29.0835
 30
0.0
 11
20.9283
 21
29.0132
 31
0.0
  0
LINE
  8
0
 62
     1
 10
20.9283
 20
29.0132
 30
0.0
 11
21.011
 21
28.9526
 31
0.0
  0
LINE
  8
0
 62
     1
 10
21.011
 20
28.9526
 30
0.0
 11
21.0991
 21
28.8975
 31
0.0
  0
LINE
  8
0
 62
     1
 10
21.0991
 20
28.8975
 30
0.0
 11
21.1928
 21
28.852
 31
0.0
  0
LINE
  8
0
 62
     1
 10
21.1928
 20
28.852
 30
0.0
 11
21.2921
 21
28.8175
 31
0.0
  0
LINE
  8
0
 62
     1
 10
21.2921
 20
28.8175
 30
0.0
 11
21.394
 21
28.7914
 31
0.0
  0
LINE
  8
0
 62
     1
 10
21.394
 20
28.7914
 30
0.0
 11
21.5015
 21
28.7748
 31
0.0
  0
LINE
  8
0
 62
     1
 10
21.5015
 20
28.7748
 30
0.0
 11
21.6104
 21
28.7693
 31
0.0
  0
LINE
  8
0
 62
     1
 10
21.6104
 20
28.7693
 30
0.0
 11
26.6058
 21
28.7693
 31
0.0
  0
LINE
  8
0
 62
     1
 10
26.6058
 20
28.7693
 30
0.0
 11
26.9489
 21
28.7528
 31
0.0
  0
LINE
  8
0
 62
     1
 10
26.9489
 20
28.7528
 30
0.0
 11
27.2838
 21
28.7018
 31
0.0
  0
LINE
  8
0
 62
     1
 10
27.2838
 20
28.7018
 30
0.0
 11
27.6062
 21
28.6205
 31
0.0
  0
LINE
  8
0
 62
     1
 10
27.6062
 20
28.6205
 30
0.0
 11
27.9149
 21
28.5075
 31
0.0
  0
LINE
  8
0
 62
     1
 10
27.9149
 20
28.5075
 30
0.0
 11
28.2084
 21
28.3656
 31
0.0
  0
LINE
  8
0
 62
     1
 10
28.2084
 20
28.3656
 30
0.0
 11
28.4868
 21
28.2002
 31
0.0
  0
LINE
  8
0
 62
     1
 10
28.4868
 20
28.2002
 30
0.0
 11
28.7445
 21
28.0072
 31
0.0
  0
LINE
  8
0
 62
     1
 10
28.7445
 20
28.0072
 30
0.0
 11
28.9843
 21
27.7909
 31
0.0
  0
LINE
  8
0
 62
     1
 10
28.9843
 20
27.7909
 30
0.0
 11
29.2006
 21
27.5539
 31
0.0
  0
LINE
  8
0
 62
     1
 10
29.2006
 20
27.5539
 30
0.0
 11
29.3935
 21
27.2948
 31
0.0
  0
LINE
  8
0
 62
     1
 10
29.3935
 20
27.2948
 30
0.0
 11
29.5617
 21
27.0206
 31
0.0
  0
LINE
  8
0
 62
     1
 10
29.5617
 20
27.0206
 30
0.0
 11
29.7036
 21
26.727
 31
0.0
  0
LINE
  8
0
 62
     1
 10
29.7036
 20
26.727
 30
0.0
 11
29.8166
 21
26.4184
 31
0.0
  0
LINE
  8
0
 62
     1
 10
29.8166
 20
26.4184
 30
0.0
 11
29.8993
 21
26.0959
 31
0.0
  0
LINE
  8
0
 62
     1
 10
29.8993
 20
26.0959
 30
0.0
 11
29.9503
 21
25.761
 31
0.0
  0
LINE
  8
0
 62
     1
 10
29.9503
 20
25.761
 30
0.0
 11
29.9682
 21
25.4138
 31
0.0
  0
LINE
  8
0
 62
     1
 10
29.9682
 20
25.4138
 30
0.0
 11
29.9516
 21
25.0706
 31
0.0
  0
LINE
  8
0
 62
     1
 10
29.9516
 20
25.0706
 30
0.0
 11
29.9007
 21
24.7344
 31
0.0
  0
LINE
  8
0
 62
     1
 10
29.9007
 20
24.7344
 30
0.0
 11
29.818
 21
24.4119
 31
0.0
  0
LINE
  8
0
 62
     1
 10
29.818
 20
24.4119
 30
0.0
 11
29.705
 21
24.1033
 31
0.0
  0
LINE
  8
0
 62
     1
 10
29.705
 20
24.1033
 30
0.0
 11
29.5631
 21
23.8111
 31
0.0
  0
LINE
  8
0
 62
     1
 10
29.5631
 20
23.8111
 30
0.0
 11
29.3949
 21
23.5355
 31
0.0
  0
LINE
  8
0
 62
     1
 10
29.3949
 20
23.5355
 30
0.0
 11
29.2006
 21
23.2778
 31
0.0
  0
LINE
  8
0
 62
     1
 10
29.2006
 20
23.2778
 30
0.0
 11
28.9843
 21
23.0408
 31
0.0
  0
LINE
  8
0
 62
     1
 10
28.9843
 20
23.0408
 30
0.0
 11
28.7459
 21
22.8244
 31
0.0
  0
LINE
  8
0
 62
     1
 10
28.7459
 20
22.8244
 30
0.0
 11
28.4868
 21
22.6315
 31
0.0
  0
LINE
  8
0
 62
     1
 10
28.4868
 20
22.6315
 30
0.0
 11
28.2084
 21
22.4662
 31
0.0
  0
LINE
  8
0
 62
     1
 10
28.2084
 20
22.4662
 30
0.0
 11
27.9149
 21
22.3242
 31
0.0
  0
LINE
  8
0
 62
     1
 10
27.9149
 20
22.3242
 30
0.0
 11
27.6062
 21
22.214
 31
0.0
  0
LINE
  8
0
 62
     1
 10
27.6062
 20
22.214
 30
0.0
 11
27.2838
 21
22.1327
 31
0.0
  0
LINE
  8
0
 62
     1
 10
27.2838
 20
22.1327
 30
0.0
 11
26.9489
 21
22.0817
 31
0.0
  0
LINE
  8
0
 62
     1
 10
26.9489
 20
22.0817
 30
0.0
 11
26.6058
 21
22.0652
 31
0.0
  0
LINE
  8
0
 62
     1
 10
26.6058
 20
22.0652
 30
0.0
 11
20.5383
 21
22.0652
 31
0.0
  0
LINE
  8
0
 62
     1
 10
20.5383
 20
22.0652
 30
0.0
 11
20.5383
 21
14.3991
 31
0.0
  0
LINE
  8
0
 62
     1
 10
20.5383
 20
14.3991
 30
0.0
 11
20.4639
 21
12.9274
 31
0.0
  0
LINE
  8
0
 62
     1
 10
20.4639
 20
12.9274
 30
0.0
 11
20.2461
 21
11.497
 31
0.0
  0
LINE
  8
0
 62
     1
 10
20.2461
 20
11.497
 30
0.0
 11
19.8906
 21
10.1176
 31
0.0
  0
LINE
  8
0
 62
     1
 10
19.8906
 20
10.1176
 30
0.0
 11
19.4069
 21
8.79464
 31
0.0
  0
LINE
  8
0
 62
     1
 10
19.4069
 20
8.79464
 30
0.0
 11
18.8006
 21
7.5365
 31
0.0
  0
LINE
  8
0
 62
     1
 10
18.8006
 20
7.5365
 30
0.0
 11
18.0799
 21
6.34725
 31
0.0
  0
LINE
  8
0
 62
     1
 10
18.0799
 20
6.34725
 30
0.0
 11
17.2503
 21
5.24069
 31
0.0
  0
LINE
  8
0
 62
     1
 10
17.2503
 20
5.24069
 30
0.0
 11
16.3215
 21
4.21679
 31
0.0
  0
LINE
  8
0
 62
     1
 10
16.3215
 20
4.21679
 30
0.0
 11
15.299
 21
3.288
 31
0.0
  0
LINE
  8
0
 62
     1
 10
15.299
 20
3.288
 30
0.0
 11
14.1897
 21
2.4598
 31
0.0
  0
LINE
  8
0
 62
     1
 10
14.1897
 20
2.4598
 30
0.0
 11
13.0032
 21
1.73909
 31
0.0
  0
LINE
  8
0
 62
     1
 10
13.0032
 20
1.73909
 30
0.0
 11
11.745
 21
1.13137
 31
0.0
  0
LINE
  8
0
 62
     1
 10
11.745
 20
1.13137
 30
0.0
 11
10.4221
 21
0.646299
 31
0.0
  0
LINE
  8
0
 62
     1
 10
10.4221
 20
0.646299
 30
0.0
 11
9.04131
 21
0.292144
 31
0.0
  0
LINE
  8
0
 62
     1
 10
9.04131
 20
0.292144
 30
0.0
 11
7.61227
 21
0.0730359
 31
0.0
  0
LINE
  8
0
 62
     1
 10
7.61227
 20
0.0730359
 30
0.0
 11
6.14056
 21
-0.00137804
 31
0.0
  0
LINE
  8
0
 62
     1
 10
6.14056
 20
-0.00137804
 30
0.0
 11
5.91728
 21
0.00275608
 31
0.0
  0
LINE
  8
0
 62
     1
 10
5.91728
 20
0.00275608
 30
0.0
 11
5.70234
 21
0.00689021
 31
0.0
  0
LINE
  8
0
 62
     1
 10
5.70234
 20
0.00689021
 30
0.0
 11
5.49423
 21
0.0137804
 31
0.0
  0
LINE
  8
0
 62
     1
 10
5.49423
 20
0.0137804
 30
0.0
 11
5.29167
 21
0.0248047
 31
0.0
  0
LINE
  8
0
 62
     1
 10
5.29167
 20
0.0248047
 30
0.0
 11
5.09323
 21
0.039963
 31
0.0
  0
LINE
  8
0
 62
     1
 10
5.09323
 20
0.039963
 30
0.0
 11
4.89754
 21
0.0578778
 31
0.0
  0
LINE
  8
0
 62
     1
 10
4.89754
 20
0.0578778
 30
0.0
 11
4.70598
 21
0.0799264
 31
0.0
  0
LINE
  8
0
 62
     1
 10
4.70598
 20
0.0799264
 30
0.0
 11
4.51584
 21
0.104731
 31
0.0
  0
LINE
  8
0
 62
     1
 10
4.51584
 20
0.104731
 30
0.0
 11
4.32703
 21
0.13367
 31
0.0
  0
LINE
  8
0
 62
     1
 10
4.32703
 20
0.13367
 30
0.0
 11
4.13826
 21
0.165365
 31
0.0
  0
LINE
  8
0
 62
     1
 10
4.13826
 20
0.165365
 30
0.0
 11
3.94945
 21
0.199815
 31
0.0
  0
LINE
  8
0
 62
     1
 10
3.94945
 20
0.199815
 30
0.0
 11
3.75789
 21
0.238401
 31
0.0
  0
LINE
  8
0
 62
     1
 10
3.75789
 20
0.238401
 30
0.0
 11
3.565
 21
0.28112
 31
0.0
  0
LINE
  8
0
 62
     1
 10
3.565
 20
0.28112
 30
0.0
 11
3.36793
 21
0.326595
 31
0.0
  0
LINE
  8
0
 62
     1
 10
3.36793
 20
0.326595
 30
0.0
 11
3.16673
 21
0.376206
 31
0.0
  0
LINE
  8
0
 62
     1
 10
3.16673
 20
0.376206
 30
0.0
 11
2.96003
 21
0.428569
 31
0.0
  0
LINE
  8
0
 62
     1
 10
2.96003
 20
0.428569
 30
0.0
 11
2.65824
 21
0.519522
 31
0.0
  0
LINE
  8
0
 62
     1
 10
2.65824
 20
0.519522
 30
0.0
 11
2.36472
 21
0.628385
 31
0.0
  0
LINE
  8
0
 62
     1
 10
2.36472
 20
0.628385
 30
0.0
 11
2.08221
 21
0.759298
 31
0.0
  0
LINE
  8
0
 62
     1
 10
2.08221
 20
0.759298
 30
0.0
 11
1.81074
 21
0.906748
 31
0.0
  0
LINE
  8
0
 62
     1
 10
1.81074
 20
0.906748
 30
0.0
 11
1.55167
 21
1.07211
 31
0.0
  0
LINE
  8
0
 62
     1
 10
1.55167
 20
1.07211
 30
0.0
 11
1.30776
 21
1.25539
 31
0.0
  0
LINE
  8
0
 62
     1
 10
1.30776
 20
1.25539
 30
0.0
 11
1.08038
 21
1.45107
 31
0.0
  0
LINE
  8
0
 62
     1
 10
1.08038
 20
1.45107
 30
0.0
 11
0.869541
 21
1.66467
 31
0.0
  0
LINE
  8
0
 62
     1
 10
0.869541
 20
1.66467
 30
0.0
 11
0.677997
 21
1.88791
 31
0.0
  0
LINE
  8
0
 62
     1
 10
0.677997
 20
1.88791
 30
0.0
 11
0.507118
 21
2.12494
 31
0.0
  0
LINE
  8
0
 62
     1
 10
0.507118
 20
2.12494
 30
0.0
 11
0.358292
 21
2.37298
 31
0.0
  0
LINE
  8
0
 62
     1
 10
0.358292
 20
2.37298
 30
0.0
 11
0.234267
 21
2.6293
 31
0.0
  0
LINE
  8
0
 62
     1
 10
0.234267
 20
2.6293
 30
0.0
 11
0.13367
 21
2.89801
 31
0.0
  0
LINE
  8
0
 62
     1
 10
0.13367
 20
2.89801
 30
0.0
 11
0.0606337
 21
3.17087
 31
0.0
  0
LINE
  8
0
 62
     1
 10
0.0606337
 20
3.17087
 30
0.0
 11
0.0151584
 21
3.45336
 31
0.0
  0
LINE
  8
0
 62
     1
 10
0.0151584
 20
3.45336
 30
0.0
 11
0
 21
3.74276
 31
0.0
  0
LINE
  8
0
 62
     1
 10
0
 20
3.74276
 30
0.0
 11
0.0151584
 21
4.08862
 31
0.0
  0
LINE
  8
0
 62
     1
 10
0.0151584
 20
4.08862
 30
0.0
 11
0.0620116
 21
4.41935
 31
0.0
  0
LINE
  8
0
 62
     1
 10
0.0620116
 20
4.41935
 30
0.0
 11
0.139182
 21
4.73908
 31
0.0
  0
LINE
  8
0
 62
     1
 10
0.139182
 20
4.73908
 30
0.0
 11
0.245291
 21
5.04088
 31
0.0
  0
LINE
  8
0
 62
     1
 10
0.245291
 20
5.04088
 30
0.0
 11
0.377582
 21
5.32751
 31
0.0
  0
LINE
  8
0
 62
     1
 10
0.377582
 20
5.32751
 30
0.0
 11
0.538812
 21
5.59347
 31
0.0
  0
LINE
  8
0
 62
     1
 10
0.538812
 20
5.59347
 30
0.0
 11
0.724849
 21
5.84151
 31
0.0
  0
LINE
  8
0
 62
     1
 10
0.724849
 20
5.84151
 30
0.0
 11
0.935687
 21
6.06612
 31
0.0
  0
LINE
  8
0
 62
     1
 10
0.935687
 20
6.06612
 30
0.0
 11
1.16996
 21
6.27144
 31
0.0
  0
LINE
  8
0
 62
     1
 10
1.16996
 20
6.27144
 30
0.0
 11
1.42903
 21
6.45474
 31
0.0
  0
LINE
  8
0
 62
     1
 10
1.42903
 20
6.45474
 30
0.0
 11
1.70739
 21
6.61046
 31
0.0
  0
LINE
  8
0
 62
     1
 10
1.70739
 20
6.61046
 30
0.0
 11
2.00918
 21
6.74275
 31
0.0
  0
LINE
  8
0
 62
     1
 10
2.00918
 20
6.74275
 30
0.0
 11
2.32888
 21
6.84611
 31
0.0
  0
LINE
  8
0
 62
     1
 10
2.32888
 20
6.84611
 30
0.0
 11
2.66788
 21
6.92189
 31
0.0
  0
LINE
  8
0
 62
     1
 10
2.66788
 20
6.92189
 30
0.0
 11
3.02479
 21
6.97011
 31
0.0
  0
LINE
  8
0
 62
     1
 10
3.02479
 20
6.97011
 30
0.0
 11
3.39962
 21
6.98528
 31
0.0
  0
LINE
  8
0
 62
     1
 10
3.39962
 20
6.98528
 30
0.0
 11
3.57463
 21
6.98115
 31
0.0
  0
LINE
  8
0
 62
     1
 10
3.57463
 20
6.98115
 30
0.0
 11
3.73726
 21
6.97699
 31
0.0
  0
LINE
  8
0
 62
     1
 10
3.73726
 20
6.97699
 30
0.0
 11
3.89019
 21
6.96874
 31
0.0
  0
LINE
  8
0
 62
     1
 10
3.89019
 20
6.96874
 30
0.0
 11
4.03627
 21
6.95635
 31
0.0
  0
LINE
  8
0
 62
     1
 10
4.03627
 20
6.95635
 30
0.0
 11
4.17823
 21
6.94256
 31
0.0
  0
LINE
  8
0
 62
     1
 10
4.17823
 20
6.94256
 30
0.0
 11
4.31878
 21
6.92602
 31
0.0
  0
LINE
  8
0
 62
     1
 10
4.31878
 20
6.92602
 30
0.0
 11
4.45795
 21
6.90809
 31
0.0
  0
LINE
  8
0
 62
     1
 10
4.45795
 20
6.90809
 30
0.0
 11
4.60128
 21
6.89158
 31
0.0
  0
LINE
  8
0
 62
     1
 10
4.60128
 20
6.89158
 30
0.0
 11
4.74871
 21
6.87504
 31
0.0
  0
LINE
  8
0
 62
     1
 10
4.74871
 20
6.87504
 30
0.0
 11
4.90442
 21
6.85849
 31
0.0
  0
LINE
  8
0
 62
     1
 10
4.90442
 20
6.85849
 30
0.0
 11
5.07118
 21
6.84195
 31
0.0
  0
LINE
  8
0
 62
     1
 10
5.07118
 20
6.84195
 30
0.0
 11
5.24895
 21
6.82819
 31
0.0
  0
LINE
  8
0
 62
     1
 10
5.24895
 20
6.82819
 30
0.0
 11
5.44326
 21
6.81577
 31
0.0
  0
LINE
  8
0
 62
     1
 10
5.44326
 20
6.81577
 30
0.0
 11
5.65408
 21
6.80752
 31
0.0
  0
LINE
  8
0
 62
     1
 10
5.65408
 20
6.80752
 30
0.0
 11
5.8856
 21
6.8006
 31
0.0
  0
LINE
  8
0
 62
     1
 10
5.8856
 20
6.8006
 30
0.0
 11
6.14056
 21
6.79923
 31
0.0
  0
LINE
  8
0
 62
     1
 10
6.14056
 20
6.79923
 30
0.0
 11
6.91638
 21
6.83782
 31
0.0
  0
LINE
  8
0
 62
     1
 10
6.91638
 20
6.83782
 30
0.0
 11
7.67017
 21
6.95219
 31
0.0
  0
LINE
  8
0
 62
     1
 10
7.67017
 20
6.95219
 30
0.0
 11
8.39777
 21
7.13962
 31
0.0
  0
LINE
  8
0
 62
     1
 10
8.39777
 20
7.13962
 30
0.0
 11
9.09507
 21
7.39592
 31
0.0
  0
LINE
  8
0
 62
     1
 10
9.09507
 20
7.39592
 30
0.0
 11
9.75928
 21
7.71289
 31
0.0
  0
LINE
  8
0
 62
     1
 10
9.75928
 20
7.71289
 30
0.0
 11
10.3863
 21
8.09459
 31
0.0
  0
LINE
  8
0
 62
     1
 10
10.3863
 20
8.09459
 30
0.0
 11
10.9706
 21
8.53144
 31
0.0
  0
LINE
  8
0
 62
     1
 10
10.9706
 20
8.53144
 30
0.0
 11
11.5108
 21
9.02063
 31
0.0
  0
LINE
  8
0
 62
     1
 10
11.5108
 20
9.02063
 30
0.0
 11
12.0013
 21
9.55947
 31
0.0
  0
LINE
  8
0
 62
     1
 10
12.0013
 20
9.55947
 30
0.0
 11
12.4382
 21
10.1437
 31
0.0
  0
LINE
  8
0
 62
     1
 10
12.4382
 20
10.1437
 30
0.0
 11
12.8199
 21
10.7694
 31
0.0
  0
LINE
  8
0
 62
     1
 10
12.8199
 20
10.7694
 30
0.0
 11
13.1396
 21
11.4308
 31
0.0
  0
LINE
  8
0
 62
     1
 10
13.1396
 20
11.4308
 30
0.0
 11
13.3959
 21
12.1295
 31
0.0
  0
LINE
  8
0
 62
     1
 10
13.3959
 20
12.1295
 30
0.0
 11
13.5833
 21
12.8571
 31
0.0
  0
LINE
  8
0
 62
     1
 10
13.5833
 20
12.8571
 30
0.0
 11
13.7004
 21
13.6095
 31
0.0
  0
LINE
  8
0
 62
     1
 10
13.7004
 20
13.6095
 30
0.0
 11
13.7404
 21
14.3853
 31
0.0
  0
LINE
  8
0
 62
     1
 10
13.7404
 20
14.3853
 30
0.0
 11
13.7404
 21
20.9917
 31
0.0
  0
LINE
  8
0
 62
     1
 10
13.7404
 20
20.9917
 30
0.0
 11
13.7349
 21
21.1005
 31
0.0
  0
LINE
  8
0
 62
     1
 10
13.7349
 20
21.1005
 30
0.0
 11
13.7184
 21
21.2066
 31
0.0
  0
LINE
  8
0
 62
     1
 10
13.7184
 20
21.2066
 30
0.0
 11
13.6922
 21
21.3086
 31
0.0
  0
LINE
  8
0
 62
     1
 10
13.6922
 20
21.3086
 30
0.0
 11
13.6563
 21
21.4078
 31
0.0
  0
LINE
  8
0
 62
     1
 10
13.6563
 20
21.4078
 30
0.0
 11
13.6109
 21
21.5001
 31
0.0
  0
LINE
  8
0
 62
     1
 10
13.6109
 20
21.5001
 30
0.0
 11
13.5571
 21
21.5897
 31
0.0
  0
LINE
  8
0
 62
     1
 10
13.5571
 20
21.5897
 30
0.0
 11
13.4951
 21
21.6724
 31
0.0
  0
LINE
  8
0
 62
     1
 10
13.4951
 20
21.6724
 30
0.0
 11
13.4262
 21
21.7496
 31
0.0
  0
LINE
  8
0
 62
     1
 10
13.4262
 20
21.7496
 30
0.0
 11
13.349
 21
21.8185
 31
0.0
  0
LINE
  8
0
 62
     1
 10
13.349
 20
21.8185
 30
0.0
 11
13.2678
 21
21.8805
 31
0.0
  0
LINE
  8
0
 62
     1
 10
13.2678
 20
21.8805
 30
0.0
 11
13.1782
 21
21.9342
 31
0.0
  0
LINE
  8
0
 62
     1
 10
13.1782
 20
21.9342
 30
0.0
 11
13.0845
 21
21.9783
 31
0.0
  0
LINE
  8
0
 62
     1
 10
13.0845
 20
21.9783
 30
0.0
 11
12.9866
 21
22.0141
 31
0.0
  0
LINE
  8
0
 62
     1
 10
12.9866
 20
22.0141
 30
0.0
 11
12.8833
 21
22.0417
 31
0.0
  0
LINE
  8
0
 62
     1
 10
12.8833
 20
22.0417
 30
0.0
 11
12.7772
 21
22.0569
 31
0.0
  0
LINE
  8
0
 62
     1
 10
12.7772
 20
22.0569
 30
0.0
 11
12.6669
 21
22.061
 31
0.0
  0
LINE
  8
0
 62
     1
 10
12.6669
 20
22.061
 30
0.0
 11
7.67429
 21
22.061
 31
0.0
  0
LINE
  8
0
 62
     1
 10
7.67429
 20
22.061
 30
0.0
 11
7.32977
 21
22.0803
 31
0.0
  0
LINE
  8
0
 62
     1
 10
7.32977
 20
22.0803
 30
0.0
 11
6.99491
 21
22.1299
 31
0.0
  0
LINE
  8
0
 62
     1
 10
6.99491
 20
22.1299
 30
0.0
 11
6.67247
 21
22.2126
 31
0.0
  0
LINE
  8
0
 62
     1
 10
6.67247
 20
22.2126
 30
0.0
 11
6.36379
 21
22.3228
 31
0.0
  0
LINE
  8
0
 62
     1
 10
6.36379
 20
22.3228
 30
0.0
 11
6.06887
 21
22.4634
 31
0.0
  0
LINE
  8
0
 62
     1
 10
6.06887
 20
22.4634
 30
0.0
 11
5.79191
 21
22.6315
 31
0.0
  0
LINE
  8
0
 62
     1
 10
5.79191
 20
22.6315
 30
0.0
 11
5.53283
 21
22.8231
 31
0.0
  0
LINE
  8
0
 62
     1
 10
5.53283
 20
22.8231
 30
0.0
 11
5.29442
 21
23.038
 31
0.0
  0
LINE
  8
0
 62
     1
 10
5.29442
 20
23.038
 30
0.0
 11
5.07806
 21
23.2751
 31
0.0
  0
LINE
  8
0
 62
     1
 10
5.07806
 20
23.2751
 30
0.0
 11
4.88378
 21
23.5314
 31
0.0
  0
LINE
  8
0
 62
     1
 10
4.88378
 20
23.5314
 30
0.0
 11
4.71565
 21
23.8084
 31
0.0
  0
LINE
  8
0
 62
     1
 10
4.71565
 20
23.8084
 30
0.0
 11
4.5751
 21
24.1019
 31
0.0
  0
LINE
  8
0
 62
     1
 10
4.5751
 20
24.1019
 30
0.0
 11
4.46207
 21
24.4106
 31
0.0
  0
LINE
  8
0
 62
     1
 10
4.46207
 20
24.4106
 30
0.0
 11
4.37942
 21
24.733
 31
0.0
  0
LINE
  8
0
 62
     1
 10
4.37942
 20
24.733
 30
0.0
 11
4.32841
 21
25.0679
 31
0.0
  0
LINE
  8
0
 62
     1
 10
4.32841
 20
25.0679
 30
0.0
 11
4.31052
 21
25.411
 31
0.0
  0
LINE
  8
0
 62
     1
 10
4.31052
 20
25.411
 30
0.0
 11
4.32841
 21
25.7597
 31
0.0
  0
LINE
  8
0
 62
     1
 10
4.32841
 20
25.7597
 30
0.0
 11
4.37942
 21
26.0959
 31
0.0
  0
LINE
  8
0
 62
     1
 10
4.37942
 20
26.0959
 30
0.0
 11
4.46345
 21
26.4197
 31
0.0
  0
LINE
  8
0
 62
     1
 10
4.46345
 20
26.4197
 30
0.0
 11
4.57648
 21
26.7284
 31
0.0
  0
LINE
  8
0
 62
     1
 10
4.57648
 20
26.7284
 30
0.0
 11
4.71978
 21
27.022
 31
0.0
  0
LINE
  8
0
 62
     1
 10
4.71978
 20
27.022
 30
0.0
 11
4.89066
 21
27.2989
 31
0.0
  0
LINE
  8
0
 62
     1
 10
4.89066
 20
27.2989
 30
0.0
 11
5.08497
 21
27.5566
 31
0.0
  0
LINE
  8
0
 62
     1
 10
5.08497
 20
27.5566
 30
0.0
 11
5.30408
 21
27.7923
 31
0.0
  0
LINE
  8
0
 62
     1
 10
5.30408
 20
27.7923
 30
0.0
 11
5.54662
 21
28.0086
 31
0.0
  0
LINE
  8
0
 62
     1
 10
5.54662
 20
28.0086
 30
0.0
 11
5.80704
 21
28.2002
 31
0.0
  0
LINE
  8
0
 62
     1
 10
5.80704
 20
28.2002
 30
0.0
 11
6.08817
 21
28.3656
 31
0.0
  0
LINE
  8
0
 62
     1
 10
6.08817
 20
28.3656
 30
0.0
 11
6.38447
 21
28.5075
 31
0.0
  0
LINE
  8
0
 62
     1
 10
6.38447
 20
28.5075
 30
0.0
 11
6.69727
 21
28.6177
 31
0.0
  0
LINE
  8
0
 62
     1
 10
6.69727
 20
28.6177
 30
0.0
 11
7.02388
 21
28.7004
 31
0.0
  0
LINE
  8
0
 62
     1
 10
7.02388
 20
28.7004
 30
0.0
 11
7.36148
 21
28.7486
 31
0.0
  0
LINE
  8
0
 62
     1
 10
7.36148
 20
28.7486
 30
0.0
 11
7.70876
 21
28.7679
 31
0.0
  0
LINE
  8
0
 62
     1
 10
7.70876
 20
28.7679
 30
0.0
 11
13.7404
 21
28.7679
 31
0.0
  0
LINE
  8
0
 62
     1
 10
13.7404
 20
28.7679
 30
0.0
 11
13.7404
 21
28.7693
 31
0.0
  0
ENDSEC
  0
EOF
