<?xml version="1.0" encoding="UTF-8" standalone="no"?>
<svg
   xmlns:dc="http://purl.org/dc/elements/1.1/"
   xmlns:cc="http://creativecommons.org/ns#"
   xmlns:rdf="http://www.w3.org/1999/02/22-rdf-syntax-ns#"
   xmlns:svg="http://www.w3.org/2000/svg"
   xmlns="http://www.w3.org/2000/svg"
   xmlns:xlink="http://www.w3.org/1999/xlink"
   xmlns:sodipodi="http://sodipodi.sourceforge.net/DTD/sodipodi-0.dtd"
   xmlns:inkscape="http://www.inkscape.org/namespaces/inkscape"
   version="1.0"
   x="0.0000000"
   y="0.0000000"
   width="240"
   height="240"
   viewBox="0 0 252.32 252.32"
   xml:space="preserve"
   id="translucent-fedora-logo-with-radial-gradient"
   sodipodi:version="0.32"
   inkscape:version="0.91 r13725"
   sodipodi:docname="f.nc.svg"><metadata
     id="metadata15"><rdf:RDF><cc:Work
         rdf:about=""><dc:format>image/svg+xml</dc:format><dc:type
           rdf:resource="http://purl.org/dc/dcmitype/StillImage" /><dc:title></dc:title></cc:Work></rdf:RDF></metadata><defs
     id="defs13"><linearGradient
       id="linearGradient1349"><stop
         style="stop-color:#000001;stop-opacity:1;"
         offset="0"
         id="stop1351" /><stop
         style="stop-color:#003663;stop-opacity:1;"
         offset="1"
         id="stop1353" /></linearGradient><radialGradient
       inkscape:collect="always"
       xlink:href="#linearGradient1349"
       id="radialGradient3113"
       gradientUnits="userSpaceOnUse"
       gradientTransform="matrix(0.934779,2.68766e-2,-2.919437e-2,1.015309,18.24616,-5.699573)"
       cx="115.90415"
       cy="140.93495"
       fx="115.90415"
       fy="140.93495"
       r="126.1585" /></defs><sodipodi:namedview
     inkscape:window-height="787"
     inkscape:window-width="1142"
     inkscape:pageshadow="2"
     inkscape:pageopacity="0"
     borderopacity="1.0"
     bordercolor="#666666"
     pagecolor="#ffffff"
     id="base"
     inkscape:zoom="2"
     inkscape:cx="48.58003"
     inkscape:cy="108.68817"
     inkscape:window-x="72"
     inkscape:window-y="24"
     inkscape:current-layer="translucent-fedora-logo-with-radial-gradient"
     showgrid="false"
     inkscape:window-maximized="0" /><path
     inkscape:connector-curvature="0"
     id="blue-inifity-connectors"
     style="fill:#ff0000"
     d="m 106.07701,121.03346 0,-1.77445 0,-1.77444 0,-1.77445 0,-1.77445 0,-1.77444 0,-1.77445 0,-1.77445 0,-1.77445 0,-1.77444 0,-1.77445 0,-1.77445 0,-1.774443 0,-1.774447 0,-1.774447 0,-1.774447 0,-1.774447 0,-0.0023 0,-0.0023 0,-0.0023 0,-0.0023 0,-0.0023 0,-0.0023 0,-0.0023 0,-0.0023 0,-0.0023 0,-0.0023 0,-0.0023 0,-0.0023 0,-0.0023 0,-0.0023 0,-0.0023 0,-0.0023 0.27692,-5.484455 0.8128,-5.326024 1.32171,-5.140628 1.80367,-4.928273 2.25867,-4.688953 2.68673,-4.422673 3.08781,-4.129429 3.46195,-3.809224 3.80913,-3.462056 4.12936,-3.087926 4.42262,-2.686834 4.68893,-2.258779 4.92829,-1.803763 5.14069,-1.321783 5.32612,-0.812843 5.48462,-0.276939 0.82795,0.006 0.80078,0.01793 0.77693,0.03003 0.75642,0.04223 0.73921,0.05454 0.72532,0.06697 0.71477,0.07951 0.70753,0.09215 0.70361,0.104916 0.70302,0.117788 0.70574,0.130771 0.71179,0.143866 0.72116,0.157073 0.73384,0.17039 0.74986,0.18382 0.76919,0.19736 1.12353,0.337244 1.09184,0.412684 1.05451,0.484369 1.01157,0.552299 0.96301,0.616472 0.90881,0.676891 0.849,0.733555 0.78356,0.786462 0.7125,0.835615 0.63582,0.881011 0.5535,0.922654 0.46556,0.96054 0.37202,0.99467 0.27282,1.025046 0.16803,1.051666 0.0576,1.074531 -0.0583,1.288148 -0.17363,1.238741 -0.28517,1.184683 -0.39292,1.125976 -0.49693,1.062619 -0.59717,0.994611 -0.69363,0.921956 -0.78635,0.844648 -0.87528,0.762692 -0.96047,0.676086 -1.04187,0.58483 -1.11953,0.488924 -1.19341,0.388369 -1.26353,0.283163 -1.32989,0.173307 -1.39248,0.0588 -0.6522,-0.0078 -0.60732,-0.02197 -0.57167,-0.03413 -0.54522,-0.04427 -0.52801,-0.05238 -0.52001,-0.05846 -0.52122,-0.06252 -0.53167,-0.06455 -0.55133,-0.06455 -0.58021,-0.06252 -0.61832,-0.05846 -0.66563,-0.05238 -0.72217,-0.04427 -0.78793,-0.03413 -0.86291,-0.02197 -0.94711,-0.0078 -2.89162,0.14588 -2.8082,0.428184 -2.71059,0.696308 -2.59879,0.950248 -2.47281,1.190008 -2.33264,1.415586 -2.17828,1.626981 -2.00974,1.824196 -1.82701,2.007227 -1.6301,2.176078 -1.41899,2.330746 -1.1937,2.471232 -0.95422,2.597538 -0.70056,2.709661 -0.43271,2.807602 -0.15067,2.891361 0,1.529681 0,1.52968 0,1.529681 0,1.529681 0,1.529678 0,1.52968 0,1.52968 0,1.52968 0,1.52969 0,1.52968 0,1.52968 0,1.52968 0,1.52968 0,1.52968 0,1.52968 0,1.52968 0,6e-5 0,6e-5 0,5e-5 0,6e-5 0,6e-5 0,6e-5 0,5e-5 0,6e-5 0,6e-5 0,6e-5 0,5e-5 0,6e-5 0,6e-5 0,6e-5 0,5e-5 0,6e-5 0.0206,0.40915 0.0605,0.39722 0.0983,0.38329 0.13421,0.36736 0.1681,0.34945 0.19996,0.32953 0.22985,0.30762 0.25773,0.28371 0.28361,0.25781 0.30749,0.2299 0.32937,0.20002 0.34926,0.16812 0.36715,0.13424 0.38304,0.0983 0.39693,0.0605 0.40882,0.0206 9.1e-4,0 9e-4,0 9.1e-4,0 9e-4,0 9.1e-4,0 9.1e-4,0 9e-4,0 9.1e-4,0 9.1e-4,0 9e-4,0 9.1e-4,0 9.1e-4,0 9e-4,0 9.1e-4,0 9e-4,0 9.1e-4,0 1.16191,0 1.16191,0 1.1619,0 1.16191,0 1.16191,0 1.16191,0 1.1619,0 1.16191,0 1.16191,0 1.16191,0 1.1619,0 1.16191,0 1.16191,0 1.16191,0 1.1619,0 1.16191,0 1.28237,0.064 1.24488,0.18792 1.20116,0.30577 1.15121,0.41756 1.09502,0.52326 1.03259,0.62289 0.96394,0.71644 0.88904,0.80392 0.80792,0.88533 0.72056,0.96065 0.62696,1.02991 0.52714,1.09309 0.42107,1.15019 0.30877,1.20122 0.19025,1.24618 0.0655,1.28505 -0.0646,1.28539 -0.18967,1.24619 -0.30843,1.20096 -0.42095,1.14969 -0.52718,1.09239 -0.62716,1.02906 -0.72085,0.95969 -0.80828,0.88428 -0.88943,0.80285 -0.96432,0.71539 -1.03295,0.62187 -1.09529,0.52234 -1.15137,0.41677 -1.20117,0.30516 -1.24472,0.18752 -1.28198,0.0639 -1.4125,0 -1.41249,0 -1.4125,0 -1.4125,0 -1.41249,0 -1.4125,0 -1.4125,0 -1.4125,0 -1.41249,0 -1.4125,0 -1.4125,0 -1.41249,0 -1.4125,0 -1.4125,0 -1.41249,0 -1.4125,0 0,1.78175 0,1.78175 0,1.78175 0,1.78175 0,1.78175 0,1.78175 0,1.78175 0,1.78175 0,1.78175 0,1.78175 0,1.78175 0,1.78175 0,1.78175 0,1.78175 0,1.78175 0,1.78175 0,0.003 0,0.003 0,0.003 0,0.003 0,0.003 0,0.003 0,0.003 0,0.003 0,0.003 0,0.003 0,0.003 0,0.003 0,0.003 0,0.003 0,0.003 0,0.003 -0.27693,5.48397 -0.81282,5.32557 -1.32173,5.14022 -1.80369,4.92791 -2.25868,4.68862 -2.68669,4.42237 -3.08776,4.12917 -3.46185,3.809 -3.80898,3.46186 -4.12913,3.08776 -4.42234,2.68669 -4.688562,2.25868 -4.927829,1.80368 -5.14013,1.32172 -5.325463,0.81281 -5.483833,0.27693 -0.828108,-0.006 -0.800922,-0.0179 -0.777057,-0.03 -0.756516,-0.0422 -0.739297,-0.0546 -0.725401,-0.067 -0.714828,-0.0795 -0.707577,-0.0922 -0.70365,-0.10496 -0.703045,-0.11785 -0.705762,-0.13084 -0.711802,-0.14396 -0.721166,-0.15718 -0.733852,-0.17051 -0.74986,-0.18396 -0.769191,-0.19752 -1.123551,-0.33711 -1.091893,-0.41263 -1.054605,-0.48437 -1.011687,-0.55235 -0.963142,-0.61657 -0.908967,-0.677 -0.849162,-0.73369 -0.78373,-0.78659 -0.712667,-0.83574 -0.635976,-0.88111 -0.553656,-0.92271 -0.465707,-0.96056 -0.372128,-0.99463 -0.272921,-1.02493 -0.168085,-1.05148 -0.05762,-1.07424 0.05882,-1.28785 0.173978,-1.23852 0.285389,-1.18453 0.393056,-1.12588 0.49698,-1.06258 0.597159,-0.99462 0.693597,-0.922 0.786289,-0.84472 0.87524,-0.76279 0.960446,-0.67619 1.041909,-0.58495 1.119629,-0.48903 1.193605,-0.38847 1.263838,-0.28324 1.330327,-0.17337 1.393073,-0.0588 0.651603,0.008 0.606874,0.022 0.571346,0.0342 0.545018,0.0443 0.527889,0.0524 0.51996,0.0585 0.521231,0.0626 0.531702,0.0646 0.551374,0.0646 0.580244,0.0626 0.618315,0.0585 0.665586,0.0525 0.722056,0.0443 0.787727,0.0342 0.862597,0.022 0.946668,0.008 2.891663,-0.14589 2.808312,-0.4282 2.710762,-0.69633 2.59901,-0.95026 2.47306,-1.18999 2.332909,-1.41554 2.178557,-1.6269 2.010007,-1.82405 1.827255,-2.00703 1.630302,-2.1758 1.41915,-2.33038 1.1938,-2.47078 0.95425,-2.59697 0.7005,-2.70898 0.43255,-2.80679 0.15039,-2.89042 0,-1.53772 0,-1.53772 0,-1.53772 0,-1.53772 0,-1.53773 0,-1.53772 0,-1.53772 0,-1.53772 0,-1.53772 0,-1.53772 0,-1.53772 0,-1.53773 0,-1.53772 0,-1.53772 0,-1.53772 0,-1.53772 -0.0207,-0.40836 -0.0606,-0.39652 -0.0986,-0.38268 -0.1345,-0.36685 -0.16844,-0.34901 -0.20035,-0.32917 -0.23026,-0.30732 -0.25814,-0.28347 -0.28404,-0.25762 -0.30789,-0.22977 -0.32976,-0.19991 -0.3496,-0.16806 -0.36744,-0.1342 -0.38326,-0.0983 -0.39707,-0.0605 -0.40887,-0.0206 -6.2e-4,0 -6.3e-4,0 -6.2e-4,0 -6.3e-4,0 -6.2e-4,0 -6.3e-4,0 -6.2e-4,0 -6.3e-4,0 -6.2e-4,0 -6.3e-4,0 -6.2e-4,0 -6.3e-4,0 -6.2e-4,0 -6.3e-4,0 -6.2e-4,0 -6.3e-4,0 -1.16185,0 -1.161856,0 -1.161852,0 -1.161853,0 -1.161853,0 -1.161853,0 -1.161853,0 -1.161853,0 -1.161852,0 -1.161853,0 -1.161853,0 -1.161853,0 -1.161853,0 -1.161852,0 -1.161853,0 -1.161853,0 -1.282736,-0.0638 -1.245295,-0.18735 -1.201601,-0.3049 -1.151654,-0.41644 -1.095454,-0.52195 -1.033002,-0.62146 -0.964296,-0.71495 -0.889338,-0.80241 -0.808128,-0.88388 -0.720664,-0.95932 -0.626947,-1.02874 -0.526979,-1.09216 -0.420756,-1.14955 -0.308282,-1.20093 -0.189555,-1.2463 -0.06457,-1.28565 0.06495,-1.29225 0.191299,-1.25158 0.31133,-1.20502 0.425037,-1.15256 0.532421,-1.09422 0.633481,-1.02998 0.72822,-0.95985 0.816635,-0.88382 0.898726,-0.80192 0.974495,-0.7141 1.043941,-0.62041 1.107064,-0.52082 1.163864,-0.41534 1.21434,-0.30397 1.258494,-0.1867 1.296325,-0.0635 1.404063,0 1.404063,0 1.404063,0 1.404063,0 1.404063,0 1.404063,0 1.404063,0 1.404063,0 1.404062,0 1.404063,0 1.404063,0 1.404065,0 1.40406,0 1.40406,0 1.40407,0 1.40406,0 0,-6e-5 0,-5e-5 0,-6e-5 0,-6e-5 0,-5e-5 0,-6e-5 0,-5e-5 0,-6e-5 0,-6e-5 0,-5e-5 0,-6e-5 0,-6e-5 0,-5e-5 0,-6e-5 0,-5e-5 0,-6e-5 0,0 0,0 0,0 0,0 1e-5,0 0,0 0,0 0,0 0,-10e-6 0,0 0,0 1e-5,0 0,0 0,0 0,0 z"
     sodipodi:nodetypes="ccccccccccccccccccccccccccccccccccccccccccccccccccccccccccccccccccccccccccccccccccccccccccccccccccccccccccccccccccccccccccccccccccccccccccccccccccccccccccccccccccccccccccccccccccccccccccccccccccccccccccccccccccccccccccccccccccccccccccccccccccccccccccccccccccccccccccccccccccccccccccccccccccccccccccccccccccccccccccccccccccccccccccccccccccccccccccccccccccccccccccccccccccccccccccccccccccccccccccccccccccccccccccccccccccccccccccccccccccccccccccccccccccccccccccccccccccccccccccccccccccccccccccccccccccccccccccccccccccccccccccccccccc" /></svg>