<?xml version="1.0" encoding="UTF-8" standalone="no"?>
<svg
   xmlns:dc="http://purl.org/dc/elements/1.1/"
   xmlns:cc="http://creativecommons.org/ns#"
   xmlns:rdf="http://www.w3.org/1999/02/22-rdf-syntax-ns#"
   xmlns:svg="http://www.w3.org/2000/svg"
   xmlns="http://www.w3.org/2000/svg"
   xmlns:xlink="http://www.w3.org/1999/xlink"
   xmlns:sodipodi="http://sodipodi.sourceforge.net/DTD/sodipodi-0.dtd"
   xmlns:inkscape="http://www.inkscape.org/namespaces/inkscape"
   version="1.0"
   x="0.0000000"
   y="0.0000000"
   width="240"
   height="240"
   viewBox="0 0 252.32 252.32"
   xml:space="preserve"
   id="translucent-fedora-logo-with-radial-gradient"
   sodipodi:version="0.32"
   inkscape:version="0.48.4 r9939"
   sodipodi:docname="background.svg"><metadata
     id="metadata15"><rdf:RDF><cc:Work
         rdf:about=""><dc:format>image/svg+xml</dc:format><dc:type
           rdf:resource="http://purl.org/dc/dcmitype/StillImage" /><dc:title></dc:title></cc:Work></rdf:RDF></metadata><defs
     id="defs13"><linearGradient
       id="linearGradient1349"><stop
         style="stop-color:#000001;stop-opacity:1;"
         offset="0"
         id="stop1351" /><stop
         style="stop-color:#003663;stop-opacity:1;"
         offset="1"
         id="stop1353" /></linearGradient><radialGradient
       inkscape:collect="always"
       xlink:href="#linearGradient1349"
       id="radialGradient3113"
       gradientUnits="userSpaceOnUse"
       gradientTransform="matrix(0.934779,2.68766e-2,-2.919437e-2,1.015309,18.24616,-5.699573)"
       cx="115.90415"
       cy="140.93495"
       fx="115.90415"
       fy="140.93495"
       r="126.1585" /></defs><sodipodi:namedview
     inkscape:window-height="787"
     inkscape:window-width="1142"
     inkscape:pageshadow="2"
     inkscape:pageopacity="0"
     borderopacity="1.0"
     bordercolor="#666666"
     pagecolor="#ffffff"
     id="base"
     inkscape:zoom="2"
     inkscape:cx="136.58003"
     inkscape:cy="108.68817"
     inkscape:window-x="64"
     inkscape:window-y="24"
     inkscape:current-layer="translucent-fedora-logo-with-radial-gradient"
     showgrid="false"
     inkscape:window-maximized="0" /><path
     inkscape:connector-curvature="0"
     id="blue-inifity-connectors"
     style="fill:#ff0000"
     d="m 106.07701,121.03346 0,-28.391151 c 0,-0.01268 0,-0.02627 0,-0.03714 0,-29.624981 24.01403,-53.640582 53.64002,-53.640582 4.49407,0 7.68732,0.506401 11.84712,1.595296 6.06669,1.590784 11.02098,6.560582 11.02367,12.345709 0.003,6.993611 -5.07383,12.077556 -12.6606,12.077556 -3.61447,0 -4.92075,-0.692115 -10.21293,-0.692115 -15.61921,0 -28.28437,12.650096 -28.31063,28.268836 l 0,24.474891 0,9.2e-4 c 0,2.21041 1.7864,3.99685 3.99494,3.99685 0.003,0 0.009,0 0.0145,0 l 18.59052,0 c 6.92819,0 12.52292,5.54688 12.52836,12.49337 0,6.94921 -5.60288,12.4834 -12.52836,12.4834 l -22.59995,0 0,28.508 c 0,0.0163 0,0.0263 0,0.0426 0,29.62226 -24.01493,53.63696 -53.636417,53.63696 -4.494983,0 -7.688223,-0.5064 -11.848034,-1.59621 -6.066691,-1.58987 -11.022775,-6.56239 -11.025496,-12.34571 0,-6.99179 5.072949,-12.07756 12.66334,-12.07756 3.610846,0 4.920753,0.69304 10.21019,0.69304 15.619226,0 28.288027,-12.651 28.312477,-28.26431 0,0 0,-24.59902 0,-24.60354 0,-2.20589 -1.79094,-3.99234 -3.99946,-3.99234 -0.003,0 -0.005,0 -0.01,0 l -18.589645,0 c -6.929989,0 -12.529261,-5.52875 -12.529261,-12.47978 -0.0018,-6.98998 5.657246,-12.49608 12.660619,-12.49608 l 22.465007,0 0,-9e-4 z" /></svg>